<svg width="75" height="65" viewBox="0 0 75 65" fill="none" xmlns="http://www.w3.org/2000/svg">
<g filter="url(#filter0_d_647_190)">
<rect x="15" y="6" width="45" height="45" rx="22.5" fill="url(#paint0_linear_647_190)"/>
</g>
<path d="M45 28H39V22C39 21.7348 38.8946 21.4804 38.7071 21.2929C38.5196 21.1054 38.2652 21 38 21C37.7348 21 37.4804 21.1054 37.2929 21.2929C37.1054 21.4804 37 21.7348 37 22V28H31C30.7348 28 30.4804 28.1054 30.2929 28.2929C30.1054 28.4804 30 28.7348 30 29C30 29.2652 30.1054 29.5196 30.2929 29.7071C30.4804 29.8946 30.7348 30 31 30H37V36C37 36.2652 37.1054 36.5196 37.2929 36.7071C37.4804 36.8946 37.7348 37 38 37C38.2652 37 38.5196 36.8946 38.7071 36.7071C38.8946 36.5196 39 36.2652 39 36V30H45C45.2652 30 45.5196 29.8946 45.7071 29.7071C45.8946 29.5196 46 29.2652 46 29C46 28.7348 45.8946 28.4804 45.7071 28.2929C45.5196 28.1054 45.2652 28 45 28Z" fill="white"/>
<defs>
<filter id="filter0_d_647_190" x="5" y="0" width="65" height="65" filterUnits="userSpaceOnUse" color-interpolation-filters="sRGB">
<feFlood flood-opacity="0" result="BackgroundImageFix"/>
<feColorMatrix in="SourceAlpha" type="matrix" values="0 0 0 0 0 0 0 0 0 0 0 0 0 0 0 0 0 0 127 0" result="hardAlpha"/>
<feOffset dy="4"/>
<feGaussianBlur stdDeviation="5"/>
<feComposite in2="hardAlpha" operator="out"/>
<feColorMatrix type="matrix" values="0 0 0 0 0.945098 0 0 0 0 0.607843 0 0 0 0 0.0823529 0 0 0 0.4 0"/>
<feBlend mode="normal" in2="BackgroundImageFix" result="effect1_dropShadow_647_190"/>
<feBlend mode="normal" in="SourceGraphic" in2="effect1_dropShadow_647_190" result="shape"/>
</filter>
<linearGradient id="paint0_linear_647_190" x1="15" y1="28.5" x2="60" y2="28.5" gradientUnits="userSpaceOnUse">
<stop stop-color="#FFCD1E"/>
<stop offset="1" stop-color="#F19B15"/>
</linearGradient>
</defs>
</svg>
