<svg width="20" height="20" viewBox="0 0 20 20" fill="none" xmlns="http://www.w3.org/2000/svg">
<path fill-rule="evenodd" clip-rule="evenodd" d="M5.87521 2.54187C6.96917 1.44791 8.4529 0.833328 10 0.833328C11.5471 0.833328 13.0308 1.44791 14.1248 2.54187C15.2188 3.63583 15.8333 5.11957 15.8333 6.66666C15.8333 9.46054 16.4309 11.1955 16.9816 12.2051C17.2581 12.712 17.5273 13.0446 17.7143 13.242C17.8081 13.3409 17.8817 13.4065 17.9261 13.4435C17.9482 13.462 17.9631 13.4733 17.9695 13.4781C17.9705 13.4788 17.9713 13.4794 17.9719 13.4798C18.2707 13.685 18.4029 14.0604 18.2976 14.4081C18.1912 14.7596 17.8672 15 17.5 15H2.5C2.13278 15 1.80884 14.7596 1.70242 14.4081C1.59714 14.0604 1.72934 13.685 2.02808 13.4798C2.02866 13.4794 2.02946 13.4788 2.03046 13.4781C2.03687 13.4733 2.05175 13.462 2.07394 13.4435C2.11828 13.4065 2.19194 13.3409 2.28567 13.242C2.47269 13.0446 2.74193 12.712 3.01842 12.2051C3.56911 11.1955 4.16667 9.46054 4.16667 6.66666C4.16667 5.11957 4.78125 3.63583 5.87521 2.54187ZM2.0365 13.4741C2.03656 13.4741 2.03663 13.474 2.0367 13.474C2.03669 13.474 2.03669 13.474 2.03669 13.474L2.0365 13.4741ZM4.2911 13.3333H15.7089C15.6455 13.2294 15.5818 13.1195 15.5184 13.0032C14.8191 11.7211 14.1667 9.70611 14.1667 6.66666C14.1667 5.56159 13.7277 4.50178 12.9463 3.72038C12.1649 2.93898 11.1051 2.49999 10 2.49999C8.89493 2.49999 7.83512 2.93898 7.05372 3.72038C6.27232 4.50179 5.83333 5.56159 5.83333 6.66666C5.83333 9.70611 5.18089 11.7211 4.48158 13.0032C4.41817 13.1195 4.35451 13.2294 4.2911 13.3333Z" fill="#ADB6BE"/>
<path fill-rule="evenodd" clip-rule="evenodd" d="M8.14043 16.7791C8.53853 16.5482 9.04847 16.6837 9.2794 17.0818C9.35266 17.2081 9.4578 17.3129 9.58431 17.3858C9.71081 17.4587 9.85424 17.497 10.0002 17.497C10.1462 17.497 10.2897 17.4587 10.4162 17.3858C10.5427 17.3129 10.6478 17.2081 10.7211 17.0818C10.952 16.6837 11.4619 16.5482 11.86 16.7791C12.2582 17.0101 12.3937 17.52 12.1627 17.9181C11.943 18.297 11.6275 18.6114 11.248 18.83C10.8685 19.0486 10.4382 19.1637 10.0002 19.1637C9.56226 19.1637 9.13197 19.0486 8.75245 18.83C8.37293 18.6114 8.0575 18.297 7.83774 17.9181C7.6068 17.52 7.74232 17.0101 8.14043 16.7791Z" fill="#ADB6BE"/>
</svg>
