<svg width="18" height="18" viewBox="0 0 18 18" fill="none" xmlns="http://www.w3.org/2000/svg">
<path d="M9.00001 1.5C7.51665 1.5 6.0666 1.93987 4.83323 2.76398C3.59986 3.58809 2.63856 4.75943 2.07091 6.12987C1.50325 7.50032 1.35472 9.00832 1.64411 10.4632C1.9335 11.918 2.64781 13.2544 3.6967 14.3033C4.7456 15.3522 6.08197 16.0665 7.53683 16.3559C8.99169 16.6453 10.4997 16.4967 11.8701 15.9291C13.2406 15.3614 14.4119 14.4001 15.236 13.1668C16.0601 11.9334 16.5 10.4834 16.5 9C16.5 8.01508 16.306 7.03981 15.9291 6.12987C15.5522 5.21993 14.9998 4.39314 14.3033 3.6967C13.6069 3.00026 12.7801 2.44781 11.8701 2.0709C10.9602 1.69399 9.98492 1.5 9.00001 1.5ZM12.057 11.8603C11.5929 12.2657 11.037 12.5518 10.4374 12.6939C9.83778 12.8359 9.21258 12.8296 8.61595 12.6755C8.01933 12.5214 7.46927 12.2242 7.01344 11.8096C6.55761 11.3949 6.20975 10.8754 6.00001 10.296H5.27167C5.13906 10.296 5.01189 10.2433 4.91812 10.1495C4.82435 10.0558 4.77167 9.92861 4.77167 9.796C4.77167 9.66339 4.82435 9.53621 4.91812 9.44244C5.01189 9.34867 5.13906 9.296 5.27167 9.296H5.78267C5.77534 9.2 5.76667 9.1 5.76667 9C5.76667 8.9 5.77401 8.8 5.78167 8.70266H5.27167C5.13906 8.70266 5.01189 8.64999 4.91812 8.55622C4.82435 8.46245 4.77167 8.33527 4.77167 8.20266C4.77167 8.07006 4.82435 7.94288 4.91812 7.84911C5.01189 7.75534 5.13906 7.70266 5.27167 7.70266H6.00001C6.26631 6.97187 6.75062 6.34048 7.38744 5.8939C8.02426 5.44731 8.78287 5.20707 9.56067 5.20567C10.411 5.20261 11.2371 5.48818 11.904 6.01566C11.9576 6.05552 12.0026 6.10571 12.0365 6.16326C12.0703 6.2208 12.0923 6.28455 12.1011 6.35073C12.11 6.41691 12.1054 6.48419 12.0878 6.5486C12.0702 6.613 12.0399 6.67323 11.9987 6.72573C11.9574 6.77823 11.906 6.82193 11.8476 6.85426C11.7892 6.88659 11.7249 6.9069 11.6585 6.91397C11.5921 6.92105 11.525 6.91476 11.4611 6.89547C11.3971 6.87618 11.3377 6.84429 11.2863 6.80166C10.7951 6.41346 10.1868 6.20335 9.56067 6.20566C9.05124 6.20622 8.55164 6.34597 8.11586 6.6098C7.68007 6.87364 7.32465 7.25153 7.08801 7.70266H9.16834C9.30095 7.70266 9.42812 7.75534 9.52189 7.84911C9.61566 7.94288 9.66834 8.07006 9.66834 8.20266C9.66834 8.33527 9.61566 8.46245 9.52189 8.55622C9.42812 8.64999 9.30095 8.70266 9.16834 8.70266H6.78401C6.773 8.8014 6.76721 8.90065 6.76667 9C6.76683 9.09842 6.77206 9.19678 6.78234 9.29466H9.16834C9.30095 9.29466 9.42812 9.34734 9.52189 9.44111C9.61566 9.53488 9.66834 9.66206 9.66834 9.79466C9.66834 9.92727 9.61566 10.0544 9.52189 10.1482C9.42812 10.242 9.30095 10.2947 9.16834 10.2947H7.08834C7.28366 10.6692 7.56141 10.9945 7.90068 11.2462C8.23995 11.4978 8.6319 11.6692 9.047 11.7474C9.4621 11.8256 9.88953 11.8086 10.2971 11.6977C10.7047 11.5867 11.0818 11.3848 11.4 11.107C11.4495 11.0638 11.507 11.0308 11.5692 11.0098C11.6314 10.9889 11.6972 10.9804 11.7627 10.9848C11.8282 10.9892 11.8922 11.0065 11.951 11.0357C12.0098 11.0649 12.0623 11.1054 12.1055 11.1548C12.1487 11.2043 12.1817 11.2618 12.2027 11.324C12.2236 11.3862 12.2321 11.452 12.2277 11.5175C12.2233 11.583 12.206 11.647 12.1768 11.7058C12.1476 11.7646 12.1071 11.8171 12.0577 11.8603H12.057Z" fill="#F19B15"/>
</svg>
