<svg width="23" height="22" viewBox="0 0 23 22" fill="none" xmlns="http://www.w3.org/2000/svg">
<g clip-path="url(#clip0_2114_3270)">
<path d="M15.7341 0C15.7853 0 15.8365 0 15.8906 0C16.0162 1.55149 15.424 2.71075 14.7043 3.55026C13.9981 4.38396 13.0311 5.19255 11.467 5.06986C11.3627 3.5406 11.9559 2.46731 12.6746 1.62974C13.3412 0.849163 14.5632 0.154569 15.7341 0Z" fill="black"/>
<path d="M20.469 16.1487C20.469 16.1641 20.469 16.1777 20.469 16.1921C20.0294 17.5234 19.4025 18.6643 18.6374 19.7231C17.9389 20.6843 17.083 21.9779 15.5547 21.9779C14.2341 21.9779 13.3569 21.1287 12.0035 21.1055C10.5718 21.0823 9.78442 21.8156 8.47541 22.0001C8.32568 22.0001 8.17594 22.0001 8.0291 22.0001C7.06787 21.861 6.29213 21.0997 5.72698 20.4138C4.06054 18.387 2.77279 15.769 2.5332 12.4187C2.5332 12.0903 2.5332 11.7628 2.5332 11.4343C2.63464 9.03657 3.7997 7.08707 5.34829 6.14227C6.16557 5.63992 7.2891 5.21195 8.54014 5.40323C9.0763 5.48631 9.62406 5.66986 10.1042 5.85148C10.5592 6.02634 11.1282 6.33644 11.6673 6.32002C12.0324 6.30939 12.3957 6.11908 12.7637 5.9848C13.8419 5.59548 14.8987 5.14916 16.2918 5.35879C17.966 5.6119 19.1542 6.35576 19.8884 7.50344C18.4722 8.40477 17.3525 9.76304 17.5438 12.0825C17.7138 14.1895 18.9388 15.4222 20.469 16.1487Z" fill="black"/>
</g>
<defs>
<clipPath id="clip0_2114_3270">
<rect width="22" height="22" fill="white" transform="translate(0.5)"/>
</clipPath>
</defs>
</svg>
