<svg width="20" height="20" viewBox="0 0 20 20" fill="none" xmlns="http://www.w3.org/2000/svg">
<path fill-rule="evenodd" clip-rule="evenodd" d="M5.8756 2.54192C6.96956 1.44796 8.45329 0.833374 10.0004 0.833374C11.5475 0.833374 13.0312 1.44796 14.1252 2.54192C15.2191 3.63588 15.8337 5.11961 15.8337 6.66671C15.8337 9.46059 16.4313 11.1956 16.982 12.2052C17.2585 12.7121 17.5277 13.0446 17.7147 13.242C17.8085 13.341 17.8821 13.4066 17.9265 13.4435C17.9486 13.462 17.9635 13.4733 17.9699 13.4781C17.9709 13.4789 17.9717 13.4795 17.9723 13.4799C18.2711 13.6851 18.4033 14.0605 18.298 14.4082C18.1916 14.7597 17.8676 15 17.5004 15H2.50039C2.13317 15 1.80923 14.7597 1.70281 14.4082C1.59753 14.0605 1.72973 13.6851 2.02847 13.4799C2.02905 13.4795 2.02985 13.4789 2.03085 13.4781C2.03726 13.4733 2.05214 13.462 2.07433 13.4435C2.11867 13.4066 2.19233 13.341 2.28605 13.242C2.47308 13.0446 2.74231 12.7121 3.01881 12.2052C3.5695 11.1956 4.16706 9.46059 4.16706 6.66671C4.16706 5.11961 4.78164 3.63588 5.8756 2.54192ZM2.03689 13.4742C2.03695 13.4741 2.03702 13.4741 2.03709 13.474C2.03708 13.474 2.03708 13.474 2.03707 13.474L2.03689 13.4742ZM4.29149 13.3334H15.7093C15.6459 13.2295 15.5822 13.1195 15.5188 13.0033C14.8195 11.7212 14.1671 9.70616 14.1671 6.66671C14.1671 5.56164 13.7281 4.50183 12.9467 3.72043C12.1653 2.93903 11.1055 2.50004 10.0004 2.50004C8.89532 2.50004 7.83551 2.93903 7.05411 3.72043C6.27271 4.50183 5.83372 5.56164 5.83372 6.66671C5.83372 9.70616 5.18128 11.7212 4.48197 13.0033C4.41855 13.1195 4.3549 13.2295 4.29149 13.3334Z" fill="#ADB6BE"/>
<path fill-rule="evenodd" clip-rule="evenodd" d="M8.13994 16.7791C8.53804 16.5482 9.04798 16.6837 9.27891 17.0818C9.35217 17.2081 9.45731 17.3129 9.58382 17.3858C9.71033 17.4587 9.85375 17.497 9.99975 17.497C10.1457 17.497 10.2892 17.4587 10.4157 17.3858C10.5422 17.3129 10.6473 17.2081 10.7206 17.0818C10.9515 16.6837 11.4615 16.5482 11.8596 16.7791C12.2577 17.0101 12.3932 17.52 12.1622 17.9181C11.9425 18.297 11.6271 18.6114 11.2475 18.83C10.868 19.0486 10.4377 19.1637 9.99975 19.1637C9.56177 19.1637 9.13149 19.0486 8.75196 18.83C8.37244 18.6114 8.05701 18.297 7.83725 17.9181C7.60631 17.52 7.74183 17.0101 8.13994 16.7791Z" fill="#ADB6BE"/>
</svg>
