<svg width="24" height="24" viewBox="0 0 24 24" fill="none" xmlns="http://www.w3.org/2000/svg">
<path d="M4.91878 22.5566C5.27683 22.7582 5.68292 22.8587 6.09364 22.8473C6.50437 22.836 6.90431 22.7133 7.25071 22.4923L11.7585 19.6738C11.8315 19.6282 11.9158 19.6041 12.0018 19.6041C12.0878 19.6041 12.1721 19.6282 12.2451 19.6738L16.7529 22.4923C17.1002 22.7083 17.499 22.8275 17.9079 22.8377C18.3167 22.8478 18.7209 22.7485 19.0785 22.55C19.4361 22.3516 19.7342 22.0611 19.942 21.7088C20.1497 21.3565 20.2595 20.955 20.26 20.546V3.75425C20.26 3.02378 19.9698 2.32322 19.4533 1.8067C18.9367 1.29018 18.2362 1 17.5057 1H6.4887C5.75823 1 5.05767 1.29018 4.54115 1.8067C4.02463 2.32322 3.73445 3.02378 3.73445 3.75425V20.546C3.73111 20.957 3.83955 21.3612 4.04815 21.7153C4.25676 22.0695 4.55769 22.3603 4.91878 22.5566Z" fill="white"/>
<path d="M8.78527 10.6398H11.0805V12.935C11.0805 13.1785 11.1772 13.412 11.3494 13.5842C11.5216 13.7564 11.7551 13.8531 11.9986 13.8531C12.2421 13.8531 12.4756 13.7564 12.6478 13.5842C12.8199 13.412 12.9167 13.1785 12.9167 12.935V10.6398H15.2119C15.4554 10.6398 15.6889 10.5431 15.861 10.3709C16.0332 10.1987 16.1299 9.9652 16.1299 9.72171C16.1299 9.47822 16.0332 9.2447 15.861 9.07253C15.6889 8.90035 15.4554 8.80363 15.2119 8.80363H12.9167V6.50842C12.9167 6.26493 12.8199 6.03141 12.6478 5.85923C12.4756 5.68706 12.2421 5.59033 11.9986 5.59033C11.7551 5.59033 11.5216 5.68706 11.3494 5.85923C11.1772 6.03141 11.0805 6.26493 11.0805 6.50842V8.80363H8.78527C8.54178 8.80363 8.30826 8.90035 8.13609 9.07253C7.96391 9.2447 7.86719 9.47822 7.86719 9.72171C7.86719 9.9652 7.96391 10.1987 8.13609 10.3709C8.30826 10.5431 8.54178 10.6398 8.78527 10.6398Z" fill="#33495D"/>
</svg>
