<svg width="18" height="22" viewBox="0 0 18 22" fill="none" xmlns="http://www.w3.org/2000/svg">
<path d="M1.91878 21.5566C2.27683 21.7582 2.68292 21.8587 3.09364 21.8473C3.50437 21.836 3.90431 21.7133 4.25071 21.4923L8.75851 18.6738C8.83146 18.6282 8.91577 18.6041 9.0018 18.6041C9.08783 18.6041 9.17214 18.6282 9.24509 18.6738L13.7529 21.4923C14.1002 21.7083 14.499 21.8275 14.9079 21.8377C15.3167 21.8478 15.7209 21.7485 16.0785 21.55C16.4361 21.3516 16.7342 21.0611 16.942 20.7088C17.1497 20.3565 17.2595 19.955 17.26 19.546V2.75425C17.26 2.02378 16.9698 1.32322 16.4533 0.806702C15.9367 0.290179 15.2362 0 14.5057 0H3.4887C2.75823 0 2.05767 0.290179 1.54115 0.806702C1.02463 1.32322 0.73445 2.02378 0.73445 2.75425V19.546C0.731114 19.957 0.839545 20.3612 1.04815 20.7153C1.25676 21.0695 1.55769 21.3603 1.91878 21.5566ZM2.57062 2.75425C2.57062 2.51076 2.66735 2.27724 2.83952 2.10507C3.01169 1.93289 3.24521 1.83617 3.4887 1.83617H14.5057C14.7492 1.83617 14.9827 1.93289 15.1549 2.10507C15.3271 2.27724 15.4238 2.51076 15.4238 2.75425V19.546C15.4227 19.6269 15.4001 19.7061 15.3585 19.7756C15.3169 19.845 15.2577 19.9022 15.1868 19.9413C15.116 19.9805 15.0361 20.0002 14.9551 19.9985C14.8742 19.9968 14.7952 19.9737 14.7261 19.9316L10.2183 17.1131C9.85311 16.8861 9.43174 16.7658 9.0018 16.7658C8.57186 16.7658 8.15049 16.8861 7.78534 17.1131L3.26836 19.9408C3.19857 19.9833 3.1187 20.0064 3.03699 20.0077C2.95529 20.009 2.87472 19.9885 2.80361 19.9482C2.73249 19.908 2.6734 19.8495 2.63244 19.7788C2.59148 19.7081 2.57014 19.6277 2.57062 19.546V2.75425Z" fill="#F19B15"/>
<path d="M5.78527 9.63979H8.08048V11.935C8.08048 12.1785 8.17721 12.412 8.34938 12.5842C8.52156 12.7564 8.75507 12.8531 8.99857 12.8531C9.24206 12.8531 9.47558 12.7564 9.64775 12.5842C9.81992 12.412 9.91665 12.1785 9.91665 11.935V9.63979H12.2119C12.4554 9.63979 12.6889 9.54307 12.861 9.37089C13.0332 9.19872 13.1299 8.9652 13.1299 8.72171C13.1299 8.47822 13.0332 8.2447 12.861 8.07253C12.6889 7.90035 12.4554 7.80363 12.2119 7.80363H9.91665V5.50842C9.91665 5.26493 9.81992 5.03141 9.64775 4.85923C9.47558 4.68706 9.24206 4.59033 8.99857 4.59033C8.75507 4.59033 8.52156 4.68706 8.34938 4.85923C8.17721 5.03141 8.08048 5.26493 8.08048 5.50842V7.80363H5.78527C5.54178 7.80363 5.30826 7.90035 5.13609 8.07253C4.96391 8.2447 4.86719 8.47822 4.86719 8.72171C4.86719 8.9652 4.96391 9.19872 5.13609 9.37089C5.30826 9.54307 5.54178 9.63979 5.78527 9.63979Z" fill="#F19B15"/>
</svg>
