<svg width="40" height="40" viewBox="0 0 40 40" fill="none" xmlns="http://www.w3.org/2000/svg">
<g clip-path="url(#clip0_4866_40812)">
<path d="M34.9305 2.5H4.93047C2.23828 2.5 0 4.73828 0 7.5V32.5C0 35.2617 2.23828 37.5 4.92969 37.5H34.9297C37.6914 37.5 39.9297 35.2617 39.9297 32.5V7.5C39.9305 4.73828 37.7586 2.5 34.9305 2.5ZM8.68047 7.5C10.7516 7.5 12.4305 9.17891 12.4305 11.25C12.4305 13.3211 10.8211 15 8.68047 15C6.53984 15 4.93047 13.3211 4.93047 11.25C4.93047 9.17891 6.67891 7.5 8.68047 7.5ZM34.8523 31.8438C34.6336 32.25 34.2117 32.5 33.7508 32.5H6.40781C6.17711 32.5 5.9509 32.4362 5.75426 32.3155C5.55763 32.1948 5.39823 32.0221 5.29375 31.8164C5.18916 31.6107 5.14353 31.3801 5.16193 31.1501C5.18032 30.9201 5.26202 30.6997 5.39797 30.5133L10.8667 23.0133C11.1023 22.6875 11.4773 22.5 11.8758 22.5C12.2742 22.5 12.6505 22.6907 12.8859 23.0136L15.4219 26.4909L22.7109 15.6237C22.9461 15.2109 23.3367 15 23.7508 15C24.1648 15 24.5594 15.2087 24.7906 15.5566L34.7906 30.5566C35.0477 30.9375 35.0711 31.4297 34.8523 31.8438Z" fill="#ADB6BE"/>
</g>
<defs>
<clipPath id="clip0_4866_40812">
<rect width="40" height="40" fill="white"/>
</clipPath>
</defs>
</svg>
