<svg width="30" height="30" viewBox="0 0 30 30" fill="none" xmlns="http://www.w3.org/2000/svg">
<path d="M21.0821 25.1543L15 23.3965L8.91791 25.1543C8.86523 25.2598 8.84766 25.3652 8.84766 25.4883V29.1211H21.1523V25.4883C21.1523 25.3652 21.1348 25.2598 21.0821 25.1543Z" fill="#646D73"/>
<path d="M21.1523 29.1211V25.4883C21.1523 25.3652 21.1348 25.2598 21.0821 25.1543L15 23.3965V29.1211H21.1523Z" fill="#474F54"/>
<path d="M29.1211 1.75781H24.6302C24.6379 1.46092 24.668 1.18125 24.668 0.878906C24.668 0.38666 24.2813 0 23.7891 0H6.21094C5.71869 0 5.33203 0.38666 5.33203 0.878906C5.33203 1.18125 5.36209 1.46092 5.36971 1.75781H0.878906C0.393105 1.75781 0 2.15092 0 2.63672V4.86316C0 9.77063 3.93117 13.7572 8.77576 14.0138C9.78504 15.4034 10.9829 16.4347 12.3457 17.0156C12.1348 21.2871 9.69141 24.2578 9.11139 24.8731C9.02344 24.9434 8.95312 25.0488 8.91797 25.1543H21.0821C21.0469 25.0488 20.9766 24.9434 20.8887 24.8731C20.291 24.2578 17.8652 21.3047 17.6543 17.0156C19.0174 16.4346 20.2225 15.4031 21.2326 14.0129C26.073 13.7521 30 9.76787 30 4.86316V2.63672C30 2.15092 29.6069 1.75781 29.1211 1.75781ZM1.75781 4.86316V3.51562H5.44512C5.67322 6.42059 6.30316 9.49723 7.62715 12.1118C4.3084 11.3644 1.75781 8.40486 1.75781 4.86316ZM28.2422 4.86316C28.2422 8.40305 25.6939 11.3612 22.3776 12.1103C23.6911 9.49576 24.3246 6.44889 24.5549 3.51562H28.2422V4.86316Z" fill="#FED843"/>
<path d="M29.1211 1.75781H24.6302C24.6379 1.46092 24.668 1.18125 24.668 0.878906C24.668 0.38666 24.2813 0 23.7891 0H15V25.1543H21.0821C21.0469 25.0488 20.9766 24.9434 20.8887 24.8731C20.291 24.2578 17.8652 21.3047 17.6543 17.0156C19.0174 16.4346 20.2225 15.4031 21.2326 14.0129C26.073 13.7521 30 9.76787 30 4.86316V2.63672C30 2.15092 29.6069 1.75781 29.1211 1.75781ZM28.2422 4.86316C28.2422 8.40305 25.6939 11.3612 22.3776 12.1103C23.6912 9.49576 24.3247 6.44889 24.5549 3.51562H28.2422V4.86316Z" fill="#FABE2C"/>
<path d="M16.4018 11.1795L14.9993 10.4507L13.5968 11.1795C13.3032 11.3305 12.9445 11.3056 12.675 11.1108C12.4055 10.9151 12.2699 10.5838 12.3248 10.2559L12.5823 8.69462L11.458 7.58485C11.2132 7.34626 11.1384 6.99253 11.2382 6.68708C11.3412 6.3712 11.6142 6.13946 11.9438 6.08972L13.5059 5.85452L14.2131 4.44089C14.5118 3.84522 15.4868 3.84522 15.7855 4.44089L16.4927 5.85452L18.0549 6.08972C18.3844 6.13952 18.6574 6.37126 18.7604 6.68708C18.8634 7.00378 18.7793 7.35141 18.5407 7.58485L17.4163 8.69462L17.6738 10.2559C17.7288 10.5838 17.5931 10.9151 17.3236 11.1108C17.0559 11.3048 16.6978 11.3334 16.4018 11.1795Z" fill="#FABE2C"/>
<path d="M16.4025 11.1795C16.6985 11.3335 17.0566 11.3048 17.3243 11.1108C17.5938 10.9151 17.7294 10.5838 17.6745 10.2559L17.417 8.69465L18.5413 7.58488C18.7799 7.35145 18.8641 7.00381 18.7611 6.68711C18.6581 6.37123 18.3851 6.13949 18.0555 6.08975L16.4934 5.85455L15.7862 4.44092C15.6369 4.14309 15.3185 3.99414 15 3.99414V10.4508L16.4025 11.1795Z" fill="#FF9100"/>
<path d="M22.0312 30H7.96875C7.48295 30 7.08984 29.6069 7.08984 29.1211C7.08984 28.6353 7.48295 28.2422 7.96875 28.2422H22.0312C22.5171 28.2422 22.9102 28.6353 22.9102 29.1211C22.9102 29.6069 22.5171 30 22.0312 30Z" fill="#474F54"/>
<path d="M22.0312 28.2422H15V30H22.0312C22.5171 30 22.9102 29.6069 22.9102 29.1211C22.9102 28.6353 22.5171 28.2422 22.0312 28.2422Z" fill="#32393F"/>
</svg>
