<svg width="94" height="60" viewBox="0 0 94 60" fill="none" xmlns="http://www.w3.org/2000/svg">
<g clip-path="url(#clip0_4258_41171)">
<path d="M62.665 36.0765H65.6797L69.5409 32.6535L69.0835 32.4849L69.0228 32.0626C68.8956 31.9101 68.8194 31.7162 68.8189 31.5081L68.8166 28.6438L68.2185 28.2192H59.5627L59.1765 28.6309L59.1766 31.5027C59.1766 31.7522 59.0925 31.9293 58.975 32.0602L59.0837 32.6156L58.5996 32.7881L62.665 36.0765Z" fill="#FFCEBE"/>
<path d="M63.948 28.2192H59.5627L59.1765 28.6309L59.1766 31.5027C59.1766 31.7522 59.0925 31.9293 58.975 32.0602L59.0837 32.6157L58.5996 32.7882L62.6652 36.0764H63.9482V28.2192H63.948Z" fill="#F5B2A2"/>
<path d="M81.5521 37.0341C81.1906 36.8941 76.8643 35.2187 73.465 33.9022V33.9023L72.9864 33.9234L69.5404 32.6533L65.6792 36.0764H62.6644L58.5988 32.7881L55.5215 33.8844H54.5126L46.4473 37.0343C44.4324 37.8636 41.7344 40.4727 41.7344 44.3444V58.4294C41.7344 59.2967 42.4375 60 43.3049 60H60.2416L60.6524 59.6581H67.3326L67.758 60H84.6946C85.562 60 86.2652 59.2967 86.2652 58.4294C86.2652 57.1318 86.2652 45.8722 86.2652 44.3444C86.2649 41.01 84.1301 38.0953 81.5521 37.0341Z" fill="#F4F5F9"/>
<path d="M45.4925 58.5501C45.4925 57.2769 45.4925 43.8487 45.4925 42.4128C45.4925 39.6953 46.8218 37.6011 48.3111 36.3064L46.4473 37.0342C44.4324 37.8636 41.7344 40.4726 41.7344 44.3444V58.4294C41.7344 59.2967 42.4375 60 43.3049 60H46.4591C45.8916 59.7632 45.4925 59.2034 45.4925 58.5501Z" fill="#D7DEF9"/>
<path d="M79.9026 59.9999V43.4196C79.9026 42.9195 79.4972 42.5142 78.9972 42.5142C78.4971 42.5142 78.0918 42.9195 78.0918 43.4196V59.9999H79.9026Z" fill="#D7DEF9"/>
<path d="M49.9084 59.9999V43.4196C49.9084 42.9195 49.5031 42.5142 49.003 42.5142C48.503 42.5142 48.0977 42.9195 48.0977 43.4196V59.9999H49.9084Z" fill="#D7DEF9"/>
<path d="M66.7597 50.4166L65.6456 39.7126L65.38 39.4468H62.6212L62.3524 39.7126L61.2383 50.4166L63.999 56L66.7597 50.4166Z" fill="#DC4D41"/>
<path opacity="0.2" d="M64 56L65.6892 40.1308L65.6456 39.7126L65.38 39.4468H62.6212L62.3524 39.7126L61.2383 50.4166L64 56Z" fill="black"/>
<path d="M65.9332 35.2819L65.685 35.1357C64.5139 35.1357 63.4837 35.1357 62.3125 35.1357L62.0901 35.2417L60.8828 37.2437L60.9523 37.5239L62.3521 39.7127H65.6453L67.0451 37.5239V37.1834L65.9332 35.2819Z" fill="#DC4D41"/>
<path d="M74.2967 4.46531C71.9629 1.75371 67.9101 0 64.2555 0H63.7447C60.0901 0 56.0371 1.75371 53.7033 4.46543C52.8506 5.45637 52.4777 6.77297 52.6608 8.06754L53.6329 14.9366L54.014 15.2773H55.5822L58.5802 11.253H69.6869L72.7183 15.2773H74.0732L74.367 14.9366L75.3391 8.06754C75.5224 6.77297 75.1495 5.45625 74.2967 4.46531Z" fill="#33495D"/>
<path opacity="0.4" d="M57.6911 8.06754C57.5079 6.77309 57.8807 5.45637 58.7336 4.46543C60.593 2.30484 63.544 0.753516 66.5152 0.211758C65.7572 0.0735938 64.9981 0 64.2555 0H63.7447C60.0901 0 56.0371 1.75371 53.7033 4.46543C52.8506 5.45637 52.4777 6.77297 52.6608 8.06754L53.6329 14.9366L54.014 15.2773H55.5822L58.2118 11.7476L57.6911 8.06754Z" fill="#0C0C0C"/>
<path d="M73.3523 14.7876C73.1355 14.7876 72.9235 14.808 72.7173 14.8449L72.3066 15.1614V21.3939L72.7064 21.8779C72.916 21.9161 73.1316 21.9372 73.3523 21.9372C75.3266 21.9372 76.9271 20.3367 76.9271 18.3624C76.9271 16.3881 75.3267 14.7876 73.3523 14.7876Z" fill="#FFCEBE"/>
<path d="M54.6471 14.7876C52.6728 14.7876 51.0723 16.3881 51.0723 18.3624C51.0723 20.3367 52.6728 21.9372 54.6471 21.9372C54.8677 21.9372 55.0834 21.9161 55.293 21.8779L55.6575 21.7259V15.1768L55.2821 14.845C55.076 14.808 54.864 14.7876 54.6471 14.7876Z" fill="#FFCEBE"/>
<path d="M74.5992 15.0115C74.2109 14.8671 73.7909 14.7876 73.3523 14.7876C73.1355 14.7876 72.9235 14.808 72.7173 14.8449L72.3066 15.1614V21.3939L72.7064 21.8779C72.916 21.9161 73.1316 21.9372 73.3523 21.9372C73.7909 21.9372 74.2109 21.8579 74.5992 21.7133V15.0115Z" fill="#F5B2A2"/>
<path d="M53.3649 18.3625C53.3649 16.8853 54.2612 15.6174 55.5395 15.0726L55.2821 14.8451C55.0759 14.8082 54.864 14.7878 54.6471 14.7878C52.6728 14.7878 51.0723 16.3884 51.0723 18.3626C51.0723 20.3369 52.6728 21.9374 54.6471 21.9374C54.8677 21.9374 55.0834 21.9163 55.293 21.8781L55.6575 21.7262V21.6996C54.3168 21.1839 53.3649 19.8848 53.3649 18.3625Z" fill="#F5B2A2"/>
<path d="M71.8382 13.0079C71.1571 12.6713 70.6214 12.0852 70.3501 11.369C70.2392 11.0762 69.9848 10.8612 69.6825 10.7802C67.5459 10.2065 65.3443 9.96394 63.1522 10.0487C63.1491 10.0565 63.1448 10.0637 63.142 10.0716C62.8648 10.8459 62.3172 11.4796 61.6214 11.8435C61.08 12.1266 60.7227 12.6929 60.7227 13.3318V20.9702C60.7227 24.7862 62.9444 28.3405 66.5352 29.6888C70.0979 28.6248 72.7179 25.2777 72.7179 21.3854V14.3845C72.7179 13.7934 72.368 13.2697 71.8382 13.0079Z" fill="#FFDECF"/>
<path d="M60.8536 20.9504V13.4753C60.8536 12.85 61.2033 12.2959 61.7331 12.0188C62.4142 11.6627 62.95 11.0425 63.2213 10.2848C63.253 10.1959 63.2978 10.115 63.3509 10.041C61.6568 10.0912 59.9672 10.3368 58.3165 10.78C58.0142 10.8612 57.7598 11.0761 57.6489 11.3689C57.3776 12.085 56.8418 12.6712 56.1607 13.0077C55.6309 13.2695 55.2812 13.7932 55.2812 14.3843V21.4492C55.2812 25.9374 58.7952 30.037 64.112 30.043C65.0661 30.0441 65.984 29.883 66.8433 29.59C63.1523 28.3606 60.8536 24.7905 60.8536 20.9504Z" fill="#FFCEBE"/>
<path d="M67.2544 37.8311C67.5378 38.2507 68.1213 38.3343 68.5109 38.0111L73.4656 33.9023C71.3515 33.0836 69.5956 32.4035 69.3757 32.3184C69.2349 32.2639 69.1156 32.1739 69.0228 32.0625L65.9895 34.5778C65.6505 34.8589 65.5799 35.3515 65.8264 35.7164L67.2544 37.8311Z" fill="#D7DEF9"/>
<path d="M59.4883 38.0111C59.878 38.3343 60.4616 38.2507 60.7448 37.8311L62.1726 35.7164C62.4191 35.3515 62.3486 34.859 62.0095 34.5778L58.9733 32.0601C58.9217 32.1175 58.8643 32.1668 58.8037 32.2081L54.5117 33.8843L59.4883 38.0111Z" fill="#D7DEF9"/>
</g>
<g clip-path="url(#clip1_4258_41171)">
<path d="M40.8984 21.5279L41.8387 16.3827C41.8387 14.5191 41.8387 12.5089 41.8387 11.8441C41.8387 5.30273 36.5361 0 29.9944 0C23.4529 0 18.1505 5.30273 18.1505 11.8441V16.3822L19.0903 21.5279C19.0261 28.9792 13.375 30.3482 13.682 36.5555L14.1506 37.1113H45.4848L46.3069 36.5524C46.6118 30.3475 40.9627 28.9809 40.8984 21.5279Z" fill="#33495D"/>
<path opacity="0.4" d="M24.3312 21.5279L23.3913 16.3822C23.3913 14.2464 23.3913 11.8834 23.3913 11.8441C23.3913 6.20332 27.3345 1.48406 32.6148 0.291445C31.7719 0.101016 30.895 0 29.9944 0C23.4529 0 18.1505 5.30273 18.1505 11.8441V16.3822L19.0903 21.5279C19.0261 28.9792 13.375 30.3482 13.682 36.5555L14.1506 37.1113H19.3915L18.9229 36.5555C18.6159 30.348 24.267 28.9791 24.3312 21.5279Z" fill="#0C0C0C"/>
<path d="M38.5897 15.3595L38.252 15.8132V21.608L38.5851 21.8349C40.8303 22.2651 42.6999 20.6518 42.6999 18.5975C42.6999 16.5446 40.8328 14.9327 38.5897 15.3595Z" fill="#FFCEBE"/>
<path d="M40.8724 15.6535C40.2163 15.3258 39.4293 15.1997 38.5897 15.3595L38.252 15.8133V21.608L38.5851 21.8349C39.4265 21.9962 40.2152 21.8703 40.8725 21.542V15.6535H40.8724Z" fill="#F5B2A2"/>
<path d="M17.291 18.5975C17.291 20.6519 19.1606 22.2652 21.4059 21.8349L21.784 21.4672V15.7121L21.4012 15.3595C19.1583 14.9328 17.291 16.5447 17.291 18.5975Z" fill="#FFCEBE"/>
<path d="M19.9114 18.5975C19.9114 17.3179 20.6372 16.2098 21.727 15.6597L21.4012 15.3595C19.1583 14.9327 17.291 16.5447 17.291 18.5975C17.291 20.6519 19.1606 22.2652 21.4059 21.8349L21.7184 21.5309C20.6333 20.9795 19.9114 19.8738 19.9114 18.5975Z" fill="#F5B2A2"/>
<path d="M47.552 37.034C47.2345 36.9111 43.8593 35.6039 40.7395 34.3957L39.7628 34.7618L37.5878 35.4412L29.9995 45.3604L22.8847 35.892L20.9982 35.0786L19.258 34.3936C16.0616 35.6328 12.522 37.0051 12.4473 37.034C10.4324 37.8631 7.73438 40.4724 7.73438 44.3441V58.4291C7.73438 59.2965 8.4375 59.9996 9.30492 59.9996H50.6945C51.5619 59.9996 52.265 59.2964 52.265 58.4291C52.265 57.1314 52.265 45.8718 52.265 44.3441C52.2648 41.0097 50.13 38.095 47.552 37.034V37.034Z" fill="#F19B15"/>
<path d="M29.9996 45.3606L37.5877 35.4414L35.721 36.0245H23.1914L22.8848 35.8923L29.9996 45.3606Z" fill="white"/>
<path opacity="0.2" d="M15.9084 59.9999V43.4195C15.9084 42.9195 15.5031 42.5142 15.003 42.5142C14.503 42.5142 14.0977 42.9195 14.0977 43.4195V59.9999H15.9084Z" fill="#0C0C0C"/>
<path opacity="0.2" d="M45.9026 59.9999V43.4195C45.9026 42.9195 45.4972 42.5142 44.9972 42.5142C44.4971 42.5142 44.0918 42.9195 44.0918 43.4195V59.9999H45.9026Z" fill="#0C0C0C"/>
<path d="M39.7627 34.0177H39.4893L34.4188 38.1173L33.6634 38.5159L30.3991 43.0709C30.2027 43.3449 29.7952 43.3449 29.5988 43.0709L26.3351 38.5162L25.3442 37.8256L20.6963 34.0156H20.234C19.915 34.1393 19.5885 34.2658 19.2578 34.394L27.0646 45.2892C28.5045 47.2988 31.4929 47.2988 32.9329 45.2893L40.7393 34.396C40.4097 34.2682 40.083 34.1417 39.7627 34.0177Z" fill="#FBE1B9"/>
<path d="M35.235 32.2482C35.2351 32.2483 35.2352 32.2483 35.2354 32.2484C34.9808 32.0929 34.8185 31.8152 34.8177 31.5084L34.8154 28.6624L34.4134 28.3489H25.5463L25.1753 28.6857V31.5031C25.1753 31.8918 24.973 32.1079 24.7541 32.2404C24.6622 32.1645 24.9213 32.7704 24.9213 32.7704L28.0602 35.4094L27.9696 36.0449L28.0232 36.3006L31.975 36.3002L32.3459 35.7431L32.2855 35.1394L35.2352 32.6948L35.235 32.2482Z" fill="#FFCEBE"/>
<path d="M29.9991 28.3486H25.5463L25.1753 28.6854V31.5029C25.1753 31.8916 24.973 32.1077 24.7541 32.2402C24.6622 32.1643 24.9213 32.7701 24.9213 32.7701L28.0602 35.4092L27.9696 36.0447L28.0232 36.3004H29.9991V28.3486Z" fill="#F5B2A2"/>
<path d="M34.952 15.3599C32.2145 15.3599 29.9953 13.1407 29.9953 10.4033C29.9953 12.718 28.4086 14.6617 26.2637 15.2071V21.6298C26.2637 25.2689 28.5582 28.6527 32.2467 29.8403C35.8836 28.8716 38.5851 25.4981 38.5851 21.5692V15.3598H34.952V15.3599Z" fill="#FFDECF"/>
<path d="M26.4037 21.6523V15.1675C25.9698 15.2917 25.512 15.3596 25.038 15.3596H21.4043V21.6522C21.4043 26.0666 24.8551 30.1022 30.0825 30.1198C30.9291 30.1226 31.7471 29.9958 32.5203 29.7611C28.7577 28.6813 26.4037 25.2972 26.4037 21.6523Z" fill="#FFCEBE"/>
<path d="M33.2543 38.1933C33.5377 38.613 34.1211 38.6965 34.5108 38.3733L39.7631 34.0178C37.518 33.1484 35.6055 32.4077 35.3755 32.3186C35.3262 32.2995 35.2801 32.2751 35.2359 32.248L31.9895 34.9402C31.6505 35.2213 31.5799 35.7138 31.8264 36.0787L33.2543 38.1933Z" fill="#DC4D41"/>
<path d="M20.2344 34.0155L25.4894 38.3732C25.879 38.6965 26.4626 38.6129 26.7459 38.1932L28.1737 36.0786C28.4201 35.7137 28.3497 35.2212 28.0106 34.9401L24.7548 32.2402C24.5982 32.335 24.4332 32.3877 24.3274 32.4286C24.252 32.458 22.4299 33.1644 20.2344 34.0155Z" fill="#DC4D41"/>
<path opacity="0.2" d="M11.4611 43.7713C11.4611 40.4905 13.2913 37.7839 14.7655 36.1357C13.4278 36.6544 12.4854 37.0197 12.4473 37.0345C10.4324 37.8636 7.73438 40.4729 7.73438 44.3445V58.4295C7.73438 59.2969 8.4375 60 9.30492 60H11.4612C11.4611 55.3218 11.4611 47.4882 11.4611 43.7713Z" fill="#0C0C0C"/>
</g>
<defs>
<clipPath id="clip0_4258_41171">
<rect width="60" height="60" fill="white" transform="translate(34)"/>
</clipPath>
<clipPath id="clip1_4258_41171">
<rect width="60" height="60" fill="white"/>
</clipPath>
</defs>
</svg>
