<svg width="41" height="41" viewBox="0 0 41 41" fill="none" xmlns="http://www.w3.org/2000/svg">
<g clip-path="url(#clip0_3262_31635)">
<path d="M9.04102 20.9845L6.4043 25.5514L23.1497 35.2194L25.7864 30.6525L9.04102 20.9845Z" fill="#FF9F00"/>
<path d="M17.4141 25.8185L25.7868 30.6525L23.1501 35.2194L14.7773 30.3854L17.4141 25.8185Z" fill="#FF7816"/>
<path d="M29.6945 24.0591L27.0728 25.7523L12.6414 17.4203L12.7969 14.3032C16.0586 12.8373 20.08 13.1496 23.566 15.1623C27.0521 17.175 29.3332 20.5014 29.6945 24.0591Z" fill="#FF4B00"/>
<path d="M29.6949 24.0591L27.0732 25.7523L19.8575 21.5863L23.5664 15.1623C27.0525 17.175 29.3336 20.5014 29.6949 24.0591Z" fill="#CC1E0D"/>
<path d="M33.3452 24.1364L24.9086 32.1748L8.16316 22.5068L10.9062 11.1813L13.2462 11.5581C13.156 13.7184 14.2528 15.6506 15.5109 16.6003L16.3026 17.0574C18.2114 17.7942 21.0674 15.8707 23.077 13.6208L25.1474 14.8161C24.2036 17.6813 23.9659 21.1165 25.5582 22.4011L26.3499 22.8582C27.8014 23.4729 30.0231 23.4566 31.8489 22.2984L33.3452 24.1364Z" fill="#FDBF00"/>
<path d="M33.3445 24.1364L24.9078 32.1748L16.5351 27.3408L24.1113 14.2184L25.1464 14.816C24.2028 17.6813 23.9649 21.1164 25.5574 22.4011L26.3491 22.8582C27.8006 23.4729 30.0224 23.4566 31.8482 22.2984L33.3445 24.1364Z" fill="#FF9F00"/>
<path d="M11.1526 12.0546C9.89349 11.3276 9.40979 9.68253 10.1367 8.42345C10.8636 7.16437 12.5302 6.76071 13.7893 7.48764C15.0484 8.21457 15.4813 9.83039 14.7544 11.0895C14.0275 12.3485 12.4116 12.7815 11.1526 12.0546Z" fill="#FF9F00"/>
<path d="M32.4651 24.3593C31.206 23.6323 30.7731 22.0165 31.5 20.7574C32.2269 19.4984 33.8427 19.0654 35.1018 19.7923C36.3609 20.5193 36.8446 22.1644 36.1177 23.4234C35.3907 24.6825 33.7242 25.0862 32.4651 24.3593Z" fill="#FF7816"/>
<path d="M26.2034 10.5954C24.9398 9.86581 23.3311 10.2968 22.6016 11.5605C21.8721 12.8239 22.303 14.4327 23.5667 15.1623C24.8303 15.8919 26.439 15.4606 27.1685 14.1972C27.8981 12.9336 27.467 11.3249 26.2034 10.5954Z" fill="#FF9F00"/>
<path d="M21.1149 19.4095L17.0088 20.5097L18.109 24.6159L22.2151 23.5157L21.1149 19.4095Z" fill="#FF4B00"/>
<path d="M23.9201 25.0952L24.375 26.7929L22.6772 27.2478L22.2223 25.5501L23.9201 25.0952Z" fill="#CC1E0D"/>
<path d="M14.7873 19.8218L15.2422 21.5195L13.5444 21.9744L13.0895 20.2767L14.7873 19.8218Z" fill="#FF4B00"/>
<path d="M23.5664 15.1623L26.2031 10.5954C27.4668 11.3249 27.8978 12.9336 27.1682 14.1972C26.4388 15.4606 24.83 15.8919 23.5664 15.1623Z" fill="#FF7816"/>
<path d="M22.2155 23.5157L18.1093 24.6159L21.1152 19.4095L22.2155 23.5157Z" fill="#CC1E0D"/>
</g>
<defs>
<clipPath id="clip0_3262_31635">
<rect width="30" height="30" fill="white" transform="translate(15) rotate(30)"/>
</clipPath>
</defs>
</svg>
