<svg width="24" height="24" viewBox="0 0 24 24" fill="none" xmlns="http://www.w3.org/2000/svg">
<path d="M11.9974 8.79199C10.2287 8.79199 8.78906 10.2312 8.78906 12.0003C8.78906 13.7695 10.2287 15.2086 11.9974 15.2086C13.7661 15.2086 15.2057 13.7695 15.2057 12.0003C15.2057 10.2312 13.7661 8.79199 11.9974 8.79199ZM11.9974 13.3753C11.2393 13.3753 10.6224 12.7584 10.6224 12.0003C10.6224 11.2422 11.2393 10.6253 11.9974 10.6253C12.7555 10.6253 13.3724 11.2422 13.3724 12.0003C13.3724 12.7584 12.7555 13.3753 11.9974 13.3753Z" fill="#33495D"/>
<path d="M22.0833 11.0833H20.1959C19.7715 7.26587 16.7341 4.2285 12.9167 3.80408V1.91667C12.9167 1.41067 12.506 1 12 1C11.494 1 11.0833 1.41067 11.0833 1.91667V3.80408C7.26587 4.2285 4.2285 7.26587 3.80408 11.0833H1.91667C1.41067 11.0833 1 11.494 1 12C1 12.506 1.41067 12.9167 1.91667 12.9167H3.80408C4.2285 16.7341 7.26587 19.7715 11.0833 20.1959V22.0833C11.0833 22.5893 11.494 23 12 23C12.506 23 12.9167 22.5893 12.9167 22.0833V20.1959C16.7341 19.7715 19.7715 16.7341 20.1959 12.9167H22.0833C22.5893 12.9167 23 12.506 23 12C23 11.494 22.5893 11.0833 22.0833 11.0833ZM12 18.4167C8.46167 18.4167 5.58333 15.5383 5.58333 12C5.58333 8.46167 8.46167 5.58333 12 5.58333C15.5383 5.58333 18.4167 8.46167 18.4167 12C18.4167 15.5383 15.5383 18.4167 12 18.4167Z" fill="#33495D"/>
</svg>
