<svg width="18" height="18" viewBox="0 0 18 18" fill="none" xmlns="http://www.w3.org/2000/svg">
<path fill-rule="evenodd" clip-rule="evenodd" d="M6.12596 1.83397C6.26506 1.62533 6.49924 1.5 6.75 1.5H11.25C11.5008 1.5 11.7349 1.62533 11.874 1.83397L13.1514 3.75H15.75C16.3467 3.75 16.919 3.98705 17.341 4.40901C17.7629 4.83097 18 5.40326 18 6V14.25C18 14.8467 17.7629 15.419 17.341 15.841C16.919 16.2629 16.3467 16.5 15.75 16.5H2.25C1.65326 16.5 1.08097 16.2629 0.65901 15.841C0.237053 15.419 0 14.8467 0 14.25V6C0 5.40326 0.237053 4.83097 0.65901 4.40901C1.08097 3.98705 1.65326 3.75 2.25 3.75H4.84861L6.12596 1.83397ZM7.15139 3L5.87404 4.91602C5.73494 5.12467 5.50076 5.25 5.25 5.25H2.25C2.05109 5.25 1.86032 5.32902 1.71967 5.46967C1.57902 5.61032 1.5 5.80109 1.5 6V14.25C1.5 14.4489 1.57902 14.6397 1.71967 14.7803C1.86032 14.921 2.05109 15 2.25 15H15.75C15.9489 15 16.1397 14.921 16.2803 14.7803C16.421 14.6397 16.5 14.4489 16.5 14.25V6C16.5 5.80109 16.421 5.61032 16.2803 5.46967C16.1397 5.32902 15.9489 5.25 15.75 5.25H12.75C12.4992 5.25 12.2651 5.12467 12.126 4.91602L10.8486 3H7.15139Z" fill="#F19B15"/>
<path fill-rule="evenodd" clip-rule="evenodd" d="M9 7.5C7.75736 7.5 6.75 8.50736 6.75 9.75C6.75 10.9926 7.75736 12 9 12C10.2426 12 11.25 10.9926 11.25 9.75C11.25 8.50736 10.2426 7.5 9 7.5ZM5.25 9.75C5.25 7.67893 6.92893 6 9 6C11.0711 6 12.75 7.67893 12.75 9.75C12.75 11.8211 11.0711 13.5 9 13.5C6.92893 13.5 5.25 11.8211 5.25 9.75Z" fill="#F19B15"/>
</svg>
