<svg width="54" height="54" viewBox="0 0 54 54" fill="none" xmlns="http://www.w3.org/2000/svg">
<path d="M27.6319 39.5888C34.9287 39.5888 40.8569 33.9922 41.1091 27C40.8569 20.0078 34.9287 14.4113 27.6319 14.4113C20.336 14.4113 14.4061 20.0078 14.1572 27C14.4053 33.9922 20.3352 39.5888 27.6319 39.5888Z" fill="#ADB6BE"/>
<path d="M27.6327 8.4375C17.3811 8.4375 9.06934 16.7484 9.06934 27C9.06934 37.2507 17.382 45.5625 27.6327 45.5625C37.8834 45.5625 46.1952 37.2507 46.1952 27C46.1952 16.7484 37.8834 8.4375 27.6327 8.4375ZM27.6318 40.5C20.1756 40.5 14.131 34.6604 14.131 27.4548C14.131 27.3012 14.1521 27.1519 14.1571 27C14.1521 26.8481 14.131 26.6979 14.131 26.5452C14.131 19.3396 20.1765 13.5 27.6318 13.5C35.088 13.5 41.1318 19.3396 41.1318 26.5452C41.1318 26.6979 41.1141 26.8481 41.1099 27C41.115 27.1519 41.1318 27.3012 41.1318 27.4548C41.131 34.6604 35.088 40.5 27.6318 40.5Z" fill="#ADB6BE"/>
<path d="M2.93745 6.26143C3.13995 5.46746 3.54074 6.25214 3.54074 6.25214C3.54074 6.25214 3.6808 14.4703 4.59205 14.5597C5.5033 14.6491 4.8013 6.10364 5.87961 5.93996C6.88199 5.78049 6.30992 14.6955 7.22286 14.6053C8.13242 14.5091 8.28599 6.29433 8.28599 6.29433C8.28599 6.29433 8.69099 5.51049 8.89095 6.29855C11.3615 16.0101 9.36261 19.98 9.36261 19.98C9.36261 19.98 9.02511 20.8144 8.22355 20.8186C8.14846 20.8144 8.20499 43.8834 8.19992 46.985C8.20161 48.4928 3.5593 48.4464 3.56183 46.9454C3.5652 43.8437 3.65549 20.7773 3.58292 20.779C2.77883 20.779 2.44217 19.9454 2.44217 19.9454C2.44217 19.9454 0.450923 15.978 2.93745 6.26143ZM46.9297 5.90621C47.9743 5.90368 52.3078 9.02808 52.3129 20.6398C52.3179 24.3531 50.2921 24.3523 50.2955 26.6751C50.2988 28.9937 50.3115 47.4364 50.3115 47.4364C50.3115 47.4364 48.0891 48.9611 46.437 47.3655L46.4066 6.23611C46.4083 6.23696 46.4024 5.90536 46.9297 5.90621Z" fill="#ADB6BE"/>
</svg>
