<svg width="24" height="24" viewBox="0 0 24 24" fill="none" xmlns="http://www.w3.org/2000/svg">
<path fill-rule="evenodd" clip-rule="evenodd" d="M8.8 7.40005C9.03638 7.40005 9.27044 7.35349 9.48883 7.26303C9.70722 7.17257 9.90565 7.03999 10.0728 6.87284C10.2399 6.7057 10.3725 6.50726 10.463 6.28888C10.5534 6.07049 10.6 5.83643 10.6 5.60005C10.6 5.36367 10.5534 5.1296 10.463 4.91122C10.3725 4.69283 10.2399 4.4944 10.0728 4.32726C9.90565 4.16011 9.70722 4.02752 9.48883 3.93707C9.27044 3.84661 9.03638 3.80005 8.8 3.80005C8.32261 3.80005 7.86477 3.98969 7.52721 4.32726C7.18964 4.66482 7 5.12266 7 5.60005C7 6.07744 7.18964 6.53528 7.52721 6.87284C7.86477 7.21041 8.32261 7.40005 8.8 7.40005ZM15.2 7.40005C15.4364 7.40005 15.6704 7.35349 15.8888 7.26303C16.1072 7.17257 16.3056 7.03999 16.4728 6.87284C16.6399 6.7057 16.7725 6.50726 16.863 6.28888C16.9534 6.07049 17 5.83643 17 5.60005C17 5.36367 16.9534 5.1296 16.863 4.91122C16.7725 4.69283 16.6399 4.4944 16.4728 4.32726C16.3056 4.16011 16.1072 4.02752 15.8888 3.93707C15.6704 3.84661 15.4364 3.80005 15.2 3.80005C14.7226 3.80005 14.2648 3.98969 13.9272 4.32726C13.5896 4.66482 13.4 5.12266 13.4 5.60005C13.4 6.07744 13.5896 6.53528 13.9272 6.87284C14.2648 7.21041 14.7226 7.40005 15.2 7.40005ZM17 12C17 12.4774 16.8104 12.9353 16.4728 13.2728C16.1352 13.6104 15.6774 13.8 15.2 13.8C14.7226 13.8 14.2648 13.6104 13.9272 13.2728C13.5896 12.9353 13.4 12.4774 13.4 12C13.4 11.5227 13.5896 11.0648 13.9272 10.7273C14.2648 10.3897 14.7226 10.2 15.2 10.2C15.6774 10.2 16.1352 10.3897 16.4728 10.7273C16.8104 11.0648 17 11.5227 17 12ZM8.8 13.8C9.27739 13.8 9.73523 13.6104 10.0728 13.2728C10.4104 12.9353 10.6 12.4774 10.6 12C10.6 11.5227 10.4104 11.0648 10.0728 10.7273C9.73523 10.3897 9.27739 10.2 8.8 10.2C8.32261 10.2 7.86477 10.3897 7.52721 10.7273C7.18964 11.0648 7 11.5227 7 12C7 12.4774 7.18964 12.9353 7.52721 13.2728C7.86477 13.6104 8.32261 13.8 8.8 13.8ZM17 18.4C17 18.8774 16.8104 19.3353 16.4728 19.6728C16.1352 20.0104 15.6774 20.2 15.2 20.2C14.7226 20.2 14.2648 20.0104 13.9272 19.6728C13.5896 19.3353 13.4 18.8774 13.4 18.4C13.4 17.9227 13.5896 17.4648 13.9272 17.1273C14.2648 16.7897 14.7226 16.6 15.2 16.6C15.6774 16.6 16.1352 16.7897 16.4728 17.1273C16.8104 17.4648 17 17.9227 17 18.4ZM8.8 20.2C9.27739 20.2 9.73523 20.0104 10.0728 19.6728C10.4104 19.3353 10.6 18.8774 10.6 18.4C10.6 17.9227 10.4104 17.4648 10.0728 17.1273C9.73523 16.7897 9.27739 16.6 8.8 16.6C8.32261 16.6 7.86477 16.7897 7.52721 17.1273C7.18964 17.4648 7 17.9227 7 18.4C7 18.8774 7.18964 19.3353 7.52721 19.6728C7.86477 20.0104 8.32261 20.2 8.8 20.2Z" fill="#33495D"/>
</svg>
