<svg width="24" height="24" viewBox="0 0 24 24" fill="none" xmlns="http://www.w3.org/2000/svg">
<path d="M4.71019 3.28994C4.61695 3.1967 4.50626 3.12274 4.38443 3.07228C4.26261 3.02182 4.13204 2.99585 4.00019 2.99585C3.86833 2.99585 3.73776 3.02182 3.61594 3.07228C3.49411 3.12274 3.38342 3.1967 3.29019 3.28994C3.10188 3.47825 2.99609 3.73364 2.99609 3.99994C2.99609 4.26624 3.10188 4.52164 3.29019 4.70994L8.92019 10.3399C8.56399 11.0026 8.43077 11.7623 8.54027 12.5066C8.64978 13.2509 8.99618 13.9401 9.52812 14.472C10.0601 15.004 10.7493 15.3504 11.4935 15.4599C12.2378 15.5694 12.9976 15.4361 13.6602 15.0799L19.2902 20.7099C19.3832 20.8037 19.4938 20.8781 19.6156 20.9288C19.7375 20.9796 19.8682 21.0057 20.0002 21.0057C20.1322 21.0057 20.2629 20.9796 20.3848 20.9288C20.5066 20.8781 20.6172 20.8037 20.7102 20.7099C20.8039 20.617 20.8783 20.5064 20.9291 20.3845C20.9798 20.2627 21.006 20.132 21.006 19.9999C21.006 19.8679 20.9798 19.7372 20.9291 19.6154C20.8783 19.4935 20.8039 19.3829 20.7102 19.2899L4.71019 3.28994ZM12.0002 13.4999C11.6024 13.4999 11.2208 13.3419 10.9395 13.0606C10.6582 12.7793 10.5002 12.3978 10.5002 11.9999V11.9299L12.0602 13.4899L12.0002 13.4999Z" fill="#33495D"/>
<path d="M12.2201 16.9999C7.92007 17.0999 5.10007 13.4099 4.22007 11.9999C4.84654 11.0006 5.59943 10.0863 6.46007 9.27987L5.00007 7.86987C3.87139 8.93334 2.90448 10.1563 2.13007 11.4999C2.0423 11.6519 1.99609 11.8243 1.99609 11.9999C1.99609 12.1754 2.0423 12.3479 2.13007 12.4999C2.76007 13.5899 6.13007 18.9999 12.0201 18.9999H12.2701C13.3776 18.967 14.4708 18.7403 15.5001 18.3299L13.9201 16.7499C13.3644 16.896 12.7943 16.9799 12.2201 16.9999Z" fill="#33495D"/>
<path d="M21.87 11.5001C21.23 10.3901 17.7 4.82012 11.73 5.00012C10.6225 5.03297 9.52924 5.25974 8.5 5.67012L10.08 7.25012C10.6356 7.10395 11.2058 7.0201 11.78 7.00012C16.07 6.89012 18.89 10.5901 19.78 12.0001C19.1381 13.0024 18.3682 13.9168 17.49 14.7201L19 16.1301C20.1428 15.0694 21.1234 13.8463 21.91 12.5001C21.9918 12.3446 22.0311 12.1703 22.0241 11.9948C22.0171 11.8192 21.9639 11.6486 21.87 11.5001Z" fill="#33495D"/>
</svg>
