<svg width="18" height="22" viewBox="0 0 18 22" fill="none" xmlns="http://www.w3.org/2000/svg">
<path d="M1.91976 21.5566C2.27781 21.7582 2.68389 21.8587 3.09462 21.8473C3.50535 21.836 3.90528 21.7133 4.25169 21.4923L8.75949 18.6738C8.83244 18.6282 8.91674 18.6041 9.00278 18.6041C9.08881 18.6041 9.17311 18.6282 9.24607 18.6738L13.7539 21.4923C14.1012 21.7083 14.5 21.8275 14.9088 21.8377C15.3177 21.8478 15.7219 21.7485 16.0795 21.55C16.4371 21.3516 16.7352 21.0611 16.9429 20.7088C17.1507 20.3565 17.2604 19.955 17.261 19.546V2.75425C17.261 2.02378 16.9708 1.32322 16.4542 0.806702C15.9377 0.290179 15.2372 0 14.5067 0H3.48968C2.75921 0 2.05865 0.290179 1.54213 0.806702C1.02561 1.32322 0.735426 2.02378 0.735426 2.75425V19.546C0.73209 19.957 0.840522 20.3612 1.04913 20.7153C1.25773 21.0695 1.55867 21.3603 1.91976 21.5566Z" fill="white"/>
<path d="M5.78527 9.63983H8.08048V11.935C8.08048 12.1785 8.17721 12.412 8.34938 12.5842C8.52156 12.7564 8.75507 12.8531 8.99857 12.8531C9.24206 12.8531 9.47558 12.7564 9.64775 12.5842C9.81992 12.412 9.91665 12.1785 9.91665 11.935V9.63983H12.2119C12.4554 9.63983 12.6889 9.5431 12.861 9.37092C13.0332 9.19875 13.1299 8.96523 13.1299 8.72174C13.1299 8.47825 13.0332 8.24473 12.861 8.07256C12.6889 7.90038 12.4554 7.80366 12.2119 7.80366H9.91665V5.50845C9.91665 5.26496 9.81992 5.03144 9.64775 4.85926C9.47558 4.68709 9.24206 4.59036 8.99857 4.59036C8.75507 4.59036 8.52156 4.68709 8.34938 4.85926C8.17721 5.03144 8.08048 5.26496 8.08048 5.50845V7.80366H5.78527C5.54178 7.80366 5.30826 7.90038 5.13609 8.07256C4.96391 8.24473 4.86719 8.47825 4.86719 8.72174C4.86719 8.96523 4.96391 9.19875 5.13609 9.37092C5.30826 9.5431 5.54178 9.63983 5.78527 9.63983Z" fill="#33495D"/>
</svg>
