<svg width="14" height="14" viewBox="0 0 14 14" fill="none" xmlns="http://www.w3.org/2000/svg">
<g id="Frame">
<path id="Vector" d="M6.99935 1.16663C5.84563 1.16663 4.71781 1.50874 3.75853 2.14972C2.79924 2.79069 2.05157 3.70174 1.61005 4.76764C1.16854 5.83354 1.05302 7.00643 1.2781 8.13798C1.50318 9.26954 2.05876 10.3089 2.87456 11.1247C3.69037 11.9406 4.72977 12.4961 5.86133 12.7212C6.99288 12.9463 8.16577 12.8308 9.23168 12.3893C10.2976 11.9477 11.2086 11.2001 11.8496 10.2408C12.4906 9.2815 12.8327 8.15368 12.8327 6.99996C12.8327 6.23391 12.6818 5.47537 12.3887 4.76764C12.0955 4.05991 11.6658 3.41684 11.1241 2.87517C10.5825 2.33349 9.93941 1.90381 9.23168 1.61066C8.52394 1.31751 7.7654 1.16663 6.99935 1.16663ZM9.37702 9.22466C9.01607 9.53996 8.58368 9.76248 8.11732 9.87297C7.65096 9.98345 7.16469 9.97856 6.70065 9.85871C6.2366 9.73886 5.80878 9.50768 5.45425 9.18518C5.09971 8.86269 4.82915 8.45861 4.66602 8.00796H4.09954C3.9964 8.00796 3.89748 7.96698 3.82455 7.89405C3.75162 7.82112 3.71065 7.72221 3.71065 7.61907C3.71065 7.51593 3.75162 7.41701 3.82455 7.34408C3.89748 7.27115 3.9964 7.23018 4.09954 7.23018H4.49698C4.49128 7.15551 4.48454 7.07773 4.48454 6.99996C4.48454 6.92218 4.49024 6.8444 4.49621 6.7687H4.09954C3.9964 6.7687 3.89748 6.72773 3.82455 6.6548C3.75162 6.58186 3.71065 6.48295 3.71065 6.37981C3.71065 6.27667 3.75162 6.17775 3.82455 6.10482C3.89748 6.03189 3.9964 5.99092 4.09954 5.99092H4.66602C4.87314 5.42252 5.24983 4.93144 5.74513 4.5841C6.24044 4.23676 6.83047 4.0499 7.43543 4.04881C8.09676 4.04644 8.73932 4.26855 9.25802 4.67881C9.29968 4.70981 9.33471 4.74884 9.36105 4.7936C9.38738 4.83836 9.40448 4.88794 9.41134 4.93942C9.4182 4.99089 9.41468 5.04322 9.40099 5.09331C9.3873 5.14341 9.36372 5.19025 9.33163 5.23108C9.29955 5.27192 9.25961 5.30591 9.21417 5.33105C9.16873 5.3562 9.11872 5.37199 9.06708 5.37749C9.01545 5.383 8.96323 5.37811 8.91351 5.3631C8.8638 5.3481 8.81759 5.32329 8.77761 5.29014C8.39556 4.98821 7.92239 4.82479 7.43543 4.82659C7.0392 4.82702 6.65063 4.93571 6.31168 5.14092C5.97273 5.34612 5.6963 5.64004 5.51224 5.99092H7.13028C7.23342 5.99092 7.33234 6.03189 7.40527 6.10482C7.4782 6.17775 7.51917 6.27667 7.51917 6.37981C7.51917 6.48295 7.4782 6.58186 7.40527 6.6548C7.33234 6.72773 7.23342 6.7687 7.13028 6.7687H5.2758C5.26724 6.84549 5.26274 6.92269 5.26232 6.99996C5.26244 7.07651 5.26651 7.15301 5.2745 7.22914H7.13028C7.23342 7.22914 7.33234 7.27011 7.40527 7.34305C7.4782 7.41598 7.51917 7.51489 7.51917 7.61803C7.51917 7.72117 7.4782 7.82009 7.40527 7.89302C7.33234 7.96595 7.23342 8.00692 7.13028 8.00692H5.5125C5.66442 8.29822 5.88045 8.55126 6.14432 8.74698C6.4082 8.94269 6.71305 9.07598 7.0359 9.13681C7.35876 9.19763 7.69121 9.18441 8.00822 9.09814C8.32522 9.01186 8.61852 8.85479 8.86602 8.63873C8.90449 8.60515 8.9492 8.57947 8.9976 8.56316C9.046 8.54685 9.09713 8.54024 9.14809 8.54369C9.19904 8.54715 9.24882 8.5606 9.29457 8.58329C9.34032 8.60599 9.38116 8.63747 9.41474 8.67594C9.44833 8.71441 9.47401 8.75912 9.49032 8.80752C9.50663 8.85592 9.51324 8.90705 9.50979 8.958C9.50633 9.00896 9.49288 9.05873 9.47018 9.10448C9.44749 9.15024 9.41601 9.19107 9.37754 9.22466H9.37702Z" fill="#F19B15"/>
</g>
</svg>
