<svg width="24" height="24" viewBox="0 0 24 24" fill="none" xmlns="http://www.w3.org/2000/svg">
<g id="Frame">
<g id="Group">
<g id="Line">
<path id="Vector" d="M18 1H6C5.34339 1 4.69321 1.12933 4.08658 1.3806C3.47996 1.63188 2.92876 2.00017 2.46447 2.46447C1.52678 3.40215 1 4.67392 1 6V14C0.999765 15.1527 1.39778 16.27 2.12669 17.1629C2.85561 18.0558 3.87064 18.6695 5 18.9V21C4.99918 21.3954 5.11559 21.7822 5.33451 22.1115C5.55344 22.4408 5.86506 22.6978 6.23 22.85C6.47476 22.9486 6.73612 22.9995 7 23C7.52958 22.9978 8.03665 22.7856 8.41 22.41L11.83 19H18C18.6566 19 19.3068 18.8707 19.9134 18.6194C20.5201 18.3681 21.0713 17.9998 21.5355 17.5355C21.9998 17.0713 22.3681 16.5201 22.6194 15.9134C22.8707 15.3068 23 14.6566 23 14V6C23 5.34339 22.8707 4.69321 22.6194 4.08658C22.3681 3.47996 21.9998 2.92876 21.5355 2.46447C21.0713 2.00017 20.5201 1.63188 19.9134 1.3806C19.3068 1.12933 18.6566 1 18 1ZM21 14C21 14.7957 20.6839 15.5587 20.1213 16.1213C19.5587 16.6839 18.7957 17 18 17H11.41C11.1477 17.0011 10.8963 17.1053 10.71 17.29L7 21V18C7 17.7348 6.89465 17.4804 6.70711 17.2929C6.51957 17.1054 6.26522 17 6 17C5.20435 17 4.44129 16.6839 3.87868 16.1213C3.31607 15.5587 3 14.7957 3 14V6C3 5.20435 3.31607 4.44129 3.87868 3.87868C4.44129 3.31607 5.20435 3 6 3H18C18.7957 3 19.5587 3.31607 20.1213 3.87868C20.6839 4.44129 21 5.20435 21 6V14ZM15.76 7.77L14.06 7.52L13.3 6C13.1802 5.75752 12.995 5.55338 12.7653 5.41064C12.5355 5.26791 12.2705 5.19226 12 5.19226C11.7295 5.19226 11.4645 5.26791 11.2348 5.41064C11.005 5.55338 10.8198 5.75752 10.7 6L9.94 7.52L8.24 7.77C7.96993 7.80778 7.71629 7.92199 7.50899 8.09917C7.30169 8.27635 7.14937 8.50911 7.07 8.77001C6.98605 9.0281 6.97622 9.30458 7.04163 9.56799C7.10704 9.8314 7.24506 10.0712 7.44 10.26L8.67 11.46L8.38 13.15C8.34002 13.4181 8.37707 13.6921 8.48684 13.94C8.59662 14.1879 8.77458 14.3994 9 14.55C9.25162 14.7284 9.55157 14.8261 9.86 14.83C10.0938 14.8282 10.3236 14.7699 10.53 14.66L12.05 13.86L13.57 14.66C13.8095 14.785 14.0791 14.8405 14.3485 14.8205C14.6179 14.8004 14.8763 14.7055 15.0946 14.5464C15.3129 14.3874 15.4825 14.1705 15.5841 13.9202C15.6858 13.6699 15.7156 13.3963 15.67 13.13L15.38 11.44L16.61 10.24C16.8049 10.0512 16.943 9.8114 17.0084 9.54799C17.0738 9.28458 17.064 9.0081 16.98 8.75C16.8939 8.48577 16.7326 8.25236 16.516 8.07832C16.2993 7.90427 16.0366 7.79713 15.76 7.77ZM13.56 10.37C13.4427 10.4834 13.355 10.6238 13.3044 10.779C13.2539 10.9341 13.2421 11.0993 13.27 11.26L13.46 12.37L12.46 11.85C12.3195 11.7712 12.1611 11.7298 12 11.7298C11.8389 11.7298 11.6805 11.7712 11.54 11.85L10.54 12.37L10.73 11.26C10.7579 11.0993 10.7461 10.9341 10.6956 10.779C10.645 10.6238 10.5573 10.4834 10.44 10.37L9.63 9.59L10.75 9.42C10.9092 9.39697 11.0606 9.33585 11.1911 9.24184C11.3217 9.14783 11.4277 9.02371 11.5 8.88L12 7.88L12.5 8.88C12.5724 9.02371 12.6783 9.14783 12.8089 9.24184C12.9395 9.33585 13.0908 9.39697 13.25 9.42L14.37 9.59L13.56 10.37Z" fill="#F19B15"/>
</g>
</g>
</g>
</svg>
