<svg width="24" height="24" viewBox="0 0 24 24" fill="none" xmlns="http://www.w3.org/2000/svg">
<path fill-rule="evenodd" clip-rule="evenodd" d="M20 5.25C20.4142 5.25 20.75 5.58579 20.75 6C20.75 6.41421 20.4142 6.75 20 6.75L11.6465 6.75C11.32 7.90425 10.2588 8.75 9 8.75C7.74122 8.75 6.67998 7.90425 6.35352 6.75L3.5 6.75C3.08579 6.75 2.75 6.41421 2.75 6C2.75 5.58579 3.08579 5.25 3.5 5.25L6.35352 5.25C6.67998 4.09575 7.74122 3.25 9 3.25C10.2588 3.25 11.32 4.09575 11.6465 5.25L20 5.25ZM9 7.25C8.30964 7.25 7.75 6.69036 7.75 6C7.75 5.30964 8.30964 4.75 9 4.75C9.69036 4.75 10.25 5.30964 10.25 6C10.25 6.69036 9.69036 7.25 9 7.25ZM13.75 12C13.75 12.6904 14.3096 13.25 15 13.25C15.6904 13.25 16.25 12.6904 16.25 12C16.25 11.3096 15.6904 10.75 15 10.75C14.3096 10.75 13.75 11.3096 13.75 12ZM12.3535 12.75C12.68 13.9043 13.7412 14.75 15 14.75C16.2588 14.75 17.32 13.9043 17.6465 12.75L20 12.75C20.4142 12.75 20.75 12.4142 20.75 12C20.75 11.5858 20.4142 11.25 20 11.25L17.6465 11.25C17.32 10.0957 16.2588 9.25 15 9.25C13.7412 9.25 12.68 10.0957 12.3535 11.25L3.5 11.25C3.08579 11.25 2.75 11.5858 2.75 12C2.75 12.4142 3.08579 12.75 3.5 12.75L12.3535 12.75ZM7.75 18C7.75 18.6904 8.30964 19.25 9 19.25C9.69036 19.25 10.25 18.6904 10.25 18C10.25 17.3096 9.69036 16.75 9 16.75C8.30964 16.75 7.75 17.3096 7.75 18ZM6.35352 18.75C6.67998 19.9043 7.74122 20.75 9 20.75C10.2588 20.75 11.32 19.9043 11.6465 18.75L20 18.75C20.4142 18.75 20.75 18.4142 20.75 18C20.75 17.5858 20.4142 17.25 20 17.25L11.6465 17.25C11.32 16.0957 10.2588 15.25 9 15.25C7.74122 15.25 6.67998 16.0957 6.35352 17.25L3.5 17.25C3.08579 17.25 2.75 17.5858 2.75 18C2.75 18.4142 3.08579 18.75 3.5 18.75L6.35352 18.75Z" fill="#33495D"/>
</svg>
