<svg width="21" height="20" viewBox="0 0 21 20" fill="none" xmlns="http://www.w3.org/2000/svg">
<path d="M4.93242 12.0863L4.23625 14.6852L1.69176 14.739C0.931328 13.3286 0.5 11.7149 0.5 10C0.5 8.34179 0.903281 6.77804 1.61813 5.40112H1.61867L3.88398 5.81644L4.87633 8.06815C4.66863 8.67366 4.55543 9.32366 4.55543 10C4.55551 10.7341 4.68848 11.4374 4.93242 12.0863Z" fill="#FBBB00"/>
<path d="M20.3242 8.13184C20.439 8.73676 20.4989 9.36148 20.4989 9.99996C20.4989 10.7159 20.4236 11.4143 20.2802 12.0879C19.7934 14.3802 18.5214 16.3818 16.7594 17.7983L16.7588 17.7978L13.9055 17.6522L13.5017 15.1313C14.6709 14.4456 15.5847 13.3725 16.066 12.0879H10.7188V8.13184H16.144H20.3242Z" fill="#518EF8"/>
<path d="M16.7595 17.7979L16.7601 17.7985C15.0464 19.176 12.8694 20.0001 10.4996 20.0001C6.69141 20.0001 3.38043 17.8716 1.69141 14.7392L4.93207 12.0864C5.77656 14.3403 7.95074 15.9447 10.4996 15.9447C11.5952 15.9447 12.6216 15.6485 13.5024 15.1315L16.7595 17.7979Z" fill="#28B446"/>
<path d="M16.882 2.30219L13.6425 4.95438C12.7309 4.38461 11.6534 4.05547 10.4991 4.05547C7.89246 4.05547 5.67762 5.73348 4.87543 8.06812L1.61773 5.40109H1.61719C3.28148 2.1923 6.63422 0 10.4991 0C12.9254 0 15.1502 0.864297 16.882 2.30219Z" fill="#F14336"/>
</svg>
