<svg width="24" height="24" viewBox="0 0 24 24" fill="none" xmlns="http://www.w3.org/2000/svg">
<g filter="url(#filter0_d_6192_2105)">
<path fill-rule="evenodd" clip-rule="evenodd" d="M11.6155 20.9258C11.7373 20.9756 11.8678 21.0008 11.9994 21C12.131 21.0008 12.2615 20.9756 12.3833 20.9258C12.5051 20.876 12.6159 20.8027 12.7094 20.71L20.4794 12.93C21.454 11.9452 22.0007 10.6156 22.0007 9.23002C22.0007 7.84445 21.454 6.51484 20.4794 5.53002C19.4971 4.55053 18.1666 4.00049 16.7794 4.00049C15.3922 4.00049 14.0616 4.55053 13.0794 5.53002L11.9994 6.61002L10.9194 5.53002C9.93712 4.55053 8.60655 4.00049 7.21939 4.00049C5.83222 4.00049 4.50165 4.55053 3.51938 5.53002C2.54475 6.51484 1.99805 7.84445 1.99805 9.23002C1.99805 10.6156 2.54475 11.9452 3.51938 12.93L11.2894 20.71C11.3828 20.8027 11.4936 20.876 11.6155 20.9258Z" fill="white"/>
</g>
<defs>
<filter id="filter0_d_6192_2105" x="-0.00195312" y="2.00049" width="24.002" height="20.9996" filterUnits="userSpaceOnUse" color-interpolation-filters="sRGB">
<feFlood flood-opacity="0" result="BackgroundImageFix"/>
<feColorMatrix in="SourceAlpha" type="matrix" values="0 0 0 0 0 0 0 0 0 0 0 0 0 0 0 0 0 0 127 0" result="hardAlpha"/>
<feOffset/>
<feGaussianBlur stdDeviation="1"/>
<feComposite in2="hardAlpha" operator="out"/>
<feColorMatrix type="matrix" values="0 0 0 0 0 0 0 0 0 0 0 0 0 0 0 0 0 0 0.3 0"/>
<feBlend mode="normal" in2="BackgroundImageFix" result="effect1_dropShadow_6192_2105"/>
<feBlend mode="normal" in="SourceGraphic" in2="effect1_dropShadow_6192_2105" result="shape"/>
</filter>
</defs>
</svg>
