<svg width="24" height="24" viewBox="0 0 24 24" fill="none" xmlns="http://www.w3.org/2000/svg">
<path d="M12 22.0001C17.5228 22.0001 22 17.523 22 12.0001C22 6.47727 17.5228 2.00012 12 2.00012C6.47715 2.00012 2 6.47727 2 12.0001C2 17.523 6.47715 22.0001 12 22.0001Z" stroke="#33495D" stroke-width="2" stroke-linecap="round" stroke-linejoin="round"/>
<path d="M9.08984 9.0002C9.32495 8.33187 9.789 7.76831 10.3998 7.40934C11.0106 7.05036 11.7287 6.91914 12.427 7.03892C13.1253 7.15869 13.7587 7.52173 14.2149 8.06373C14.6712 8.60573 14.9209 9.29173 14.9198 10.0002C14.9198 12.0002 11.9198 13.0002 11.9198 13.0002" stroke="#33495D" stroke-width="2" stroke-linecap="round" stroke-linejoin="round"/>
<path d="M12 17.0001H12.01" stroke="#33495D" stroke-width="2" stroke-linecap="round" stroke-linejoin="round"/>
</svg>
