<svg width="20" height="20" viewBox="0 0 20 20" fill="none" xmlns="http://www.w3.org/2000/svg">
<path fill-rule="evenodd" clip-rule="evenodd" d="M9.48773 1.00879C9.78866 0.774739 10.21 0.774739 10.511 1.00879L18.011 6.84212C18.214 7 18.3327 7.24276 18.3327 7.49992V16.6666C18.3327 17.3296 18.0693 17.9655 17.6005 18.4344C17.1316 18.9032 16.4957 19.1666 15.8327 19.1666H4.16602C3.50297 19.1666 2.86709 18.9032 2.39825 18.4344C1.92941 17.9655 1.66602 17.3296 1.66602 16.6666V7.49992C1.66602 7.24276 1.78474 7 1.98773 6.84212L9.48773 1.00879ZM3.33268 7.90749V16.6666C3.33268 16.8876 3.42048 17.0996 3.57676 17.2558C3.73304 17.4121 3.945 17.4999 4.16602 17.4999H15.8327C16.0537 17.4999 16.2657 17.4121 16.4219 17.2558C16.5782 17.0996 16.666 16.8876 16.666 16.6666V7.90749L9.99935 2.7223L3.33268 7.90749Z" fill="#ADB6BE"/>
<path fill-rule="evenodd" clip-rule="evenodd" d="M6.66602 10.0001C6.66602 9.53984 7.03911 9.16675 7.49935 9.16675H12.4993C12.9596 9.16675 13.3327 9.53984 13.3327 10.0001V18.3334C13.3327 18.7937 12.9596 19.1667 12.4993 19.1667C12.0391 19.1667 11.666 18.7937 11.666 18.3334V10.8334H8.33268V18.3334C8.33268 18.7937 7.95959 19.1667 7.49935 19.1667C7.03911 19.1667 6.66602 18.7937 6.66602 18.3334V10.0001Z" fill="#ADB6BE"/>
</svg>
