<svg width="41" height="82" viewBox="0 0 41 82" fill="none" xmlns="http://www.w3.org/2000/svg">
<g clip-path="url(#clip0_2147_7339)">
<path d="M18.7612 1.73907C14.9247 1.73907 11.8047 4.85907 11.8047 8.69556C11.8047 9.85553 12.1073 10.9877 12.7038 12.0608C12.862 12.346 13.1594 12.5078 13.4638 12.5078C13.6082 12.5078 13.7525 12.473 13.8881 12.3982C14.3072 12.1651 14.4585 11.6347 14.2238 11.2156C13.7734 10.4052 13.5438 9.55643 13.5438 8.69556C13.5438 5.81907 15.8847 3.47818 18.7612 3.47818C21.6377 3.47818 23.9785 5.81907 23.9785 8.69556C23.9785 9.10945 23.9124 9.54249 23.7716 10.0608C23.6463 10.5234 23.9194 11.0016 24.382 11.1287C24.8533 11.2643 25.3263 10.9809 25.4498 10.5182C25.6325 9.84689 25.7176 9.26776 25.7176 8.69564C25.7176 4.85907 22.5977 1.73907 18.7612 1.73907Z" fill="#FFCD1E"/>
<path d="M7.45553 0C6.97553 0 6.58594 0.389592 6.58594 0.869592V14.7827C6.58594 15.2627 6.97553 15.6523 7.45553 15.6523C7.93553 15.6523 8.32512 15.2627 8.32512 14.7827V0.869592C8.32512 0.389592 7.93553 0 7.45553 0Z" fill="#FFCD1E"/>
<path d="M11.5498 3.73404L8.07152 0.255751C7.73239 -0.0833787 7.18106 -0.0833787 6.84193 0.255751L3.36372 3.73404C3.02459 4.07317 3.02459 4.6245 3.36372 4.96363C3.70285 5.30276 4.25418 5.30276 4.59332 4.96363L7.45595 2.09928L10.3186 4.96363C10.489 5.1323 10.7116 5.21757 10.9342 5.21757C11.1569 5.21757 11.3794 5.13238 11.5499 4.96363C11.8889 4.62442 11.8889 4.07317 11.5498 3.73404Z" fill="#FFCD1E"/>
<path d="M34.4131 17.3913C33.6983 17.3913 33.0322 17.6087 32.4792 17.9791C32.0027 16.6261 30.7105 15.6522 29.1957 15.6522C28.4809 15.6522 27.8148 15.8696 27.2618 16.24C26.7853 14.887 25.4931 13.9131 23.9783 13.9131C23.3453 13.9131 22.7505 14.0835 22.2392 14.3809V8.69569C22.2392 6.77741 20.6792 5.21741 18.7609 5.21741C16.8426 5.21741 15.2826 6.77741 15.2826 8.69569V23.4783L12.2601 21.2122C10.4688 19.8678 7.91749 20.0487 6.3314 21.6331C5.31401 22.6505 5.31401 24.3044 6.3314 25.3218L18.7158 37.7079C20.194 39.1861 22.161 40 24.2514 40H28.3262C33.5993 40 37.8914 35.7096 37.8914 30.4348V20.8696C37.8914 18.9513 36.3314 17.3913 34.4131 17.3913ZM36.1522 30.4348C36.1522 34.7495 32.6409 38.2608 28.3261 38.2608H24.2513C22.6235 38.2608 21.0948 37.6278 19.9453 36.4782L7.56091 24.0922C7.22178 23.7531 7.22178 23.2017 7.56091 22.8626C8.10002 22.3252 8.82002 22.0487 9.54352 22.0487C10.1314 22.0487 10.7227 22.2313 11.2183 22.6035L15.6305 25.913C15.8931 26.1113 16.2479 26.1426 16.5418 25.9948C16.8357 25.847 17.0218 25.5461 17.0218 25.2174V8.69569C17.0218 7.73741 17.8009 6.95659 18.7609 6.95659C19.7209 6.95659 20.5 7.73749 20.5 8.69569V21.7392C20.5 22.2192 20.8896 22.6088 21.3696 22.6088C21.8496 22.6088 22.2392 22.2192 22.2392 21.7392V17.3914C22.2392 16.4331 23.0183 15.6523 23.9783 15.6523C24.9383 15.6523 25.7174 16.4332 25.7174 17.3914V21.7392C25.7174 22.2192 26.107 22.6088 26.587 22.6088C27.067 22.6088 27.4566 22.2192 27.4566 21.7392V19.1305C27.4566 18.1722 28.2357 17.3914 29.1957 17.3914C30.1557 17.3914 30.9348 18.1723 30.9348 19.1305V21.7392C30.9348 22.2192 31.3244 22.6088 31.8044 22.6088C32.2844 22.6088 32.674 22.2192 32.674 21.7392V20.8696C32.674 19.9113 33.4531 19.1305 34.4131 19.1305C35.3731 19.1305 36.1522 19.9114 36.1522 20.8696V30.4348Z" fill="#FFCD1E"/>
</g>
<rect x="20" y="46" width="1" height="4" fill="white"/>
<rect x="20" y="52" width="1" height="4" fill="white"/>
<rect x="20" y="58" width="1" height="4" fill="white"/>
<rect x="20" y="64" width="1" height="4" fill="white"/>
<circle cx="20.5" cy="78" r="4" fill="white"/>
<defs>
<clipPath id="clip0_2147_7339">
<rect width="40" height="40" fill="white" transform="translate(0.5)"/>
</clipPath>
</defs>
</svg>
