<svg width="95" height="98" viewBox="0 0 95 98" fill="none" xmlns="http://www.w3.org/2000/svg">
<rect x="0.5" width="94" height="98" rx="47" fill="#FEF5E8"/>
<g clip-path="url(#clip0_8009_29446)">
<path d="M39.7754 67.4902C39.7754 61.5652 33.0366 58.9782 30.3073 54.4304C27.1636 49.1923 26.9141 42.4241 28.9167 36.7358C31.5541 29.2445 38.9508 24.3815 46.7818 24.1175C47.021 24.1094 47.2603 24.1055 47.4997 24.1055C47.7391 24.1055 47.9783 24.1094 48.2176 24.1175C56.0486 24.3815 63.4455 29.2445 66.0826 36.7358C68.0852 42.424 67.8358 49.1921 64.6921 54.4304C61.9628 58.9782 55.224 61.5652 55.224 67.4902L47.4997 70.9121L39.7754 67.4902Z" fill="#FFCE1C"/>
<path d="M43.9379 67.4901C43.9379 61.5651 37.1992 58.9782 34.4699 54.4303C31.3261 49.1922 31.0766 42.4241 33.0793 36.7359C35.5629 29.6811 42.2677 24.9588 49.581 24.2118C49.1286 24.1656 48.674 24.1331 48.2176 24.1176C47.9783 24.1095 47.7391 24.1057 47.4997 24.1057C47.2603 24.1057 47.021 24.1095 46.7818 24.1176C38.9508 24.3816 31.5539 29.2446 28.9167 36.7359C26.9141 42.4241 27.1636 49.1922 30.3073 54.4303C33.0366 58.9782 39.7754 61.5651 39.7754 67.4901L47.4997 70.9121L49.581 69.99L43.9379 67.4901Z" fill="#ECB000"/>
<path d="M36.9126 49.5894C36.3377 49.5894 35.8721 49.1235 35.8721 48.5487V46.6326C35.8721 46.0578 36.3379 45.592 36.9126 45.592C37.4875 45.592 37.9532 46.058 37.9532 46.6326V48.5489C37.9533 49.1235 37.4875 49.5894 36.9126 49.5894Z" fill="#3A484A"/>
<path d="M58.0876 49.5894C57.5127 49.5894 57.0469 49.1235 57.0469 48.5487V46.6326C57.0469 46.0578 57.5127 45.592 58.0876 45.592C58.6625 45.592 59.1281 46.058 59.1281 46.6326V48.5489C59.1281 49.1235 58.6622 49.5894 58.0876 49.5894Z" fill="#3A484A"/>
<path d="M47.5004 50.6122C46.1818 50.6122 44.9437 50.0612 44.1039 49.1004C43.7255 48.6677 43.7698 48.0103 44.2025 47.632C44.6352 47.2537 45.2927 47.2977 45.6709 47.7306C46.1156 48.2393 46.7824 48.5309 47.5006 48.5309C48.2188 48.5309 48.8855 48.2392 49.3303 47.7306C49.7086 47.2977 50.3661 47.2537 50.7985 47.6319C51.2312 48.0102 51.2755 48.6675 50.8972 49.1002C50.0572 50.0611 48.8194 50.6122 47.5004 50.6122Z" fill="#3A484A"/>
<path d="M22.3956 50.6123H17.4517C16.8768 50.6123 16.4111 50.1463 16.4111 49.5717C16.4111 48.9969 16.8769 48.531 17.4517 48.531H22.3957C22.9706 48.531 23.4363 48.9969 23.4363 49.5717C23.4363 50.1463 22.9704 50.6123 22.3956 50.6123Z" fill="#FFCE1C"/>
<path d="M47.4995 21.0253C46.9246 21.0253 46.459 20.5594 46.459 19.9847V15.0406C46.459 14.4658 46.9248 14 47.4995 14C48.0745 14 48.5401 14.4659 48.5401 15.0406V19.9846C48.5403 20.5594 48.0745 21.0253 47.4995 21.0253Z" fill="#FFCE1C"/>
<path d="M27.4771 30.1528C27.2934 30.1528 27.1073 30.1041 26.9387 30.0021L22.7104 27.44C22.2189 27.1422 22.062 26.5024 22.3597 26.0107C22.6577 25.5191 23.2975 25.3624 23.789 25.6599L28.0174 28.2218C28.5089 28.5195 28.6659 29.1594 28.3681 29.651C28.1725 29.9742 27.8292 30.1528 27.4771 30.1528Z" fill="#FFCE1C"/>
<path d="M77.5482 50.6123H72.6042C72.0293 50.6123 71.5635 50.1463 71.5635 49.5717C71.5635 48.9969 72.0293 48.531 72.6042 48.531H77.5482C78.1231 48.531 78.5889 48.9969 78.5889 49.5717C78.5888 50.1463 78.123 50.6123 77.5482 50.6123Z" fill="#FFCE1C"/>
<path d="M67.5231 30.1528C67.1712 30.1528 66.8279 29.9742 66.6322 29.6513C66.3344 29.1597 66.4914 28.5198 66.9829 28.2221L71.2113 25.6602C71.703 25.3626 72.3428 25.5194 72.6406 26.011C72.9384 26.5027 72.7814 27.1425 72.2899 27.4403L68.0615 30.0021C67.8928 30.104 67.7068 30.1528 67.5231 30.1528Z" fill="#FFCE1C"/>
<path d="M55.2237 67.4902H39.7752C38.0964 67.4902 36.7354 68.8511 36.7354 70.53C36.7354 72.2088 38.0962 73.5698 39.7752 73.5698L47.4995 76.6096L55.2238 73.5698C56.9026 73.5698 58.2636 72.2089 58.2636 70.53C58.2635 68.8511 56.9026 67.4902 55.2237 67.4902Z" fill="#BAB8B9"/>
<path d="M43.9377 73.5694C42.2589 73.5694 40.8979 72.2085 40.8979 70.5296C40.8979 68.8508 42.2588 67.4897 43.9377 67.4897H39.7752C38.0964 67.4897 36.7354 68.8506 36.7354 70.5296C36.7354 72.2083 38.0962 73.5694 39.7752 73.5694L47.4995 76.6092L49.5808 75.7901L43.9377 73.5694Z" fill="#9E9C9D"/>
<path d="M44.5996 75.2981V81.0995C44.5996 82.7016 45.8983 84.0002 47.5004 84.0002C49.1024 84.0002 50.4011 82.7016 50.4011 81.0995V75.2981H44.5996Z" fill="#BAB8B9"/>
<path d="M55.2237 73.5693H39.7752C38.0964 73.5693 36.7354 74.9302 36.7354 76.6091C36.7354 78.2879 38.0962 79.6489 39.7752 79.6489H55.2237C56.9025 79.6489 58.2635 78.288 58.2635 76.6091C58.2635 74.9304 56.9026 73.5693 55.2237 73.5693Z" fill="#D4D2D3"/>
<path d="M40.8979 76.6091C40.8979 74.9304 42.2588 73.5693 43.9377 73.5693H39.7752C38.0964 73.5693 36.7354 74.9302 36.7354 76.6091C36.7354 78.2879 38.0963 79.6489 39.7752 79.6489H43.9377C42.2588 79.6489 40.8979 78.2879 40.8979 76.6091Z" fill="#BAB8B9"/>
</g>
<defs>
<clipPath id="clip0_8009_29446">
<rect width="70" height="70" fill="white" transform="translate(12.5 14)"/>
</clipPath>
</defs>
</svg>
