<svg width="16" height="16" viewBox="0 0 16 16" fill="none" xmlns="http://www.w3.org/2000/svg">
<path d="M6.66732 6.66659C6.66732 6.53473 6.62822 6.40584 6.55497 6.29621C6.48171 6.18657 6.37759 6.10112 6.25578 6.05067C6.13396 6.00021 5.99991 5.98701 5.87059 6.01273C5.74127 6.03845 5.62248 6.10195 5.52925 6.19518C5.43601 6.28842 5.37252 6.4072 5.3468 6.53653C5.32107 6.66585 5.33428 6.79989 5.38473 6.92171C5.43519 7.04353 5.52064 7.14764 5.63027 7.2209C5.73991 7.29415 5.8688 7.33325 6.00065 7.33325C6.17746 7.33325 6.34703 7.26301 6.47206 7.13799C6.59708 7.01297 6.66732 6.8434 6.66732 6.66659ZM9.66732 9.37325C9.59163 9.3289 9.50793 9.29992 9.42101 9.28798C9.3341 9.27603 9.24568 9.28136 9.16083 9.30366C9.07598 9.32596 8.99637 9.36478 8.92655 9.41791C8.85674 9.47103 8.7981 9.53742 8.75399 9.61325C8.6783 9.74631 8.56873 9.85695 8.4364 9.93392C8.30408 10.0109 8.15373 10.0514 8.00065 10.0514C7.84757 10.0514 7.69723 10.0109 7.5649 9.93392C7.43258 9.85695 7.323 9.74631 7.24732 9.61325C7.20321 9.53742 7.14457 9.47103 7.07475 9.41791C7.00494 9.36478 6.92532 9.32596 6.84047 9.30366C6.75562 9.28136 6.66721 9.27603 6.58029 9.28798C6.49338 9.29992 6.40968 9.3289 6.33399 9.37325C6.1815 9.4612 6.06998 9.60589 6.02377 9.77574C5.97756 9.9456 6.00041 10.1268 6.08732 10.2799C6.28068 10.6165 6.55939 10.896 6.89532 11.0905C7.23125 11.2849 7.61252 11.3873 8.00065 11.3873C8.38879 11.3873 8.77005 11.2849 9.10599 11.0905C9.44192 10.896 9.72062 10.6165 9.91399 10.2799C10.0009 10.1268 10.0237 9.9456 9.97753 9.77574C9.93132 9.60589 9.81981 9.4612 9.66732 9.37325ZM10.0007 5.99992C9.8688 5.99992 9.73991 6.03902 9.63027 6.11227C9.52064 6.18553 9.43519 6.28965 9.38473 6.41146C9.33428 6.53328 9.32107 6.66733 9.3468 6.79665C9.37252 6.92597 9.43601 7.04475 9.52925 7.13799C9.62248 7.23123 9.74127 7.29472 9.87059 7.32044C9.99991 7.34617 10.134 7.33296 10.2558 7.28251C10.3776 7.23205 10.4817 7.1466 10.555 7.03697C10.6282 6.92733 10.6673 6.79844 10.6673 6.66659C10.6673 6.48977 10.5971 6.32021 10.4721 6.19518C10.347 6.07016 10.1775 5.99992 10.0007 5.99992ZM8.00065 1.33325C6.68211 1.33325 5.39318 1.72425 4.29685 2.45679C3.20052 3.18933 2.34604 4.23052 1.84146 5.4487C1.33687 6.66687 1.20485 8.00731 1.46209 9.30052C1.71932 10.5937 2.35426 11.7816 3.28661 12.714C4.21896 13.6463 5.40685 14.2813 6.70005 14.5385C7.99326 14.7957 9.3337 14.6637 10.5519 14.1591C11.7701 13.6545 12.8112 12.8 13.5438 11.7037C14.2763 10.6074 14.6673 9.31846 14.6673 7.99992C14.6673 7.12444 14.4949 6.25753 14.1599 5.4487C13.8248 4.63986 13.3338 3.90493 12.7147 3.28587C12.0956 2.66682 11.3607 2.17575 10.5519 1.84072C9.74304 1.50569 8.87613 1.33325 8.00065 1.33325ZM8.00065 13.3333C6.75886 13.3386 5.55412 12.9105 4.5942 12.1227C3.63427 11.3349 2.97933 10.2368 2.74233 9.01785C2.50533 7.79887 2.70112 6.5354 3.29594 5.44532C3.89076 4.35525 4.84732 3.5069 6.00065 3.04659C5.9938 3.14202 5.9938 3.23782 6.00065 3.33325C6.00065 3.86368 6.21137 4.37239 6.58644 4.74747C6.96151 5.12254 7.47022 5.33325 8.00065 5.33325C8.17746 5.33325 8.34703 5.26301 8.47206 5.13799C8.59708 5.01297 8.66732 4.8434 8.66732 4.66659C8.66732 4.48977 8.59708 4.32021 8.47206 4.19518C8.34703 4.07016 8.17746 3.99992 8.00065 3.99992C7.82384 3.99992 7.65427 3.92968 7.52925 3.80466C7.40423 3.67963 7.33399 3.51006 7.33399 3.33325C7.33399 3.15644 7.40423 2.98687 7.52925 2.86185C7.65427 2.73682 7.82384 2.66659 8.00065 2.66659C9.41514 2.66659 10.7717 3.22849 11.7719 4.22868C12.7721 5.22888 13.334 6.58543 13.334 7.99992C13.334 9.41441 12.7721 10.771 11.7719 11.7712C10.7717 12.7713 9.41514 13.3333 8.00065 13.3333Z" fill="#F19B15"/>
</svg>
