<svg width="14" height="14" viewBox="0 0 14 14" fill="none" xmlns="http://www.w3.org/2000/svg">
<g clip-path="url(#clip0_6192_1155)">
<path d="M7.00131 1.09619C3.74059 1.09619 1.09766 3.73913 1.09766 6.99988C1.09766 9.42281 2.55862 11.5022 4.64633 12.4118L4.72326 10.9216C4.72326 9.73597 3.84698 10.1158 3.84698 9.2865C3.84698 8.82166 3.8615 7.85311 3.8615 7.12594C3.8615 5.18815 4.68436 3.31364 4.88649 2.89535C5.08985 2.47751 5.56814 2.02164 5.57329 2.46041C5.57329 3.09701 5.60043 10.4995 5.60043 10.4995H5.59914L5.68971 12.7515C6.11248 12.848 6.55 12.9032 7.00135 12.9032C7.24875 12.9032 7.49057 12.8831 7.73025 12.8536L7.92551 9.06947C7.44357 8.96397 7.03257 8.65718 6.77472 8.27224C6.45535 7.79369 7.02017 3.56292 7.02017 3.56292H7.38804V7.53352H7.7529V3.56292H8.15151V7.53352H8.51515V3.56292H8.92914V7.53352H9.29359V3.56292H9.57556C9.57556 3.56292 10.14 7.79373 9.82079 8.27224C9.56533 8.65332 9.15856 8.95922 8.68261 9.06774C8.67408 9.07031 8.6664 9.07373 8.6664 9.07373L8.85099 12.6036C11.2042 11.8274 12.9051 9.61377 12.9051 6.99988C12.9046 3.73917 10.2616 1.09619 7.00131 1.09619Z" fill="#F19B15"/>
<path d="M7.00042 0C3.14091 0 0 3.14025 0 6.99998C0 10.8589 3.14091 14 7.00042 14C10.8598 14 14 10.8589 14 6.99998C14 3.14025 10.8598 0 7.00042 0ZM7.00042 13.4779C3.42821 13.4779 0.521873 10.5718 0.521873 6.99998C0.521873 3.42777 3.42821 0.521432 7.00042 0.521432C10.5722 0.521432 13.4788 3.42777 13.4788 6.99998C13.4788 10.5718 10.5722 13.4779 7.00042 13.4779Z" fill="#F19B15"/>
</g>
<defs>
<clipPath id="clip0_6192_1155">
<rect width="14" height="14" fill="white"/>
</clipPath>
</defs>
</svg>
