<svg width="133" height="20" viewBox="0 0 133 20" fill="none" xmlns="http://www.w3.org/2000/svg">
<path d="M46.9314 9.97641L43.5833 9.69464C42.288 9.5999 42.1382 9.09855 42.1382 8.72966C42.1382 7.80277 43.218 7.18002 44.8253 7.18002C46.3438 7.18002 47.3006 7.68247 47.4499 8.558C47.5159 8.95567 47.7827 9.00171 47.9776 9.00171H50.115C50.4292 9.00171 50.6662 8.78225 50.6662 8.49116C50.6662 6.52526 49.1376 4.42443 44.8468 4.42443C41.9924 4.42443 38.9199 5.82604 38.9199 8.9032C38.9199 10.9545 40.3997 12.2063 43.0866 12.4273L46.4544 12.7093C47.1833 12.7704 48.0524 13.0136 48.0524 13.826C48.0524 14.7953 46.9565 15.3973 45.1923 15.3973C43.3568 15.3973 42.3571 14.8457 42.1354 13.7111C42.0773 13.4198 41.8855 13.272 41.5653 13.272H39.4711C39.1619 13.272 38.9199 13.5058 38.9199 13.8041V13.9776C38.9199 16.436 41.4993 18.1526 45.1923 18.1526C49.3914 18.1526 51.271 15.914 51.271 13.6956C51.271 11.5695 49.6893 10.214 46.9314 9.97641Z" fill="#F6911C"/>
<path d="M72.0542 4.64141H69.4633C69.1451 4.64141 69.0565 4.69864 68.9039 5.00463L65.9897 11.227C65.7621 11.6995 65.5178 12.422 65.3866 12.8293C65.2955 12.5277 65.1412 12.0513 64.9514 11.6025L62.1945 5.00265C62.1029 4.78308 61.8907 4.64141 61.6538 4.64141H60.8642C60.6273 4.64141 60.4152 4.78308 60.3235 5.00265L57.5672 11.6005C57.3768 12.0382 57.2217 12.5205 57.1308 12.8265C56.9994 12.4193 56.756 11.699 56.5289 11.2284L53.6147 5.00577C53.4626 4.67484 53.3729 4.64141 53.0547 4.64141H50.4641C50.2471 4.64141 50.1504 4.77769 50.1504 4.91312C50.1504 5.01285 50.2051 5.14403 50.2494 5.23243L55.895 17.5922C55.9901 17.801 56.1994 17.9359 56.4282 17.9359H57.6389C57.875 17.9359 58.0868 17.7948 58.1791 17.5765L61.0654 10.7354C61.1376 10.5594 61.2092 10.3473 61.2651 10.1705C61.3257 10.3471 61.4022 10.5596 61.4744 10.7365L64.3392 17.5752C64.4312 17.7943 64.643 17.9359 64.8797 17.9359H66.0901C66.3189 17.9359 66.5282 17.801 66.6233 17.5922L72.2666 5.23668C72.3129 5.14375 72.3679 5.01229 72.3679 4.91312C72.3679 4.77769 72.2709 4.64141 72.0542 4.64141Z" fill="#F6911C"/>
<path d="M86.4348 4.64141H83.6932C83.4151 4.64141 83.2492 4.68929 83.0599 4.96129L80.8365 8.10486C80.4495 8.64561 80.0069 9.4147 79.8284 9.73111C79.6478 9.40827 79.1974 8.6217 78.8205 8.10565L76.5974 4.96214C76.4075 4.68929 76.242 4.64141 75.9635 4.64141H73.222C73.0677 4.64141 72.9512 4.75814 72.9512 4.91312C72.9512 4.99727 72.989 5.08906 73.0826 5.23044C73.0832 5.23101 73.0838 5.23186 73.0843 5.23271L78.2191 12.6342V17.534C78.2191 17.7403 78.4137 17.9359 78.6191 17.9359H81.0374C81.243 17.9359 81.4377 17.7403 81.4377 17.534V12.6342L86.5741 5.23044C86.6675 5.08935 86.7053 4.99755 86.7053 4.91312C86.7053 4.75814 86.5891 4.64141 86.4348 4.64141Z" fill="#F6911C"/>
<path d="M91.1123 2.37879C90.6124 1.90195 89.7162 1.74414 88.448 1.91045C88.3868 1.91838 88.338 1.96542 88.3272 2.02633L87.3772 7.49096C87.3648 7.56091 87.4065 7.62919 87.4739 7.65044L89.3309 8.23613C89.3447 8.24066 89.3591 8.24268 89.3729 8.24268C89.4183 8.24268 89.4618 8.22086 89.4886 8.18224C90.121 7.2747 91.4553 4.98708 91.543 3.70985C91.5876 3.14206 91.4426 2.69413 91.1123 2.37879Z" fill="#F6911C"/>
<path d="M95.3114 10.0536H101.332C101.272 8.99529 100.339 8.05822 98.4722 8.05822C96.9974 8.05822 95.6731 8.72324 95.3114 10.0536ZM95.2514 12.6538C95.4923 14.2263 97.0273 14.8312 99.0144 14.8312C100.339 14.8312 101.724 14.317 102.777 13.682C103.018 13.5309 103.229 13.4403 103.47 13.4403C103.65 13.4403 103.891 13.5309 104.011 13.7727L104.764 15.2546C104.854 15.4356 104.914 15.5869 104.914 15.7382C104.914 15.9498 104.794 16.1311 104.523 16.3428C103.289 17.3106 101.483 18.0966 98.8637 18.0966C94.589 18.0966 91.2773 15.7682 91.2773 11.5958C91.2773 7.96736 93.987 5.09479 98.4423 5.09479C103.018 5.09479 105.186 7.72554 105.186 10.8094C105.186 11.7469 105.035 12.6538 105.035 12.6538H95.2514Z" fill="#30445A"/>
<path d="M116.836 14.0752V13.1378H113.194C111.869 13.1378 111.508 13.6214 111.508 14.1656C111.508 14.6798 111.929 15.1333 112.952 15.1333C114.398 15.1333 115.993 14.6496 116.836 14.0752ZM116.986 16.5548C115.752 17.4917 114.157 18.0966 112.29 18.0966C109.159 18.0966 107.654 16.3428 107.654 14.2564C107.654 12.2305 109.129 10.4769 112.893 10.4769C114.668 10.4769 116.776 10.6886 116.776 10.6886L116.836 10.6584V10.3258C116.836 9.05584 116.023 8.17906 114.067 8.17906C112.622 8.17906 112.02 8.66272 111.989 9.44906V9.50938C111.959 9.69088 111.718 9.78163 111.477 9.78163H108.648C108.467 9.78163 108.136 9.44906 108.136 9.26754V9.1467C108.136 6.90908 109.852 5.09479 114.097 5.09479C118.763 5.09479 120.689 7.57425 120.689 10.7794V17.28C120.689 17.4616 120.358 17.7943 120.178 17.7943H117.95C117.739 17.7943 117.559 17.6732 117.438 17.4013L117.077 16.5548H116.986Z" fill="#30445A"/>
<path d="M122.736 8.66272C122.555 8.66272 122.314 8.4209 122.314 8.23938V5.82061C122.314 5.63911 122.555 5.39729 122.736 5.39729H124.121V2.58538C124.121 2.40377 124.452 2.07114 124.632 2.07114H127.462C127.643 2.07114 127.974 2.40377 127.974 2.58538V5.39729H131.827C132.008 5.39729 132.249 5.63911 132.249 5.82061V8.23938C132.249 8.4209 132.008 8.66272 131.827 8.66272H127.974V12.896C127.974 14.3472 128.696 14.8312 129.78 14.8312C130.382 14.8312 131.135 14.4985 131.586 14.2564C131.887 14.1053 132.158 14.2564 132.249 14.4985L132.76 16.0105C132.821 16.2221 132.881 16.4337 132.881 16.5548C132.881 16.7663 132.73 16.978 132.46 17.159C131.827 17.5824 130.533 18.0966 129.118 18.0966C126.198 18.0966 124.121 16.4941 124.121 13.2286V8.66272H122.736Z" fill="#30445A"/>
<path d="M3.88347 5.54302C4.34406 4.71115 5.63064 3.26903 7.90517 3.17327C8.20079 3.1608 8.40068 2.87408 8.30601 2.59245C8.01634 1.73058 7.08083 0.204589 4.08127 0.0915422C3.84282 0.0824757 3.61659 0.205155 3.49992 0.413966C3.0922 1.14438 2.28507 3.28603 3.33716 5.5167C3.44472 5.74458 3.76138 5.76351 3.88347 5.54302Z" fill="#30445A"/>
<path d="M26.6709 5.54302C26.2102 4.71115 24.9237 3.26903 22.6492 3.17327C22.3536 3.1608 22.1536 2.87408 22.2484 2.59245C22.5381 1.73058 23.4735 0.204589 26.4731 0.0915422C26.7115 0.0824757 26.9377 0.205155 27.0545 0.413966C27.4621 1.14438 28.2692 3.28603 27.2173 5.5167C27.1095 5.74458 26.793 5.76351 26.6709 5.54302Z" fill="#30445A"/>
<path d="M12.1845 12.7394C12.1615 12.801 12.1284 12.8553 12.0992 12.9127C11.8482 12.5375 11.4866 12.2321 11.0329 12.0615C10.3139 11.791 9.54438 11.9174 8.9607 12.3302C8.93305 12.0771 8.95553 11.8152 9.05051 11.5605C9.37457 10.6912 10.339 10.2505 11.2044 10.576C12.0697 10.9015 12.5086 11.8701 12.1845 12.7394ZM10.5595 6.99231C10.5024 6.9861 10.4445 6.98047 10.386 6.97525C4.53497 6.45674 0.119141 10.732 0.119141 10.732C0.119141 10.732 2.83287 15.8889 9.98415 16.5226C9.98415 16.5226 10.2243 15.6928 12.2172 14.5021C15.54 12.5166 14.4038 7.40611 10.5595 6.99231Z" fill="#30445A"/>
<path d="M21.2591 12.4011C20.6851 11.9747 19.9187 11.8303 19.1937 12.0837C18.7362 12.2436 18.3675 12.5404 18.1077 12.9096C18.0801 12.8517 18.0482 12.7966 18.0267 12.7344C17.7229 11.8577 18.1841 10.8997 19.0569 10.5947C19.9297 10.2896 20.8834 10.7529 21.1872 11.6295C21.2763 11.8864 21.2927 12.1488 21.2591 12.4011ZM19.8716 6.97481C19.8132 6.97988 19.7553 6.98552 19.6981 6.99161C15.8536 7.40266 14.7137 12.5123 18.0349 14.5002C20.027 15.6925 20.2665 16.5224 20.2665 16.5224C27.4184 15.894 30.1358 10.7389 30.1358 10.7389C30.1358 10.7389 25.7231 6.46061 19.8716 6.97481Z" fill="#30445A"/>
<path d="M15.1269 16.5226C13.888 16.5226 12.6523 17.2585 12.6523 18.8048C12.6523 19.0644 13.3484 19.0046 13.826 19.2228C14.0516 19.3259 14.3731 19.5698 14.5445 19.7049C14.7156 19.8399 14.9213 19.9076 15.1269 19.9081C15.3326 19.9076 15.5382 19.8399 15.7094 19.7049C15.8809 19.5698 16.2022 19.3259 16.4279 19.2228C16.9055 19.0046 17.6016 19.0644 17.6016 18.8048C17.6016 17.2585 16.3658 16.5226 15.1269 16.5226Z" fill="#30445A"/>
</svg>
