<svg width="69" height="70" viewBox="0 0 69 70" fill="none" xmlns="http://www.w3.org/2000/svg">
<path d="M7.30648 56.5646C2.79393 50.673 0.152788 43.2723 0.271411 35.2505C0.552249 16.2413 16.1245 1.19758 35.1328 1.54269C53.746 1.88067 68.7306 17.0746 68.7306 35.7685C68.7306 43.5729 66.1188 50.7672 61.7216 56.5254C61.4933 56.8242 61.0828 56.9107 60.7524 56.7311C53.3559 52.7118 44.2916 50.346 34.499 50.346C24.6872 50.346 15.6066 52.7211 8.20223 56.7547C7.8968 56.9211 7.51788 56.8407 7.30648 56.5646Z" fill="#F19B15"/>
<path d="M61.7449 56.4955C55.4916 64.703 45.614 70.0001 34.4994 70.0001C23.3848 70.0001 13.5072 64.703 7.25391 56.4955V41.9162C7.25391 41.1446 7.87944 40.519 8.65111 40.519H60.3477C61.1194 40.519 61.7449 41.1446 61.7449 41.9162V56.4955Z" fill="#FEF5E8"/>
<path d="M8.65111 40.519H14.1002C13.3285 40.519 12.703 41.1446 12.703 41.9162V62.1651C10.6775 60.4907 8.84798 58.5877 7.25391 56.4955V41.9162C7.25391 41.1446 7.87944 40.519 8.65111 40.519Z" fill="#FBE1B9"/>
<path d="M26.6739 56.5867V69.1016C20.8338 67.7361 15.5688 64.8753 11.3047 60.945V56.5867C11.3047 56.2009 11.6175 55.8881 12.0033 55.8881H25.9753C26.3611 55.8881 26.6739 56.2009 26.6739 56.5867ZM45.5362 58.6825H31.5642C31.1784 58.6825 30.8656 58.9953 30.8656 59.3811V69.8093C32.0592 69.9352 33.2713 69.9999 34.4983 69.9999C38.6213 69.9999 42.5741 69.271 46.2348 67.9349V59.3811C46.2348 58.9953 45.922 58.6825 45.5362 58.6825ZM25.9753 44.7104H12.0033C11.6175 44.7104 11.3047 45.0233 11.3047 45.4091V50.9979C11.3047 51.3836 11.6175 51.6965 12.0033 51.6965H25.9753C26.3611 51.6965 26.6739 51.3836 26.6739 50.9979V45.4091C26.6739 45.0233 26.3611 44.7104 25.9753 44.7104ZM56.9933 44.7104H31.5642C31.1784 44.7104 30.8656 45.0233 30.8656 45.4091V53.7923C30.8656 54.1781 31.1784 54.4909 31.5642 54.4909H56.9933C57.3791 54.4909 57.6919 54.1781 57.6919 53.7923V45.4091C57.6919 45.0233 57.3791 44.7104 56.9933 44.7104ZM56.7139 58.6825H51.125C50.7393 58.6825 50.4264 58.9953 50.4264 59.3811V66.0761C52.9593 64.7422 55.3046 63.1 57.4125 61.1997V59.3811C57.4125 58.9953 57.0996 58.6825 56.7139 58.6825Z" fill="#F19B15"/>
<path d="M33.3986 65.8455L14.3044 41.3967C6.33805 31.1964 7.22877 16.6569 16.3805 7.50519C26.3874 -2.50173 42.6119 -2.50173 52.6189 7.50519C61.7706 16.6569 62.6614 31.1964 54.695 41.3967L35.6008 65.8455C35.0415 66.5619 33.9579 66.5619 33.3986 65.8455Z" fill="#BE372C"/>
<path d="M52.6187 7.50511C44.4657 -0.647863 32.1861 -2.1574 22.5038 2.97439C12.8186 14.139 12.2748 30.7352 21.4988 42.546L37.6479 63.2238L54.6946 41.3966C62.6611 31.1963 61.7703 16.6568 52.6187 7.50511ZM34.4994 41.916C24.8537 41.916 17.0343 34.0967 17.0343 24.451C17.0343 14.8052 24.8537 6.98591 34.4994 6.98591C44.1452 6.98591 51.9645 14.8052 51.9645 24.451C51.9645 34.0967 44.1452 41.916 34.4994 41.916Z" fill="#DC4D41"/>
<path d="M35.5834 20.7444L33.3651 35.4117C33.2713 36.0313 32.7388 36.4893 32.1122 36.4893H25.6349C25.0082 36.4893 24.4756 36.0313 24.382 35.4117L22.1637 20.7444C22.1057 20.3611 22.4024 20.016 22.7902 20.016H34.957C35.3446 20.016 35.6414 20.3611 35.5834 20.7444ZM45.5532 12.5886C45.4942 12.5235 45.3859 12.564 45.3828 12.6518L45.1429 19.6061C45.133 19.8956 44.9191 20.1496 44.631 20.1793C44.2972 20.2137 44.012 19.9598 43.9991 19.6332L43.7924 14.397C43.7647 13.6972 43.531 13.021 43.1203 12.4536C43.0812 12.3996 43.0007 12.3996 42.9616 12.4536C42.551 13.021 42.3172 13.6972 42.2896 14.397L42.0839 19.6089C42.0724 19.8982 41.8577 20.1511 41.5696 20.1796C41.2357 20.2126 40.9512 19.9575 40.9399 19.6302L40.6991 12.6518C40.6961 12.564 40.5878 12.5236 40.5288 12.5886C39.2764 13.9723 38.4491 17.0572 38.4491 19.2026C38.4491 21.8455 39.7045 23.6486 41.4633 24.3106L42.1322 35.6327C42.1606 36.1138 42.5591 36.4893 43.041 36.4893C43.5229 36.4893 43.9212 36.1138 43.9497 35.6327L44.6187 24.3106C46.3777 23.6486 47.6329 21.8455 47.6329 19.2026C47.6329 17.0572 46.8056 13.9721 45.5532 12.5886ZM36.087 16.0587H35.3702C35.3811 16.0066 35.387 15.9527 35.387 15.8972C35.387 15.0381 34.6905 14.3415 33.8313 14.3415H32.7311V13.5096C32.7311 12.904 32.2402 12.4128 31.6345 12.4128C31.0288 12.4128 30.5378 12.9038 30.5378 13.5096V14.3415H23.8228C22.9637 14.3415 22.2672 15.0381 22.2672 15.8972C22.2672 15.9525 22.2731 16.0065 22.284 16.0587H21.5672C20.9228 16.0587 20.4004 16.581 20.4004 17.2254C20.4004 17.8698 20.9227 18.392 21.5672 18.392H36.0871C36.7315 18.392 37.2539 17.8696 37.2539 17.2254C37.2536 16.581 36.7313 16.0587 36.087 16.0587Z" fill="#FBE1B9"/>
<path d="M37.2542 17.2253C37.2542 17.8697 36.7319 18.3919 36.0874 18.3919H24.8621C24.2177 18.3919 23.6953 17.8695 23.6953 17.2253C23.6953 16.5809 24.2176 16.0586 24.8621 16.0586H25.5789C25.568 16.0065 25.5621 15.9526 25.5621 15.8971C25.5621 15.0379 26.2586 14.3414 27.1178 14.3414H33.8318C34.6909 14.3414 35.3874 15.0379 35.3874 15.8971C35.3874 15.9524 35.3815 16.0064 35.3706 16.0586H36.0874C36.7319 16.0586 37.2542 16.5809 37.2542 17.2253ZM34.9576 20.0159H25.02L26.5926 30.4136C26.8741 32.2753 28.4742 33.6517 30.357 33.6517C32.2399 33.6517 33.84 32.2754 34.1215 30.4136L35.584 20.7443C35.642 20.361 35.3452 20.0159 34.9576 20.0159ZM45.5545 12.5893C45.4952 12.5238 45.3864 12.5634 45.3834 12.6517L45.1427 19.6301C45.1321 19.9381 44.8793 20.1823 44.5711 20.1823C44.264 20.1823 44.0118 19.9398 43.9996 19.6329L43.793 14.3968C43.7653 13.6969 43.5316 13.0208 43.1209 12.4534C43.0818 12.3993 43.0013 12.3993 42.9622 12.4534C42.5516 13.0208 42.3178 13.6969 42.2902 14.3968L42.0835 19.6329C42.0714 19.9398 41.8192 20.1823 41.5121 20.1823C41.2038 20.1823 40.9511 19.9381 40.9405 19.6301L40.7001 12.6633C39.913 13.9406 39.4295 15.6028 39.4295 17.2429C39.4295 20.6251 41.4854 22.6319 44.0214 22.6319C45.3593 22.6319 46.5635 22.0733 47.4028 21.049C47.5525 20.491 47.6335 19.8738 47.6335 19.2025C47.6335 17.0575 46.8065 13.9733 45.5545 12.5893Z" fill="#FEF5E8"/>
</svg>
