<svg width="24" height="24" viewBox="0 0 24 24" fill="none" xmlns="http://www.w3.org/2000/svg">
<path d="M19 11.0001H5C3.89543 11.0001 3 11.8955 3 13.0001V20.0001C3 21.1046 3.89543 22.0001 5 22.0001H19C20.1046 22.0001 21 21.1046 21 20.0001V13.0001C21 11.8955 20.1046 11.0001 19 11.0001Z" stroke="#33495D" stroke-width="2" stroke-linecap="round" stroke-linejoin="round"/>
<path d="M7 11.0001V7.00006C7 5.67398 7.52678 4.40221 8.46447 3.46453C9.40215 2.52685 10.6739 2.00006 12 2.00006C13.3261 2.00006 14.5979 2.52685 15.5355 3.46453C16.4732 4.40221 17 5.67398 17 7.00006V11.0001" stroke="#33495D" stroke-width="2" stroke-linecap="round" stroke-linejoin="round"/>
</svg>
