<svg width="46" height="30" viewBox="0 0 46 30" fill="none" xmlns="http://www.w3.org/2000/svg">
<g clip-path="url(#clip0_2114_3293)">
<path d="M5.74464 8.27203C6.44756 7.00988 8.41107 4.82183 11.8823 4.67654C12.3335 4.65762 12.6385 4.22259 12.494 3.7953C12.052 2.48763 10.6243 0.172337 6.04651 0.000818253C5.68261 -0.0129385 5.33735 0.173197 5.1593 0.490012C4.53705 1.59822 3.30527 4.84763 4.9109 8.23209C5.07505 8.57784 5.55832 8.60655 5.74464 8.27203Z" fill="#F6911C"/>
<path d="M40.52 8.27203C39.817 7.00988 37.8535 4.82183 34.3824 4.67654C33.9312 4.65762 33.626 4.22259 33.7706 3.7953C34.2128 2.48763 35.6403 0.172337 40.2182 0.000818253C40.582 -0.0129385 40.9272 0.173197 41.1055 0.490012C41.7275 1.59822 42.9592 4.84763 41.3539 8.23209C41.1894 8.57784 40.7064 8.60655 40.52 8.27203Z" fill="#F6911C"/>
<path d="M18.4134 19.1905C18.3783 19.284 18.3278 19.3665 18.2832 19.4535C17.9002 18.8842 17.3482 18.4209 16.6559 18.162C15.5587 17.7516 14.3842 17.9434 13.4934 18.5697C13.4512 18.1857 13.4855 17.7884 13.6305 17.4018C14.1251 16.083 15.5968 15.4144 16.9176 15.9082C18.2382 16.402 18.908 17.8717 18.4134 19.1905ZM15.9335 10.4708C15.8462 10.4614 15.7579 10.4529 15.6686 10.445C6.73916 9.65826 0 16.1448 0 16.1448C0 16.1448 4.14153 23.9692 15.0554 24.9307C15.0554 24.9307 15.4219 23.6716 18.4634 21.8649C23.5344 18.8525 21.8004 11.0987 15.9335 10.4708Z" fill="#F6911C"/>
<path d="M32.2624 18.6772C31.3863 18.0302 30.2167 17.8111 29.1103 18.1956C28.412 18.4383 27.8494 18.8885 27.4529 19.4486C27.4107 19.3608 27.362 19.2772 27.3293 19.1828C26.8657 17.8527 27.5695 16.3992 28.9015 15.9364C30.2335 15.4735 31.689 16.1764 32.1526 17.5065C32.2887 17.8962 32.3136 18.2944 32.2624 18.6772ZM30.1448 10.4442C30.0557 10.4519 29.9674 10.4604 29.88 10.4697C24.0128 11.0933 22.2731 18.8458 27.3418 21.862C30.382 23.671 30.7475 24.9302 30.7475 24.9302C41.6623 23.9767 45.8093 16.1552 45.8093 16.1552C45.8093 16.1552 39.075 9.66401 30.1448 10.4442Z" fill="#F6911C"/>
<path d="M22.9035 24.9308C21.0128 24.9308 19.127 26.0472 19.127 28.3934C19.127 28.7872 20.1893 28.6965 20.9181 29.0275C21.2625 29.184 21.753 29.5541 22.0147 29.7591C22.2758 29.9638 22.5897 30.0665 22.9035 30.0674C23.2173 30.0665 23.5312 29.9638 23.7925 29.7591C24.0542 29.5541 24.5446 29.184 24.889 29.0275C25.6178 28.6965 26.6803 28.7872 26.6803 28.3934C26.6803 26.0472 24.7943 24.9308 22.9035 24.9308Z" fill="#F6911C"/>
</g>
<defs>
<clipPath id="clip0_2114_3293">
<rect width="45.8333" height="30" fill="white"/>
</clipPath>
</defs>
</svg>
