<svg width="71" height="70" viewBox="0 0 71 70" fill="none" xmlns="http://www.w3.org/2000/svg">
<g clip-path="url(#clip0_4277_37787)">
<path d="M1.14965 29.9984C1.37524 32.0565 3.04239 33.6643 5.10807 33.809C5.27897 33.821 5.44877 33.8331 5.61844 33.844C6.87803 33.9294 7.85721 34.9755 7.85721 36.2383V41.0117C7.85721 42.6175 9.69512 43.5287 10.9723 42.5561C13.3031 40.7806 16.404 38.1398 18.3066 35.4015C18.7568 34.753 19.5005 34.3751 20.2903 34.3795C26.148 34.409 32.0058 34.2207 37.8636 33.8089C39.4967 33.695 40.8834 32.6686 41.5011 31.225C41.6654 30.846 41.7749 30.4364 41.822 30.0081C42.6895 22.0834 42.6895 14.1577 41.822 6.232C41.5964 4.17602 39.9281 2.57586 37.8657 2.43121C29.1394 1.81899 20.414 1.69621 11.6888 2.06317C9.49592 2.15409 7.302 2.27672 5.10917 2.43121C3.04567 2.576 1.37633 4.17629 1.15075 6.23213C0.283267 14.1546 0.283267 22.0759 1.14965 29.9984Z" fill="#F19B15"/>
<path d="M69.8105 54.3991C69.5713 56.5819 67.8031 58.2873 65.612 58.4407C65.4308 58.4536 65.2507 58.4663 65.0706 58.4779C63.7346 58.5686 62.696 59.678 62.696 61.0175V66.0803C62.696 67.7834 60.7466 68.75 59.392 67.7183C56.9199 65.8352 53.631 63.0342 51.613 60.1299C51.1356 59.4421 50.3467 59.0413 49.509 59.046C43.296 59.0773 37.0831 58.8776 30.87 58.4407C29.1379 58.3199 27.6671 57.2313 27.012 55.7002C26.8376 55.2983 26.7216 54.8638 26.6715 54.4096C25.7514 46.0044 25.7514 37.5981 26.6715 29.1917C26.9108 27.0111 28.6802 25.3138 30.8677 25.1604C40.1233 24.511 49.3776 24.3808 58.6321 24.77C60.9579 24.8664 63.285 24.9966 65.6107 25.1604C67.7994 25.3136 69.5699 27.011 69.8092 29.1917C70.7294 37.5945 70.7294 45.9963 69.8105 54.3991Z" fill="#FFCD1E"/>
<path d="M42.5848 39.0379C42.5848 37.2257 41.6971 35.7515 40.606 35.7515C39.5147 35.7515 38.627 37.2258 38.627 39.0379C38.627 40.85 39.5147 42.3244 40.606 42.3244C41.6971 42.3244 42.5848 40.8501 42.5848 39.0379Z" fill="#33495D"/>
<path d="M55.8755 35.7515C54.7842 35.7515 53.8965 37.2258 53.8965 39.0379C53.8965 40.85 54.7842 42.3244 55.8755 42.3244C56.9666 42.3244 57.8544 40.85 57.8544 39.0379C57.8544 37.2258 56.9666 35.7515 55.8755 35.7515Z" fill="#33495D"/>
<path d="M55.1127 44.5802C54.5746 44.3538 53.9555 44.6056 53.7288 45.1432C52.7957 47.3567 50.6415 48.7869 48.2408 48.7869C45.8403 48.7869 43.686 47.3567 42.7528 45.1432C42.526 44.6056 41.9064 44.3537 41.3689 44.5804C40.8313 44.807 40.5792 45.4265 40.8059 45.9641C42.0703 48.9623 44.9886 50.8996 48.2407 50.8996C51.4931 50.8996 54.4115 48.9623 55.6754 45.9641C55.9023 45.4264 55.6502 44.8068 55.1127 44.5802Z" fill="#33495D"/>
<path d="M31.315 10.7083H7.43324C6.84986 10.7083 6.37695 10.2354 6.37695 9.65199C6.37695 9.06861 6.84986 8.5957 7.43324 8.5957H31.315C31.8984 8.5957 32.3713 9.06861 32.3713 9.65199C32.3713 10.2354 31.8984 10.7083 31.315 10.7083Z" fill="white"/>
<path d="M31.315 16.8938H7.43324C6.84986 16.8938 6.37695 16.4209 6.37695 15.8375C6.37695 15.2542 6.84986 14.7812 7.43324 14.7812H31.315C31.8984 14.7812 32.3713 15.2542 32.3713 15.8375C32.3713 16.4209 31.8984 16.8938 31.315 16.8938Z" fill="white"/>
<path d="M15.9545 23.0794H7.43324C6.84986 23.0794 6.37695 22.6065 6.37695 22.0231C6.37695 21.4397 6.84986 20.9668 7.43324 20.9668H15.9545C16.5379 20.9668 17.0108 21.4397 17.0108 22.0231C17.0108 22.6065 16.5379 23.0794 15.9545 23.0794Z" fill="white"/>
</g>
<defs>
<clipPath id="clip0_4277_37787">
<rect width="70" height="70" fill="white" transform="translate(0.5)"/>
</clipPath>
</defs>
</svg>
