<svg width="22" height="22" viewBox="0 0 22 22" fill="none" xmlns="http://www.w3.org/2000/svg">
<path d="M17 0H5C4.34339 0 3.69321 0.129329 3.08658 0.380603C2.47996 0.631876 1.92876 1.00017 1.46447 1.46447C0.526785 2.40215 1.04228e-07 3.67392 1.04228e-07 5V13C-0.000235151 14.1527 0.397784 15.27 1.12669 16.1629C1.85561 17.0558 2.87064 17.6695 4 17.9V20C3.99918 20.3954 4.11559 20.7822 4.33451 21.1115C4.55344 21.4408 4.86506 21.6978 5.23 21.85C5.47476 21.9486 5.73612 21.9995 6 22C6.52958 21.9978 7.03665 21.7856 7.41 21.41L10.83 18H17C17.6566 18 18.3068 17.8707 18.9134 17.6194C19.5201 17.3681 20.0713 16.9998 20.5355 16.5355C20.9998 16.0713 21.3681 15.5201 21.6194 14.9134C21.8707 14.3068 22 13.6566 22 13V5C22 4.34339 21.8707 3.69321 21.6194 3.08658C21.3681 2.47996 20.9998 1.92876 20.5355 1.46447C20.0713 1.00017 19.5201 0.631876 18.9134 0.380603C18.3068 0.129329 17.6566 0 17 0ZM20 13C20 13.7957 19.6839 14.5587 19.1213 15.1213C18.5587 15.6839 17.7957 16 17 16H10.41C10.1477 16.0011 9.89627 16.1053 9.71 16.29L6 20V17C6 16.7348 5.89465 16.4804 5.70711 16.2929C5.51957 16.1054 5.26522 16 5 16C4.20435 16 3.44129 15.6839 2.87868 15.1213C2.31607 14.5587 2 13.7957 2 13V5C2 4.20435 2.31607 3.44129 2.87868 2.87868C3.44129 2.31607 4.20435 2 5 2H17C17.7957 2 18.5587 2.31607 19.1213 2.87868C19.6839 3.44129 20 4.20435 20 5V13ZM14.76 6.77L13.06 6.52L12.3 5C12.1802 4.75752 11.995 4.55338 11.7653 4.41064C11.5355 4.26791 11.2705 4.19226 11 4.19226C10.7295 4.19226 10.4645 4.26791 10.2348 4.41064C10.005 4.55338 9.8198 4.75752 9.7 5L8.94 6.52L7.24 6.77C6.96993 6.80778 6.71629 6.92199 6.50899 7.09917C6.30169 7.27635 6.14937 7.50911 6.07 7.77001C5.98605 8.0281 5.97622 8.30458 6.04163 8.56799C6.10704 8.8314 6.24506 9.07116 6.44 9.26001L7.67 10.46L7.38 12.15C7.34002 12.4181 7.37707 12.6921 7.48684 12.94C7.59662 13.1879 7.77458 13.3994 8 13.55C8.25162 13.7284 8.55157 13.8261 8.86 13.83C9.09378 13.8282 9.32364 13.7699 9.53 13.66L11.05 12.86L12.57 13.66C12.8095 13.785 13.0791 13.8405 13.3485 13.8205C13.6179 13.8004 13.8763 13.7055 14.0946 13.5464C14.3129 13.3874 14.4825 13.1705 14.5841 12.9202C14.6858 12.6699 14.7156 12.3963 14.67 12.13L14.38 10.44L15.61 9.24001C15.8049 9.05116 15.943 8.8114 16.0084 8.54799C16.0738 8.28458 16.064 8.0081 15.98 7.75C15.8939 7.48577 15.7326 7.25236 15.516 7.07832C15.2993 6.90427 15.0366 6.79713 14.76 6.77ZM12.56 9.37001C12.4427 9.48344 12.355 9.62385 12.3044 9.77898C12.2539 9.93411 12.2421 10.0993 12.27 10.26L12.46 11.37L11.46 10.85C11.3195 10.7712 11.1611 10.7298 11 10.7298C10.8389 10.7298 10.6805 10.7712 10.54 10.85L9.54 11.37L9.73 10.26C9.75794 10.0993 9.74612 9.93411 9.69557 9.77898C9.64502 9.62385 9.55728 9.48344 9.44 9.37001L8.63 8.59L9.75 8.42C9.90924 8.39697 10.0606 8.33585 10.1911 8.24184C10.3217 8.14783 10.4277 8.02371 10.5 7.88L11 6.88L11.5 7.88C11.5724 8.02371 11.6783 8.14783 11.8089 8.24184C11.9395 8.33585 12.0908 8.39697 12.25 8.42L13.37 8.59L12.56 9.37001Z" fill="#F19B15"/>
</svg>
