<svg width="52" height="52" viewBox="0 0 52 52" fill="none" xmlns="http://www.w3.org/2000/svg">
<g filter="url(#filter0_d_2138_6189)">
<circle cx="26" cy="22" r="16" fill="white"/>
<circle cx="26" cy="22" r="15" stroke="#F19B15" stroke-width="2"/>
</g>
<g clip-path="url(#clip0_2138_6189)">
<path d="M18.5062 18.6095C18.8129 18.0588 19.6697 17.104 21.1844 17.0406C21.3813 17.0323 21.5144 16.8425 21.4514 16.656C21.2585 16.0854 20.6355 15.0751 18.6379 15.0003C18.4791 14.9943 18.3285 15.0755 18.2508 15.2137C17.9792 15.6973 17.4417 17.1152 18.1424 18.5921C18.214 18.743 18.4249 18.7555 18.5062 18.6095Z" fill="#F6911C"/>
<path d="M33.6817 18.6095C33.3749 18.0588 32.5181 17.104 31.0035 17.0406C30.8066 17.0323 30.6734 16.8425 30.7365 16.656C30.9295 16.0854 31.5524 15.0751 33.55 15.0003C33.7088 14.9943 33.8594 15.0755 33.9372 15.2137C34.2086 15.6973 34.7461 17.1152 34.0456 18.5921C33.9738 18.743 33.763 18.7555 33.6817 18.6095Z" fill="#F6911C"/>
<path d="M24.0349 23.3741C24.0196 23.4149 23.9976 23.4509 23.9781 23.4889C23.811 23.2405 23.5701 23.0383 23.268 22.9253C22.7892 22.7462 22.2767 22.8299 21.888 23.1032C21.8696 22.9356 21.8846 22.7623 21.9479 22.5936C22.1637 22.0181 22.8059 21.7263 23.3822 21.9418C23.9585 22.1573 24.2508 22.7986 24.0349 23.3741ZM22.9528 19.5692C22.9147 19.5651 22.8762 19.5613 22.8372 19.5579C18.9407 19.2146 16 22.0451 16 22.0451C16 22.0451 17.8072 25.4593 22.5696 25.8789C22.5696 25.8789 22.7296 25.3295 24.0567 24.5411C26.2695 23.2266 25.5129 19.8431 22.9528 19.5692Z" fill="#F6911C"/>
<path d="M30.0773 23.1501C29.695 22.8678 29.1846 22.7722 28.7018 22.94C28.3971 23.0458 28.1516 23.2423 27.9785 23.4867C27.9601 23.4484 27.9389 23.4119 27.9246 23.3707C27.7223 22.7903 28.0295 22.1561 28.6107 21.9541C29.1919 21.7521 29.827 22.0588 30.0293 22.6392C30.0887 22.8093 30.0996 22.983 30.0773 23.1501ZM29.1532 19.5575C29.1143 19.5609 29.0758 19.5646 29.0377 19.5686C26.4774 19.8408 25.7183 23.2237 27.9301 24.5398C29.2567 25.3292 29.4162 25.8787 29.4162 25.8787C34.179 25.4626 35.9886 22.0496 35.9886 22.0496C35.9886 22.0496 33.05 19.2171 29.1532 19.5575Z" fill="#F6911C"/>
<path d="M25.9937 25.8789C25.1686 25.8789 24.3457 26.3661 24.3457 27.3899C24.3457 27.5617 24.8093 27.5221 25.1273 27.6666C25.2776 27.7349 25.4916 27.8964 25.6058 27.9858C25.7198 28.0752 25.8567 28.12 25.9937 28.1204C26.1306 28.12 26.2675 28.0752 26.3816 27.9858C26.4958 27.8964 26.7098 27.7349 26.86 27.6666C27.1781 27.5221 27.6417 27.5617 27.6417 27.3899C27.6417 26.3661 26.8187 25.8789 25.9937 25.8789Z" fill="#F6911C"/>
</g>
<defs>
<filter id="filter0_d_2138_6189" x="0" y="0" width="52" height="52" filterUnits="userSpaceOnUse" color-interpolation-filters="sRGB">
<feFlood flood-opacity="0" result="BackgroundImageFix"/>
<feColorMatrix in="SourceAlpha" type="matrix" values="0 0 0 0 0 0 0 0 0 0 0 0 0 0 0 0 0 0 127 0" result="hardAlpha"/>
<feOffset dy="4"/>
<feGaussianBlur stdDeviation="5"/>
<feComposite in2="hardAlpha" operator="out"/>
<feColorMatrix type="matrix" values="0 0 0 0 0.945098 0 0 0 0 0.607843 0 0 0 0 0.0823529 0 0 0 0.3 0"/>
<feBlend mode="normal" in2="BackgroundImageFix" result="effect1_dropShadow_2138_6189"/>
<feBlend mode="normal" in="SourceGraphic" in2="effect1_dropShadow_2138_6189" result="shape"/>
</filter>
<clipPath id="clip0_2138_6189">
<rect width="20" height="13.0909" fill="white" transform="translate(16 15)"/>
</clipPath>
</defs>
</svg>
