<svg width="30" height="30" viewBox="0 0 30 30" fill="none" xmlns="http://www.w3.org/2000/svg">
<path d="M15 10.6641C13.5461 10.6641 12.3633 9.48129 12.3633 8.02734C12.3633 6.5734 13.5461 5.39062 15 5.39062C16.4539 5.39062 17.6367 6.5734 17.6367 8.02734C17.6367 9.48129 16.4539 10.6641 15 10.6641ZM15 7.14844C14.5159 7.14844 14.1211 7.54242 14.1211 8.02734C14.1211 8.51227 14.5159 8.90625 15 8.90625C15.4841 8.90625 15.8789 8.51227 15.8789 8.02734C15.8789 7.54242 15.4841 7.14844 15 7.14844Z" fill="#FABE2C"/>
<path d="M15.8789 8.02734C15.8789 8.51227 15.4841 8.90625 15 8.90625V10.6641C16.4539 10.6641 17.6367 9.48129 17.6367 8.02734C17.6367 6.5734 16.4539 5.39062 15 5.39062V7.14844C15.4841 7.14844 15.8789 7.54242 15.8789 8.02734Z" fill="#FF9100"/>
<path d="M15 29.9999C14.7322 29.9999 14.4799 29.8789 14.3133 29.6703L11.977 26.7494L8.2623 27.1632C7.99277 27.1881 7.73361 27.0997 7.54307 26.9108C7.35422 26.722 7.26152 26.4576 7.2907 26.1924L7.70268 22.4751L4.78266 20.1397C4.575 19.9723 4.45312 19.7199 4.45312 19.453C4.45312 19.186 4.575 18.9337 4.78266 18.7663L7.70268 16.4309L7.2907 12.7136C7.26152 12.4484 7.35422 12.184 7.54307 11.9952C7.73361 11.8063 7.99283 11.7171 8.2623 11.7428L11.977 12.1557L14.3133 9.2357C14.6464 8.81857 15.3536 8.81857 15.6867 9.2357L18.023 12.1557L21.7377 11.7428C22.0038 11.7162 22.2664 11.8063 22.4569 11.9952C22.6458 12.184 22.7385 12.4483 22.7093 12.7136L22.2973 16.4309L25.2173 18.7663C25.425 18.9337 25.5469 19.186 25.5469 19.453C25.5469 19.7199 25.425 19.9723 25.2173 20.1397L22.2973 22.4751L22.7093 26.1924C22.7385 26.4576 22.6458 26.722 22.4569 26.9108C22.2664 27.0997 22.0038 27.1889 21.7377 27.1632L18.023 26.7494L15.6867 29.6703C15.5201 29.8789 15.2678 29.9999 15 29.9999Z" fill="#FED843"/>
<path d="M15.6867 29.6702L18.023 26.7494L21.7377 27.1631C22.0038 27.1889 22.2664 27.0996 22.4569 26.9108C22.6458 26.7219 22.7385 26.4576 22.7093 26.1924L22.2973 22.475L25.2173 20.1396C25.425 19.9722 25.5469 19.7199 25.5469 19.453C25.5469 19.186 25.425 18.9337 25.2173 18.7663L22.2973 16.4309L22.7093 12.7136C22.7385 12.4484 22.6458 12.184 22.4569 11.9952C22.2664 11.8063 22.0038 11.7162 21.7377 11.7428L18.023 12.1556L15.6867 9.23568C15.5201 9.02709 15.2601 8.92285 15 8.92285V29.9998C15.2678 29.9998 15.5201 29.8788 15.6867 29.6702Z" fill="#FABE2C"/>
<path d="M22.0312 0H19.3945L18.5156 1.75781L17.6367 0H12.3633L11.4844 1.75781L10.6055 0H7.96875C7.4765 0 7.08984 0.38666 7.08984 0.878906V6.26953C7.08984 6.76166 7.4765 7.14844 7.96875 7.14844H10.6055L11.4844 5.39062L12.3633 7.14844H17.6367L18.5156 5.39062L19.3945 7.14844H22.0312C22.5235 7.14844 22.9102 6.76166 22.9102 6.26953V0.878906C22.9102 0.38666 22.5235 0 22.0312 0Z" fill="#FF6C6C"/>
<path d="M22.0312 0H19.3945L18.5156 1.75781L17.6367 0H15V7.14844H17.6367L18.5156 5.39062L19.3945 7.14844H22.0312C22.5235 7.14844 22.9102 6.76166 22.9102 6.26953V0.878906C22.9102 0.38666 22.5235 0 22.0312 0Z" fill="#E63950"/>
<path d="M16.4028 22.7225L15.0003 21.9938L13.5978 22.7225C13.3043 22.8744 12.9455 22.8486 12.676 22.6538C12.4065 22.4581 12.2709 22.1268 12.3258 21.7989L12.5833 20.2377C12.1204 19.591 10.9556 19.0978 11.2393 18.2301C11.3423 17.9142 11.6152 17.6824 11.9448 17.6327L13.5069 17.3975L14.2141 15.9839C14.5128 15.3882 15.4878 15.3882 15.7866 15.9839L16.4938 17.3975L18.0559 17.6327C18.3855 17.6825 18.6584 17.9142 18.7614 18.2301C18.8644 18.5468 18.7803 18.8944 18.5417 19.1278L17.4173 20.2376L17.6749 21.7989C17.7298 22.1268 17.5942 22.4581 17.3246 22.6538C17.0569 22.8478 16.6988 22.8765 16.4028 22.7225Z" fill="#FABE2C"/>
<path d="M10.6055 0H12.3633V7.14844H10.6055V0Z" fill="#F0F7FF"/>
<path d="M17.6367 0H19.3945V7.14844H17.6367V0Z" fill="#DFE7F4"/>
<path d="M16.4025 22.7225C16.6985 22.8765 17.0566 22.8478 17.3243 22.6538C17.5938 22.4581 17.7294 22.1268 17.6745 21.7989L17.417 20.2376L18.5413 19.1279C18.7799 18.8944 18.8641 18.5468 18.7611 18.2301C18.6581 17.9142 18.3851 17.6825 18.0555 17.6327L16.4934 17.3975L15.7862 15.9839C15.6369 15.6861 15.3185 15.5371 15 15.5371V21.9937L16.4025 22.7225Z" fill="#FF9100"/>
</svg>
