<svg width="24" height="24" viewBox="0 0 24 24" fill="none" xmlns="http://www.w3.org/2000/svg">
<path d="M5.60005 13.6C6.48373 13.6 7.2001 12.8836 7.2001 11.9999C7.2001 11.1163 6.48373 10.3999 5.60005 10.3999C4.71637 10.3999 4 11.1163 4 11.9999C4 12.8836 4.71637 13.6 5.60005 13.6Z" fill="#33495D"/>
<path d="M12.0004 13.6C12.8841 13.6 13.6005 12.8836 13.6005 11.9999C13.6005 11.1163 12.8841 10.3999 12.0004 10.3999C11.1168 10.3999 10.4004 11.1163 10.4004 11.9999C10.4004 12.8836 11.1168 13.6 12.0004 13.6Z" fill="#33495D"/>
<path d="M18.3999 13.6C19.2835 13.6 19.9999 12.8836 19.9999 11.9999C19.9999 11.1163 19.2835 10.3999 18.3999 10.3999C17.5162 10.3999 16.7998 11.1163 16.7998 11.9999C16.7998 12.8836 17.5162 13.6 18.3999 13.6Z" fill="#33495D"/>
</svg>
