<svg width="49" height="54" viewBox="0 0 49 54" fill="none" xmlns="http://www.w3.org/2000/svg">
<g filter="url(#filter0_d_2300_7252)">
<path d="M37.2343 27.2504C38.347 25.1609 38.9273 22.8292 38.9238 20.4619C38.9238 12.4747 32.4491 6 24.4619 6C16.4747 6 10 12.4747 10 20.4619C9.99417 23.8734 11.2001 27.1762 13.4028 29.7813L13.4198 29.8025C13.4258 29.8076 13.4309 29.8145 13.4351 29.8196H13.4028L21.9847 38.9305C22.3028 39.2682 22.6866 39.5373 23.1126 39.7212C23.5385 39.9051 23.9975 40 24.4615 40C24.9254 40 25.3845 39.9051 25.8104 39.7212C26.2363 39.5373 26.6201 39.2682 26.9383 38.9305L35.521 29.8196H35.4886L35.5023 29.8034L35.504 29.8017C35.5652 29.7285 35.6265 29.6554 35.6869 29.5805C36.2769 28.8553 36.7946 28.0755 37.2343 27.2504Z" fill="#F19B15"/>
</g>
<ellipse cx="24.6201" cy="20.3822" rx="10.54" ry="10.54" fill="white"/>
<g clip-path="url(#clip0_2300_7252)">
<path d="M18.3949 18.0155C18.6556 17.5474 19.3839 16.7358 20.6714 16.6819C20.8388 16.6749 20.9519 16.5135 20.8983 16.3551C20.7343 15.87 20.2048 15.0113 18.5069 14.9476C18.3719 14.9425 18.2438 15.0116 18.1778 15.1291C17.947 15.5401 17.4901 16.7454 18.0857 18.0007C18.1465 18.1289 18.3258 18.1396 18.3949 18.0155Z" fill="#F6911C"/>
<path d="M31.2932 18.0155C31.0325 17.5474 30.3042 16.7358 29.0167 16.6819C28.8494 16.6749 28.7362 16.5135 28.7898 16.3551C28.9538 15.87 29.4833 15.0113 31.1813 14.9476C31.3162 14.9425 31.4443 15.0116 31.5104 15.1291C31.7411 15.5401 32.1979 16.7454 31.6025 18.0007C31.5415 18.1289 31.3624 18.1396 31.2932 18.0155Z" fill="#F6911C"/>
<path d="M23.0934 22.0653C23.0803 22.1 23.0616 22.1306 23.0451 22.1629C22.903 21.9517 22.6983 21.7799 22.4415 21.6838C22.0345 21.5316 21.5989 21.6028 21.2685 21.8351C21.2529 21.6926 21.2656 21.5453 21.3193 21.4019C21.5028 20.9127 22.0487 20.6647 22.5386 20.8479C23.0284 21.0311 23.2768 21.5762 23.0934 22.0653ZM22.1735 18.8311C22.1412 18.8276 22.1084 18.8245 22.0753 18.8215C18.7633 18.5297 16.2637 20.9356 16.2637 20.9356C16.2637 20.9356 17.7998 23.8378 21.8478 24.1944C21.8478 24.1944 21.9838 23.7274 23.1119 23.0573C24.9928 21.9399 24.3496 19.064 22.1735 18.8311Z" fill="#F6911C"/>
<path d="M28.2296 21.875C27.9047 21.635 27.4708 21.5537 27.0605 21.6964C26.8015 21.7864 26.5928 21.9533 26.4457 22.1611C26.4301 22.1285 26.412 22.0975 26.3999 22.0625C26.2279 21.5692 26.489 21.0301 26.983 20.8584C27.4771 20.6867 28.0169 20.9474 28.1889 21.4408C28.2394 21.5853 28.2486 21.733 28.2296 21.875ZM27.4442 18.8213C27.4111 18.8241 27.3784 18.8273 27.346 18.8307C25.1698 19.0621 24.5245 21.9375 26.4045 23.0562C27.5322 23.7272 27.6677 24.1943 27.6677 24.1943C31.7162 23.8406 33.2543 20.9396 33.2543 20.9396C33.2543 20.9396 30.7565 18.5319 27.4442 18.8213Z" fill="#F6911C"/>
<path d="M24.7592 24.1944C24.0579 24.1944 23.3584 24.6085 23.3584 25.4787C23.3584 25.6248 23.7524 25.5911 24.0227 25.7139C24.1505 25.7719 24.3324 25.9092 24.4295 25.9853C24.5263 26.0612 24.6428 26.0993 24.7592 26.0996C24.8756 26.0993 24.992 26.0612 25.0889 25.9853C25.186 25.9092 25.3678 25.7719 25.4956 25.7139C25.7659 25.5911 26.16 25.6248 26.16 25.4787C26.16 24.6085 25.4605 24.1944 24.7592 24.1944Z" fill="#F6911C"/>
</g>
<defs>
<filter id="filter0_d_2300_7252" x="0" y="0" width="48.9238" height="54" filterUnits="userSpaceOnUse" color-interpolation-filters="sRGB">
<feFlood flood-opacity="0" result="BackgroundImageFix"/>
<feColorMatrix in="SourceAlpha" type="matrix" values="0 0 0 0 0 0 0 0 0 0 0 0 0 0 0 0 0 0 127 0" result="hardAlpha"/>
<feOffset dy="4"/>
<feGaussianBlur stdDeviation="5"/>
<feComposite in2="hardAlpha" operator="out"/>
<feColorMatrix type="matrix" values="0 0 0 0 0.945098 0 0 0 0 0.607843 0 0 0 0 0.0823529 0 0 0 0.4 0"/>
<feBlend mode="normal" in2="BackgroundImageFix" result="effect1_dropShadow_2300_7252"/>
<feBlend mode="normal" in="SourceGraphic" in2="effect1_dropShadow_2300_7252" result="shape"/>
</filter>
<clipPath id="clip0_2300_7252">
<rect width="17" height="11.1273" fill="white" transform="translate(16.2637 14.9474)"/>
</clipPath>
</defs>
</svg>
