<svg width="18" height="18" viewBox="0 0 18 18" fill="none" xmlns="http://www.w3.org/2000/svg">
<path d="M10.8555 11.4982C10.427 11.7475 9.93765 11.8788 9.44031 11.8788C7.88172 11.8788 6.61328 10.6108 6.61328 9.05268C6.61328 7.49455 7.88125 6.22658 9.44031 6.22658C9.93765 6.22658 10.4266 6.3583 10.8559 6.60674C11.0809 6.73705 11.3669 6.66065 11.4967 6.43611C11.6266 6.21252 11.5501 5.92518 11.3261 5.7958C10.7542 5.46439 10.1022 5.28955 9.44031 5.28955C7.36468 5.28955 5.67578 6.97799 5.67578 9.05315C5.67578 11.1283 7.36468 12.8167 9.44031 12.8167C10.1031 12.8167 10.7556 12.6414 11.3266 12.3082C11.5501 12.1783 11.6261 11.891 11.4962 11.6674C11.3664 11.4438 11.0795 11.3678 10.8555 11.4982Z" fill="#F19B15"/>
<path d="M9 7.59375H5.25C4.99125 7.59375 4.78125 7.80328 4.78125 8.0625C4.78125 8.32172 4.99125 8.53125 5.25 8.53125H9C9.25875 8.53125 9.46875 8.32172 9.46875 8.0625C9.46875 7.80328 9.25875 7.59375 9 7.59375Z" fill="#F19B15"/>
<path d="M9 9.46875H5.25C4.99125 9.46875 4.78125 9.67828 4.78125 9.9375C4.78125 10.1967 4.99125 10.4062 5.25 10.4062H9C9.25875 10.4062 9.46875 10.1967 9.46875 9.9375C9.46875 9.67828 9.25875 9.46875 9 9.46875Z" fill="#F19B15"/>
<path d="M9 1.5C4.86469 1.5 1.5 4.86469 1.5 9C1.5 13.1353 4.86469 16.5 9 16.5C13.1353 16.5 16.5 13.1353 16.5 9C16.5 4.86469 13.1353 1.5 9 1.5ZM9 15.5625C5.38125 15.5625 2.4375 12.6187 2.4375 9C2.4375 5.38125 5.38125 2.4375 9 2.4375C12.6187 2.4375 15.5625 5.38125 15.5625 9C15.5625 12.6187 12.6187 15.5625 9 15.5625Z" fill="#F19B15"/>
</svg>
