<svg width="30" height="30" viewBox="0 0 30 30" fill="none" xmlns="http://www.w3.org/2000/svg">
<g clip-path="url(#clip0_2426_10302)">
<path d="M18.5161 30.0003C18.4852 30.0003 18.4542 29.9986 18.4234 29.9951C18.0697 29.9582 17.7744 29.711 17.6731 29.3702L15.4928 21.8691C15.3726 21.4597 15.5632 21.0228 15.946 20.833C16.1022 20.7549 16.2396 20.6665 16.3752 20.5549C16.6001 20.3695 16.9005 20.3095 17.1803 20.3901C17.7366 20.5541 18.2327 20.5463 18.6499 20.3695C19.0962 20.1892 19.4619 19.8321 19.7452 19.3051C19.8825 19.051 20.1349 18.8802 20.4199 18.8475C21.0345 18.7788 21.5101 18.5797 21.8328 18.2561C21.9032 18.1865 21.977 18.1007 22.0371 18.0157C22.2328 17.7436 22.5624 17.6071 22.8989 17.6595C23.2302 17.7153 23.4998 17.9548 23.5959 18.2766L26.1093 26.7678C26.2106 27.1094 26.0956 27.4777 25.8192 27.7018C25.5428 27.9241 25.1548 27.9601 24.8458 27.7893L21.2406 25.8203L19.2886 29.5402C19.134 29.826 18.8354 30.0003 18.5161 30.0003Z" fill="#E63950"/>
<path d="M11.5203 29.9999C11.2009 29.9999 10.9022 29.8256 10.7477 29.5398L8.79568 25.82L5.19047 27.7891C4.88147 27.9599 4.49173 27.9239 4.21708 27.7007C3.94066 27.4767 3.82563 27.1084 3.92695 26.7667L6.44203 18.3107C6.5382 17.9889 6.80945 17.7494 7.14077 17.6944C7.46694 17.6369 7.80517 17.7768 8.00089 18.0506C8.05756 18.1313 8.11422 18.2017 8.17259 18.2592C8.47473 18.5726 8.92284 18.7631 9.54944 18.8507C9.8207 18.8876 10.0593 19.0498 10.1932 19.2876C10.4902 19.8104 10.849 20.1623 11.2611 20.3339C11.6971 20.528 12.2036 20.5314 12.7787 20.3572C13.0619 20.2713 13.3692 20.3339 13.5958 20.5228C13.7349 20.6387 13.8997 20.7468 14.116 20.8636C14.4834 21.061 14.6619 21.4885 14.5435 21.8877L12.3632 29.3707C12.2619 29.7114 11.9649 29.9578 11.6113 29.9947C11.5804 29.9982 11.5512 29.9999 11.5203 29.9999Z" fill="#FF6C6C"/>
<path d="M15.001 22.851C14.2128 22.851 13.5109 22.5907 12.8447 22.1522C12.0241 22.3256 11.2533 22.2552 10.5648 21.9488C9.91414 21.6775 9.34766 21.1959 8.88924 20.5195C8.06176 20.3436 7.41283 20.0045 6.91497 19.4895C6.37961 18.9457 6.05344 18.2361 5.90038 17.4885C5.2068 17.0319 4.71239 16.4465 4.42913 15.7435C4.15271 15.0833 4.08919 14.328 4.24202 13.5443C3.79906 12.8713 3.57422 12.1597 3.57422 11.424C3.57422 10.6858 3.80944 9.96303 4.27296 9.26945C4.10302 8.44455 4.16994 7.67971 4.47554 6.9904C4.74679 6.33802 5.22918 5.77148 5.90559 5.31223C6.08069 4.48475 6.42062 3.83582 6.93565 3.33796C7.44723 2.82721 8.12194 2.48388 8.93911 2.32161C9.39577 1.62973 9.97948 1.13703 10.6816 0.852939C11.3426 0.578225 12.098 0.511304 12.8808 0.664952C14.225 -0.223473 15.7719 -0.230329 17.1556 0.696713C17.9745 0.527595 18.7539 0.597152 19.4354 0.898412C20.0878 1.17055 20.6544 1.65206 21.1127 2.32847C21.9402 2.50444 22.5891 2.8435 23.087 3.35853C23.5986 3.87186 23.9403 4.54569 24.1033 5.36028C24.7952 5.81695 25.2896 6.40236 25.5729 7.10455C25.8493 7.76468 25.9128 8.52002 25.76 9.30373C26.203 9.97668 26.4278 10.6883 26.4278 11.424C26.4278 12.1622 26.1926 12.885 25.7291 13.5786C25.899 14.4035 25.8321 15.1683 25.5265 15.8576C25.2552 16.5108 24.7711 17.0782 24.093 17.5375C23.8995 18.426 23.5729 18.995 23.0801 19.4971C22.5564 20.019 21.88 20.3641 21.0629 20.5263C20.6062 21.2173 20.0225 21.7109 19.3203 21.995C18.6611 22.2722 17.9092 22.3375 17.1229 22.183C16.4819 22.5946 15.7717 22.851 15.001 22.851Z" fill="#FABE2C"/>
<path d="M15.002 22.851C15.7728 22.851 16.4831 22.5945 17.1239 22.1832C17.9102 22.3377 18.6621 22.2724 19.3214 21.9952C20.0235 21.711 20.6072 21.2175 21.0639 20.5265C21.881 20.3642 22.5575 20.0192 23.0811 19.4973C23.5716 18.9975 23.8994 18.431 24.094 17.5376C24.7721 17.0784 25.2563 16.511 25.5275 15.8578C25.8331 15.1685 25.9 14.4037 25.7301 13.5787C26.1936 12.8851 26.4288 12.1624 26.4288 11.4241C26.4288 10.6885 26.2039 9.97691 25.761 9.3039C25.9138 8.52019 25.8503 7.76479 25.5739 7.10472C25.2907 6.40259 24.7962 5.81712 24.1044 5.36046C23.9413 4.54587 23.5996 3.87203 23.088 3.3587C22.5902 2.84367 21.9412 2.50462 21.1137 2.32864C20.6554 1.65223 20.0888 1.17066 19.4365 0.898582C18.7549 0.597264 17.9755 0.527765 17.1566 0.696883C16.4639 0.232952 15.7306 0.00318385 15.002 0.000488281V22.851H15.002Z" fill="#FF9100"/>
<path d="M15.0008 19.335C10.6384 19.335 7.08984 15.7864 7.08984 11.4241C7.08984 7.06179 10.6384 3.51318 15.0008 3.51318C19.3631 3.51318 22.9117 7.06179 22.9117 11.4241C22.9117 15.7864 19.3631 19.335 15.0008 19.335Z" fill="#FED843"/>
<path d="M15.002 19.335C19.3643 19.335 22.9129 15.7864 22.9129 11.4241C22.9129 7.06179 19.3643 3.51318 15.002 3.51318V19.335Z" fill="#FABE2C"/>
<path d="M16.4043 14.6938L15.0016 13.965L13.599 14.6938C13.3054 14.8458 12.9466 14.8192 12.6771 14.6251C12.4075 14.4294 12.2719 14.0981 12.3269 13.7702L12.5844 12.2087L11.4599 11.0989C11.2152 10.8603 11.1403 10.5065 11.2402 10.201C11.3432 9.8851 11.6162 9.65334 11.9458 9.60359L13.508 9.36837L14.2153 7.9546C14.5141 7.35888 15.4892 7.35888 15.7879 7.9546L16.4952 9.36837L18.0575 9.60359C18.3871 9.6534 18.66 9.88516 18.7631 10.201C18.8661 10.5177 18.7819 10.8654 18.5433 11.0989L17.4188 12.2087L17.6764 13.7702C17.7314 14.0981 17.5957 14.4294 17.3261 14.6251C17.0585 14.8192 16.7002 14.8478 16.4043 14.6938Z" fill="#FABE2C"/>
<path d="M15.002 13.9652L16.4046 14.6939C16.7012 14.8482 17.0593 14.8188 17.3265 14.6252C17.596 14.4295 17.7316 14.0981 17.6767 13.7702L17.4192 12.2088L18.5436 11.0989C18.7823 10.8654 18.8664 10.5178 18.7634 10.201C18.6604 9.88513 18.3874 9.65337 18.0578 9.60362L16.4955 9.3684L15.7882 7.95463C15.6389 7.65677 15.3204 7.50781 15.002 7.50781V13.9652Z" fill="#FF9100"/>
</g>
<defs>
<clipPath id="clip0_2426_10302">
<rect width="30" height="30" fill="white"/>
</clipPath>
</defs>
</svg>
