<svg width="14" height="14" viewBox="0 0 14 14" fill="none" xmlns="http://www.w3.org/2000/svg">
<path d="M9.625 3.5L7 6.125L4.375 3.5C4.25897 3.38397 4.10159 3.31878 3.9375 3.31878C3.77341 3.31878 3.61603 3.38397 3.5 3.5C3.38397 3.61603 3.31878 3.77341 3.31878 3.9375C3.31878 4.10159 3.38397 4.25897 3.5 4.375L6.125 7L3.5 9.625C3.38397 9.74103 3.31878 9.89841 3.31878 10.0625C3.31878 10.2266 3.38397 10.384 3.5 10.5C3.61603 10.616 3.77341 10.6812 3.9375 10.6812C4.10159 10.6812 4.25897 10.616 4.375 10.5L7 7.875L9.625 10.5C9.74103 10.616 9.89841 10.6812 10.0625 10.6812C10.2266 10.6812 10.384 10.616 10.5 10.5C10.616 10.384 10.6812 10.2266 10.6812 10.0625C10.6812 9.89841 10.616 9.74103 10.5 9.625L7.875 7L10.5 4.375C10.616 4.25897 10.6812 4.10159 10.6812 3.9375C10.6812 3.77341 10.616 3.61603 10.5 3.5C10.384 3.38397 10.2266 3.31878 10.0625 3.31878C9.89841 3.31878 9.74103 3.38397 9.625 3.5Z" fill="#33495D"/>
</svg>
