<svg width="14" height="14" viewBox="0 0 14 14" fill="none" xmlns="http://www.w3.org/2000/svg">
<path d="M7.00033 1.16666C5.84661 1.16666 4.71879 1.50878 3.7595 2.14975C2.80022 2.79072 2.05254 3.70177 1.61103 4.76767C1.16952 5.83357 1.054 7.00646 1.27908 8.13801C1.50416 9.26957 2.05973 10.309 2.87554 11.1248C3.69135 11.9406 4.73075 12.4962 5.8623 12.7212C6.99386 12.9463 8.16675 12.8308 9.23265 12.3893C10.2986 11.9478 11.2096 11.2001 11.8506 10.2408C12.4915 9.28153 12.8337 8.15371 12.8337 6.99999C12.8337 6.23394 12.6828 5.4754 12.3896 4.76767C12.0965 4.05994 11.6668 3.41687 11.1251 2.8752C10.5834 2.33352 9.94038 1.90384 9.23265 1.61069C8.52492 1.31754 7.76638 1.16666 7.00033 1.16666ZM9.378 9.22469C9.01704 9.53999 8.58465 9.76251 8.11829 9.873C7.65193 9.98348 7.16567 9.97859 6.70162 9.85874C6.23758 9.73889 5.80976 9.50771 5.45522 9.18521C5.10069 8.86272 4.83013 8.45864 4.667 8.00799H4.10051C3.99737 8.00799 3.89846 7.96702 3.82553 7.89408C3.7526 7.82115 3.71163 7.72224 3.71163 7.6191C3.71163 7.51596 3.7526 7.41704 3.82553 7.34411C3.89846 7.27118 3.99737 7.23021 4.10051 7.23021H4.49796C4.49226 7.15554 4.48551 7.07777 4.48551 6.99999C4.48551 6.92221 4.49122 6.84443 4.49718 6.76873H4.10051C3.99737 6.76873 3.89846 6.72776 3.82553 6.65483C3.7526 6.58189 3.71163 6.48298 3.71163 6.37984C3.71163 6.2767 3.7526 6.17778 3.82553 6.10485C3.89846 6.03192 3.99737 5.99095 4.10051 5.99095H4.667C4.87412 5.42255 5.2508 4.93148 5.74611 4.58413C6.24142 4.23679 6.83145 4.04993 7.4364 4.04884C8.09774 4.04647 8.7403 4.26858 9.259 4.67884C9.30066 4.70984 9.33569 4.74887 9.36202 4.79363C9.38836 4.83839 9.40546 4.88797 9.41232 4.93945C9.41918 4.99092 9.41566 5.04325 9.40197 5.09334C9.38828 5.14344 9.3647 5.19028 9.33261 5.23111C9.30052 5.27195 9.26058 5.30594 9.21515 5.33108C9.16971 5.35623 9.1197 5.37202 9.06806 5.37753C9.01642 5.38303 8.9642 5.37814 8.91449 5.36313C8.86477 5.34813 8.81856 5.32332 8.77859 5.29017C8.39653 4.98824 7.92336 4.82482 7.4364 4.82662C7.04018 4.82705 6.65161 4.93574 6.31266 5.14095C5.97371 5.34615 5.69728 5.64007 5.51322 5.99095H7.13126C7.2344 5.99095 7.33331 6.03192 7.40624 6.10485C7.47917 6.17778 7.52015 6.2767 7.52015 6.37984C7.52015 6.48298 7.47917 6.58189 7.40624 6.65483C7.33331 6.72776 7.2344 6.76873 7.13126 6.76873H5.27677C5.26821 6.84552 5.26371 6.92272 5.26329 6.99999C5.26342 7.07654 5.26748 7.15304 5.27548 7.22917H7.13126C7.2344 7.22917 7.33331 7.27014 7.40624 7.34308C7.47917 7.41601 7.52015 7.51492 7.52015 7.61806C7.52015 7.7212 7.47917 7.82012 7.40624 7.89305C7.33331 7.96598 7.2344 8.00695 7.13126 8.00695H5.51348C5.66539 8.29825 5.88142 8.55129 6.1453 8.74701C6.40918 8.94272 6.71403 9.07601 7.03688 9.13684C7.35974 9.19766 7.69219 9.18444 8.00919 9.09817C8.3262 9.01189 8.6195 8.85482 8.867 8.63876C8.90547 8.60518 8.95018 8.5795 8.99858 8.56319C9.04698 8.54688 9.09811 8.54027 9.14907 8.54372C9.20002 8.54718 9.24979 8.56063 9.29554 8.58332C9.3413 8.60602 9.38213 8.6375 9.41572 8.67597C9.44931 8.71444 9.47499 8.75915 9.4913 8.80755C9.5076 8.85595 9.51422 8.90708 9.51076 8.95803C9.50731 9.00899 9.49385 9.05876 9.47116 9.10452C9.44847 9.15027 9.41699 9.1911 9.37852 9.22469H9.378Z" fill="#85929E"/>
</svg>
