<svg width="20" height="20" viewBox="0 0 20 20" fill="none" xmlns="http://www.w3.org/2000/svg">
<path fill-rule="evenodd" clip-rule="evenodd" d="M9.99935 1.66667C8.23124 1.66667 6.53555 2.36905 5.2853 3.61929C4.03506 4.86953 3.33268 6.56522 3.33268 8.33333C3.33268 10.915 5.01246 13.4202 6.85431 15.3644C7.75819 16.3185 8.66491 17.0996 9.34658 17.6424C9.60028 17.8444 9.82187 18.0127 9.99935 18.1438C10.1768 18.0127 10.3984 17.8444 10.6521 17.6424C11.3338 17.0996 12.2405 16.3185 13.1444 15.3644C14.9862 13.4202 16.666 10.915 16.666 8.33333C16.666 6.56522 15.9636 4.86953 14.7134 3.61929C13.4632 2.36905 11.7675 1.66667 9.99935 1.66667ZM9.99935 19.1667C9.5371 19.86 9.53689 19.8599 9.53665 19.8597L9.53427 19.8582L9.52871 19.8544L9.50961 19.8415C9.49339 19.8305 9.47025 19.8147 9.44065 19.7942C9.38146 19.7532 9.2964 19.6934 9.18918 19.616C8.9748 19.4612 8.67132 19.2352 8.30837 18.9462C7.58379 18.3692 6.61551 17.5357 5.64439 16.5106C3.73623 14.4965 1.66602 11.585 1.66602 8.33333C1.66602 6.1232 2.54399 4.00358 4.10679 2.44078C5.6696 0.877974 7.78921 0 9.99935 0C12.2095 0 14.3291 0.877974 15.8919 2.44078C17.4547 4.00358 18.3327 6.1232 18.3327 8.33333C18.3327 11.585 16.2625 14.4965 14.3543 16.5106C13.3832 17.5357 12.4149 18.3692 11.6903 18.9462C11.3274 19.2352 11.0239 19.4612 10.8095 19.616C10.7023 19.6934 10.6172 19.7532 10.5581 19.7942C10.5285 19.8147 10.5053 19.8305 10.4891 19.8415L10.47 19.8544L10.4644 19.8582L10.4627 19.8593C10.4624 19.8595 10.4616 19.86 9.99935 19.1667ZM9.99935 19.1667L10.4616 19.86C10.1817 20.0467 9.81656 20.0464 9.53665 19.8597L9.99935 19.1667Z" fill="#ADB6BE"/>
<path fill-rule="evenodd" clip-rule="evenodd" d="M9.99935 6.66667C9.07887 6.66667 8.33268 7.41286 8.33268 8.33333C8.33268 9.25381 9.07887 10 9.99935 10C10.9198 10 11.666 9.25381 11.666 8.33333C11.666 7.41286 10.9198 6.66667 9.99935 6.66667ZM6.66602 8.33333C6.66602 6.49238 8.1584 5 9.99935 5C11.8403 5 13.3327 6.49238 13.3327 8.33333C13.3327 10.1743 11.8403 11.6667 9.99935 11.6667C8.1584 11.6667 6.66602 10.1743 6.66602 8.33333Z" fill="#ADB6BE"/>
</svg>
