<svg width="24" height="24" viewBox="0 0 24 24" fill="none" xmlns="http://www.w3.org/2000/svg">
<path d="M8.68556 12.7044H10.8121C11.7453 12.7044 12.6614 12.9259 13.5347 13.3628L14.276 11.8806C13.1702 11.3277 12.0047 11.0474 10.8122 11.0474H8.6856C4.45204 11.0474 1.00781 14.4916 1.00781 18.7252V20.6584C1.00781 21.1161 1.37873 21.4869 1.83633 21.4869H11.9169V19.8299H2.66484V18.7252C2.66484 15.4052 5.36559 12.7044 8.68556 12.7044Z" fill="#33495D"/>
<path d="M9.73503 0C6.93318 0 4.65332 2.27958 4.65332 5.08172C4.65332 7.88386 6.93289 10.1634 9.73503 10.1634C12.5372 10.1634 14.8167 7.88386 14.8167 5.08172C14.8167 2.27958 12.5372 0 9.73503 0ZM9.73503 8.50631C7.84682 8.50631 6.3104 6.96994 6.3104 5.08167C6.3104 3.19345 7.84677 1.65703 9.73503 1.65703C11.6235 1.65703 13.1597 3.19341 13.1597 5.08167C13.1597 6.96994 11.6232 8.50631 9.73503 8.50631Z" fill="#33495D"/>
<path d="M16.5841 11.1851C13.0509 11.1851 10.1768 14.0592 10.1768 17.5924C10.1768 21.1255 13.0509 23.9998 16.5841 23.9998C20.117 23.9998 22.9912 21.1256 22.9912 17.5924C22.9912 14.0593 20.117 11.1851 16.5841 11.1851ZM16.5841 22.3427C13.9648 22.3427 11.8338 20.2117 11.8338 17.5924C11.8338 14.9732 13.9648 12.8422 16.5841 12.8422C19.2031 12.8422 21.3341 14.9732 21.3341 17.5924C21.3341 20.2117 19.2031 22.3427 16.5841 22.3427Z" fill="#33495D"/>
<path d="M16.5844 14.4717C16.1267 14.4717 15.7559 14.8426 15.7559 15.3002V19.8848C15.7559 20.3424 16.1268 20.7133 16.5844 20.7133C17.042 20.7133 17.4129 20.3424 17.4129 19.8848V15.3002C17.4129 14.8426 17.042 14.4717 16.5844 14.4717Z" fill="#33495D"/>
<path d="M18.8772 16.7642H14.2924C13.8347 16.7642 13.4639 17.1351 13.4639 17.5927C13.4639 18.0503 13.8348 18.4212 14.2924 18.4212H18.8772C19.3349 18.4212 19.7058 18.0503 19.7058 17.5927C19.7058 17.1351 19.3349 16.7642 18.8772 16.7642Z" fill="#33495D"/>
</svg>
