<svg width="58" height="82" viewBox="0 0 58 82" fill="none" xmlns="http://www.w3.org/2000/svg">
<g filter="url(#filter0_d_2138_6190)">
<path fill-rule="evenodd" clip-rule="evenodd" d="M34.301 52.1798C35.3806 51.1106 36.7294 50.361 38.1503 49.8072C47.4311 46.1905 54 37.2345 54 26.7591C54 13.085 42.807 2 29 2C15.1929 2 4 13.085 4 26.7591C4 37.0869 10.385 45.9377 19.459 49.6511C20.8105 50.2043 22.0927 50.936 23.1268 51.9601L27.785 56.5734C28.3592 57.1422 29.2904 57.1422 29.8646 56.5734L34.301 52.1798Z" fill="white"/>
<path d="M29.0001 47C40.0458 47 49 38.0457 49 27C49 15.9543 40.0458 7 29.0001 7C17.9543 7 9 15.9543 9 27C9 38.0457 17.9543 47 29.0001 47Z" fill="#F19B15"/>
<g clip-path="url(#clip0_2138_6190)">
<path d="M17.8298 22.5146C18.2984 21.6731 19.6074 20.2144 21.9215 20.1176C22.2223 20.105 22.4257 19.8149 22.3294 19.5301C22.0346 18.6583 21.0828 17.1148 18.031 17.0004C17.7884 16.9913 17.5582 17.1153 17.4395 17.3266C17.0247 18.0654 16.2035 20.2316 17.2739 22.4879C17.3834 22.7184 17.7055 22.7376 17.8298 22.5146Z" fill="white"/>
<path d="M41.014 22.5146C40.5453 21.6731 39.2363 20.2144 36.9222 20.1176C36.6215 20.105 36.418 19.8149 36.5144 19.5301C36.8092 18.6583 37.7608 17.1148 40.8128 17.0004C41.0553 16.9913 41.2855 17.1153 41.4043 17.3266C41.819 18.0654 42.6401 20.2316 41.5699 22.4879C41.4603 22.7184 41.1383 22.7376 41.014 22.5146Z" fill="white"/>
<path d="M26.2756 29.7936C26.2522 29.8559 26.2185 29.9109 26.1888 29.9689C25.9335 29.5894 25.5655 29.2805 25.1039 29.1079C24.3724 28.8343 23.5895 28.9622 22.9956 29.3797C22.9675 29.1237 22.9904 28.8588 23.087 28.6011C23.4167 27.7219 24.3979 27.2762 25.2784 27.6054C26.1588 27.9346 26.6053 28.9144 26.2756 29.7936ZM24.6223 23.9805C24.5642 23.9742 24.5053 23.9685 24.4458 23.9632C18.4928 23.4388 14 27.7631 14 27.7631C14 27.7631 16.761 32.9794 24.0369 33.6204C24.0369 33.6204 24.2813 32.781 26.3089 31.5765C29.6896 29.5682 28.5336 24.399 24.6223 23.9805Z" fill="white"/>
<path d="M35.5076 29.4516C34.9236 29.0203 34.1438 28.8742 33.4062 29.1305C32.9407 29.2923 32.5656 29.5924 32.3013 29.9659C32.2731 29.9073 32.2407 29.8516 32.2189 29.7887C31.9098 28.9019 32.379 27.9329 33.267 27.6244C34.155 27.3158 35.1253 27.7844 35.4344 28.6711C35.5251 28.9309 35.5418 29.1964 35.5076 29.4516ZM34.0959 23.9629C34.0365 23.968 33.9776 23.9737 33.9194 23.9799C30.0079 24.3957 28.8481 29.564 32.2272 31.5748C34.254 32.7808 34.4977 33.6202 34.4977 33.6202C41.7742 32.9846 44.5389 27.7703 44.5389 27.7703C44.5389 27.7703 40.0494 23.4428 34.0959 23.9629Z" fill="white"/>
<path d="M29.2697 33.6204C28.0092 33.6204 26.752 34.3647 26.752 35.9288C26.752 36.1913 27.4602 36.1309 27.946 36.3515C28.1756 36.4558 28.5026 36.7026 28.6771 36.8393C28.8512 36.9757 29.0604 37.0442 29.2697 37.0448C29.4789 37.0442 29.6881 36.9757 29.8623 36.8393C30.0368 36.7026 30.3637 36.4558 30.5933 36.3515C31.0792 36.1309 31.7875 36.1913 31.7875 35.9288C31.7875 34.3647 30.5302 33.6204 29.2697 33.6204Z" fill="white"/>
</g>
</g>
<g filter="url(#filter1_d_2138_6190)">
<circle cx="29" cy="68" r="8" fill="#F19B15"/>
<circle cx="29" cy="68" r="6" stroke="white" stroke-width="4"/>
</g>
<defs>
<filter id="filter0_d_2138_6190" x="0" y="0" width="58" height="63" filterUnits="userSpaceOnUse" color-interpolation-filters="sRGB">
<feFlood flood-opacity="0" result="BackgroundImageFix"/>
<feColorMatrix in="SourceAlpha" type="matrix" values="0 0 0 0 0 0 0 0 0 0 0 0 0 0 0 0 0 0 127 0" result="hardAlpha"/>
<feOffset dy="2"/>
<feGaussianBlur stdDeviation="2"/>
<feComposite in2="hardAlpha" operator="out"/>
<feColorMatrix type="matrix" values="0 0 0 0 0 0 0 0 0 0 0 0 0 0 0 0 0 0 0.2 0"/>
<feBlend mode="normal" in2="BackgroundImageFix" result="effect1_dropShadow_2138_6190"/>
<feBlend mode="normal" in="SourceGraphic" in2="effect1_dropShadow_2138_6190" result="shape"/>
</filter>
<filter id="filter1_d_2138_6190" x="17" y="58" width="24" height="24" filterUnits="userSpaceOnUse" color-interpolation-filters="sRGB">
<feFlood flood-opacity="0" result="BackgroundImageFix"/>
<feColorMatrix in="SourceAlpha" type="matrix" values="0 0 0 0 0 0 0 0 0 0 0 0 0 0 0 0 0 0 127 0" result="hardAlpha"/>
<feOffset dy="2"/>
<feGaussianBlur stdDeviation="2"/>
<feComposite in2="hardAlpha" operator="out"/>
<feColorMatrix type="matrix" values="0 0 0 0 0 0 0 0 0 0 0 0 0 0 0 0 0 0 0.2 0"/>
<feBlend mode="normal" in2="BackgroundImageFix" result="effect1_dropShadow_2138_6190"/>
<feBlend mode="normal" in="SourceGraphic" in2="effect1_dropShadow_2138_6190" result="shape"/>
</filter>
<clipPath id="clip0_2138_6190">
<rect width="30.5556" height="20" fill="white" transform="translate(14 17)"/>
</clipPath>
</defs>
</svg>
