<svg width="24" height="24" viewBox="0 0 24 24" fill="none" xmlns="http://www.w3.org/2000/svg">
<path d="M3.56538 10.6312L10.7272 3.46939C11.0386 3.15793 11.3568 3 11.6727 3C12.1112 3 12.6233 3.32863 12.6233 4.2545V8.67032C14.8093 8.81918 16.8432 9.74808 18.3972 11.3183C20.0756 13.0142 21 15.2623 21 17.6483C21 18.6761 20.8275 19.6855 20.4871 20.6484C20.4126 20.8591 20.2134 21 19.9899 21C19.7664 21 19.5672 20.8591 19.4927 20.6484C18.4457 17.6862 15.7262 15.6215 12.6233 15.3764V19.7454C12.6233 20.6712 12.1114 20.9999 11.6727 20.9999C11.3568 20.9999 11.0387 20.8421 10.7274 20.5307L3.56525 13.3686C3.20078 13.004 3 12.518 3 11.9999C3.00014 11.4819 3.20091 10.9957 3.56538 10.6312ZM4.31108 12.6229L11.4731 19.785C11.5069 19.8187 11.5369 19.8456 11.563 19.8669C11.5666 19.8334 11.5688 19.7932 11.5688 19.7455V14.825C11.5688 14.6842 11.6251 14.5491 11.7253 14.4501C11.8241 14.3524 11.9573 14.2977 12.0961 14.2977C12.0981 14.2977 12.1 14.2978 12.1019 14.2978C13.98 14.3187 15.7735 14.9123 17.2885 16.0144C18.3498 16.7865 19.2179 17.764 19.849 18.8884C19.913 18.4801 19.9453 18.0661 19.9453 17.6483C19.9453 13.3162 16.4216 9.75247 12.0902 9.70427C11.8013 9.70111 11.5686 9.466 11.5686 9.17693V4.2545C11.5686 4.20685 11.5665 4.16675 11.563 4.1331C11.5369 4.15439 11.5069 4.1813 11.4731 4.21509L4.31108 11.3771C4.14574 11.5424 4.05469 11.7635 4.05469 12C4.05482 12.2363 4.14587 12.4576 4.31108 12.6229Z" fill="#2F2F2F" stroke="#2F2F2F" stroke-width="0.5"/>
</svg>
