<svg width="18" height="18" viewBox="0 0 18 18" fill="none" xmlns="http://www.w3.org/2000/svg">
<path d="M4.87048 17.4706H1.05871C0.794003 17.4706 0.529297 17.2059 0.529297 16.9412V13.0765C0.529297 12.7589 0.794003 12.5471 1.05871 12.5471H4.7646V16.9412C4.7646 17.1 4.81754 17.3118 4.87048 17.4706Z" fill="white"/>
<path d="M12.1771 10.5882V16.9412C12.1771 17.2059 11.9124 17.4706 11.6477 17.4706H6.35363C6.08892 17.4706 5.82422 17.2059 5.82422 16.9412V10.5882C5.82422 10.2706 6.08892 10.0588 6.35363 10.0588H11.6477C11.9124 10.0588 12.1771 10.2706 12.1771 10.5882Z" fill="white"/>
<path d="M17.4701 13.7648V16.9412C17.4701 17.2059 17.2054 17.4706 16.9407 17.4706H13.1289C13.1818 17.3118 13.2348 17.1 13.2348 16.9412V13.2354H16.9407C17.2054 13.2354 17.4701 13.4471 17.4701 13.7648Z" fill="white"/>
<path d="M13.2891 4.23535L11.542 5.92947L11.9655 8.36476C12.0185 8.57652 11.9126 8.78829 11.7538 8.89417C11.5949 9.00005 11.3302 9.00005 11.1714 8.94711L9.00082 7.78241L6.83024 8.89417C6.67141 9.00005 6.45965 9.00005 6.30082 8.84123C6.142 8.73535 6.03612 8.52358 6.08906 8.31182L6.51259 5.87653L4.71259 4.23535C4.60671 4.12947 4.55377 3.9177 4.60671 3.70594C4.65965 3.49417 4.81847 3.38829 5.03024 3.33535L7.46553 2.96476L8.52435 0.794176C8.68318 0.423588 9.31847 0.423588 9.47729 0.794176L10.5361 2.96476L12.9714 3.33535C13.1832 3.38829 13.342 3.49417 13.3949 3.70594C13.4479 3.9177 13.3949 4.12947 13.2891 4.23535Z" fill="white"/>
</svg>
