<svg width="60" height="60" viewBox="0 0 60 60" fill="none" xmlns="http://www.w3.org/2000/svg">
<g clip-path="url(#clip0_4258_41178)">
<path d="M4.13867 18.6206H55.8628V59.9999H4.13867V18.6206Z" fill="#F19B15"/>
<path d="M60 18.6208H0L2.68772 8.76602C2.80714 8.32815 3.06723 7.9417 3.42792 7.6662C3.78861 7.39071 4.22988 7.24146 4.68375 7.24146H55.3162C55.7701 7.24146 56.2114 7.39071 56.5721 7.6662C56.9328 7.9417 57.1929 8.32815 57.3123 8.76602L60 18.6208Z" fill="#EBEBEB"/>
<path d="M20.6901 7.24146L18.6211 18.6208H25.8625L26.897 7.24146H20.6901Z" fill="#C7463B"/>
<path d="M6.20703 18.6208L8.276 7.24146H14.4829L12.4139 18.6208H6.20703Z" fill="#C7463B"/>
<path d="M41.3794 18.6208L39.3104 7.24146H33.1035L34.138 18.6208H41.3794Z" fill="#C7463B"/>
<path d="M51.7245 7.24146L53.7934 18.6208H47.5865L45.5176 7.24146H51.7245Z" fill="#C7463B"/>
<path d="M18.3618 0H41.6377C41.8434 0 42.0408 0.0817423 42.1863 0.227245C42.3318 0.372747 42.4135 0.570091 42.4135 0.775862V7.24138H17.5859V0.775862C17.5859 0.570091 17.6677 0.372747 17.8132 0.227245C17.9587 0.0817423 18.156 0 18.3618 0Z" fill="#DC4D41"/>
<path d="M8.27539 24.8276H35.1719V48.6208H8.27539V24.8276Z" fill="#EBEDEF"/>
<path d="M8.27539 24.8276H34.1375V47.5863H8.27539V24.8276Z" fill="#F5F6F7"/>
<path d="M16.94 48.6206H26.509C26.8862 48.6206 27.248 48.7705 27.5148 49.0372C27.7815 49.304 27.9314 49.6658 27.9314 50.043V55.862H15.5176V50.043C15.5176 49.6658 15.6674 49.304 15.9342 49.0372C16.2009 48.7705 16.5627 48.6206 16.94 48.6206Z" fill="#DC4D41"/>
<path d="M19.6543 55.8621H23.7922V60H19.6543V55.8621Z" fill="#BD9070"/>
<path d="M19.6543 55.8621H23.7922V57.931H19.6543V55.8621Z" fill="#B08668"/>
<path d="M26.8965 55.8621H28.9655V60H26.8965V55.8621Z" fill="#744630"/>
<path d="M32.0696 45.5173C31.7952 45.5173 31.5321 45.6263 31.3381 45.8203C31.1441 46.0143 31.0351 46.2775 31.0351 46.5518V53.7932H27.9316V55.8622H31.0351V60.0001H33.1041V46.5518C33.1041 46.2775 32.9951 46.0143 32.8011 45.8203C32.6071 45.6263 32.3439 45.5173 32.0696 45.5173Z" fill="#744630"/>
<path d="M12.4147 46.5518C12.4147 46.2775 12.3057 46.0143 12.1117 45.8203C11.9177 45.6263 11.6545 45.5173 11.3802 45.5173C11.1058 45.5173 10.8427 45.6263 10.6487 45.8203C10.4547 46.0143 10.3457 46.2775 10.3457 46.5518V60.0001H12.4147V55.8622H15.5181V53.7932H12.4147V46.5518Z" fill="#744630"/>
<path d="M14.4824 55.8621H16.5514V60H14.4824V55.8621Z" fill="#744630"/>
<path d="M18.6211 52.7585H20.6901V55.862H18.6211V52.7585Z" fill="#C7463B"/>
<path d="M22.7578 52.7585H24.8268V55.862H22.7578V52.7585Z" fill="#C7463B"/>
<path d="M39.3105 53.7932H51.7243V60.0001H39.3105V53.7932Z" fill="#F5F6F7"/>
<path d="M39.3105 33.1035H51.7243V53.7932H39.3105V33.1035Z" fill="#B94137"/>
<path d="M39.3105 34.1379H50.6898V53.7931H39.3105V34.1379Z" fill="#C7463B"/>
<path d="M39.3105 56.8965H51.7243V59.9999H39.3105V56.8965Z" fill="#EBEDEF"/>
<path d="M39.3105 22.7585H51.7243V28.9654H39.3105V22.7585Z" fill="#F5F6F7"/>
<path d="M18.8796 28.9656H24.5693C25.461 28.9656 26.3161 29.3198 26.9467 29.9503C27.5772 30.5808 27.9314 31.436 27.9314 32.3276V33.1035H15.5176V32.3276C15.5176 31.8861 15.6045 31.4489 15.7735 31.041C15.9425 30.6331 16.1901 30.2625 16.5023 29.9503C16.8145 29.6381 17.1851 29.3905 17.593 29.2215C18.0009 29.0525 18.4381 28.9656 18.8796 28.9656Z" fill="#70400E"/>
<path d="M24.5696 44.4827H18.8799C17.9882 44.4827 17.1331 44.1284 16.5026 43.4979C15.8721 42.8674 15.5179 42.0123 15.5179 41.1206V40.3447H27.9316V41.1206C27.9316 41.5621 27.8447 41.9993 27.6757 42.4072C27.5068 42.8151 27.2591 43.1857 26.9469 43.4979C26.6347 43.8101 26.2641 44.0578 25.8562 44.2267C25.4483 44.3957 25.0111 44.4827 24.5696 44.4827Z" fill="#70400E"/>
<path d="M27.9305 38.2758C27.7701 38.2757 27.612 38.2382 27.4686 38.1663L25.8623 37.3634L24.256 38.1665C24.1124 38.2383 23.954 38.2757 23.7934 38.2757C23.6328 38.2757 23.4744 38.2383 23.3307 38.1665L21.7244 37.3634L20.1181 38.1665C19.9745 38.2383 19.816 38.2757 19.6554 38.2757C19.4948 38.2757 19.3364 38.2383 19.1928 38.1665L17.5865 37.3634L15.9802 38.1665C15.7351 38.2867 15.4524 38.3051 15.1938 38.2178C14.9352 38.1305 14.7216 37.9445 14.5995 37.7004C14.4774 37.4562 14.4567 37.1737 14.542 36.9144C14.6273 36.6551 14.8117 36.4401 15.0548 36.3161L17.1238 35.2816C17.2675 35.2098 17.4259 35.1724 17.5865 35.1724C17.7471 35.1724 17.9055 35.2098 18.0491 35.2816L19.6554 36.0847L21.2617 35.2816C21.4054 35.2098 21.5638 35.1724 21.7244 35.1724C21.885 35.1724 22.0434 35.2098 22.1871 35.2816L23.7934 36.0847L25.3997 35.2816C25.5433 35.2098 25.7017 35.1724 25.8623 35.1724C26.0229 35.1724 26.1814 35.2098 26.325 35.2816L28.394 36.3161C28.6024 36.4203 28.7696 36.592 28.8683 36.8031C28.9671 37.0142 28.9916 37.2525 28.9379 37.4794C28.8843 37.7062 28.7556 37.9083 28.5728 38.0528C28.3899 38.1974 28.1636 38.2759 27.9305 38.2758Z" fill="#EA9D2D"/>
<path d="M43.4485 45.5173C43.1742 45.5173 42.9111 45.4083 42.7171 45.2143C42.5231 45.0203 42.4141 44.7572 42.4141 44.4829V42.4139C42.4141 42.1395 42.5231 41.8764 42.7171 41.6824C42.9111 41.4884 43.1742 41.3794 43.4485 41.3794H45.5175C45.7919 41.3794 46.055 41.4884 46.249 41.6824C46.443 41.8764 46.552 42.1395 46.552 42.4139C46.552 42.6882 46.443 42.9514 46.249 43.1454C46.055 43.3394 45.7919 43.4484 45.5175 43.4484H44.483V44.4829C44.483 44.7572 44.374 45.0203 44.18 45.2143C43.986 45.4083 43.7229 45.5173 43.4485 45.5173Z" fill="#FFCD1E"/>
<path d="M14.4824 55.8621H16.5514V57.931H14.4824V55.8621Z" fill="#5B3726"/>
<path d="M10.3457 55.8621H12.4147V57.931H10.3457V55.8621Z" fill="#5B3726"/>
<path d="M31.0352 55.8621H33.1041V57.931H31.0352V55.8621Z" fill="#5B3726"/>
<path d="M26.8965 55.8621H28.9655V57.931H26.8965V55.8621Z" fill="#5B3726"/>
<path d="M17.5859 5.17236H42.4135V7.24133H17.5859V5.17236Z" fill="#B94137"/>
<path d="M4.13867 18.6206H55.8628V20.6896H4.13867V18.6206Z" fill="#C38325"/>
<path d="M15.5176 40.3447H27.9314V41.3792H15.5176V40.3447Z" fill="#5B3726"/>
<path d="M15.5176 32.0688H27.9314V33.1033H15.5176V32.0688Z" fill="#5B3726"/>
<path d="M39.3105 28.9656H51.7243V30.0001H39.3105V28.9656Z" fill="#C38325"/>
</g>
<defs>
<clipPath id="clip0_4258_41178">
<rect width="60" height="60" fill="white"/>
</clipPath>
</defs>
</svg>
