<svg width="71" height="70" viewBox="0 0 71 70" fill="none" xmlns="http://www.w3.org/2000/svg">
<g clip-path="url(#clip0_2300_6503)">
<path d="M58.3372 2.04874C43.1124 1.12438 27.8876 1.12438 12.6628 2.04874C6.55635 2.41952 1.67317 7.23502 1.16731 13.3319C0.277678 24.0543 0.277542 34.7767 1.16703 45.4992C1.67371 51.6067 6.5733 56.4155 12.6906 56.7845C15.1189 56.9309 17.5472 57.054 19.9754 57.1539C21.3347 57.2098 22.6222 57.779 23.5841 58.7409L32.0645 67.2213C33.9619 69.1187 37.0382 69.1187 38.9356 67.2213L47.416 58.7409C48.3779 57.779 49.6654 57.2098 51.0247 57.1539C53.4529 57.054 55.8812 56.9309 58.3095 56.7845C64.4268 56.4155 69.3264 51.6067 69.8331 45.4992C70.7226 34.7767 70.7226 24.0543 69.8328 13.3319C69.3268 7.23502 64.4436 2.41952 58.3372 2.04874Z" fill="#FEF5E8"/>
<path d="M22.6478 23.5492L21.0383 25.1185C20.5426 25.6015 20.3162 26.2971 20.4335 26.9792L20.8135 29.1946C21.108 30.9118 19.3059 32.2214 17.7636 31.4106L15.774 30.3648C15.1617 30.0424 14.4302 30.0424 13.8179 30.3648L11.8283 31.4106C10.2859 32.2214 8.48377 30.9119 8.7784 29.1946L9.15834 26.9792C9.27551 26.2971 9.04924 25.6015 8.55364 25.1185L6.94405 23.5492C5.69662 22.3331 6.38528 20.2148 8.10903 19.9642L10.3334 19.6408C11.018 19.5413 11.6101 19.1113 11.9162 18.491L12.911 16.4753C13.2965 15.6942 14.0462 15.3037 14.7959 15.3037C15.5457 15.3037 16.2955 15.6942 16.6809 16.4753L17.6757 18.491C17.9818 19.1115 18.5739 19.5414 19.2584 19.6408L21.4829 19.9642C23.2066 20.2148 23.8953 22.3332 22.6478 23.5492Z" fill="#FFCD1E"/>
<path d="M9.69579 23.8222C10.3541 25.4955 11.3301 26.6146 10.6446 28.1944C9.95897 29.7747 10.3056 31.8501 13.8179 30.3648L11.8283 31.4105C10.2859 32.2214 8.48377 30.9119 8.7784 29.1946L9.15834 26.9792C9.27551 26.2971 9.04924 25.6015 8.55364 25.1185L6.94405 23.5492C5.69663 22.3331 6.38528 20.2148 8.10903 19.9642L10.3334 19.6408C11.018 19.5413 11.6101 19.1113 11.9162 18.491L12.911 16.4753C13.2965 15.6942 14.0462 15.3037 14.7959 15.3037C13.3166 15.3037 13.9315 19.5697 11.8137 20.6888C9.69578 21.8084 9.03748 22.1489 9.69579 23.8222Z" fill="#EDB900"/>
<path d="M43.3519 23.5492L41.7423 25.1185C41.2467 25.6015 41.0203 26.2971 41.1376 26.9792L41.5176 29.1946C41.8121 30.9118 40.01 32.2214 38.4677 31.4106L36.4781 30.3648C35.8658 30.0424 35.1343 30.0424 34.522 30.3648L32.5324 31.4106C30.99 32.2214 29.1879 30.9119 29.4825 29.1946L29.8624 26.9792C29.9796 26.2971 29.7533 25.6015 29.2577 25.1185L27.6481 23.5492C26.4007 22.3331 27.0894 20.2148 28.8131 19.9642L31.0375 19.6408C31.7221 19.5413 32.3142 19.1113 32.6203 18.491L33.6151 16.4753C34.0006 15.6942 34.7503 15.3037 35.5 15.3037C36.2498 15.3037 36.9996 15.6942 37.385 16.4753L38.3797 18.491C38.6859 19.1115 39.278 19.5414 39.9625 19.6408L42.187 19.9642C43.9107 20.2148 44.5994 22.3332 43.3519 23.5492Z" fill="#FFCD1E"/>
<path d="M30.3999 23.8222C31.0582 25.4955 32.0342 26.6146 31.3487 28.1944C30.6631 29.7747 31.0097 31.8501 34.522 30.3648L32.5324 31.4105C30.99 32.2214 29.1879 30.9119 29.4825 29.1946L29.8624 26.9792C29.9796 26.2971 29.7533 25.6015 29.2577 25.1185L27.6481 23.5492C26.4007 22.3331 27.0894 20.2148 28.8131 19.9642L31.0375 19.6408C31.7221 19.5413 32.3142 19.1113 32.6203 18.491L33.6151 16.4753C34.0006 15.6942 34.7503 15.3037 35.5 15.3037C34.0207 15.3037 34.6356 19.5697 32.5178 20.6888C30.3999 21.8084 29.7416 22.1489 30.3999 23.8222Z" fill="#EDB900"/>
<path d="M64.0561 23.5492L62.4465 25.1185C61.9509 25.6015 61.7244 26.2971 61.8418 26.9792L62.2217 29.1946C62.5162 30.9118 60.7141 32.2214 59.1718 31.4106L57.1822 30.3648C56.5699 30.0424 55.8384 30.0424 55.2261 30.3648L53.2365 31.4106C51.6941 32.2214 49.892 30.9119 50.1866 29.1946L50.5665 26.9792C50.6837 26.2971 50.4574 25.6015 49.9618 25.1185L48.3523 23.5492C47.1048 22.3331 47.7935 20.2148 49.5172 19.9642L51.7416 19.6408C52.4262 19.5413 53.0183 19.1113 53.3244 18.491L54.3192 16.4753C54.7048 15.6942 55.4544 15.3037 56.2042 15.3037C56.9539 15.3037 57.7037 15.6942 58.0891 16.4753L59.0839 18.491C59.39 19.1115 59.9821 19.5414 60.6667 19.6408L62.8911 19.9642C64.6148 20.2148 65.3033 22.3332 64.0561 23.5492Z" fill="#FFCD1E"/>
<path d="M51.104 23.8222C51.7623 25.4955 52.7383 26.6146 52.0528 28.1944C51.3672 29.7747 51.7138 31.8501 55.2261 30.3648L53.2365 31.4105C51.6941 32.2214 49.892 30.9119 50.1866 29.1946L50.5666 26.9792C50.6837 26.2971 50.4574 25.6015 49.9618 25.1185L48.3523 23.5492C47.1048 22.3331 47.7935 20.2148 49.5172 19.9642L51.7416 19.6408C52.4262 19.5413 53.0183 19.1113 53.3244 18.491L54.3192 16.4753C54.7048 15.6942 55.4544 15.3037 56.2041 15.3037C54.7248 15.3037 55.3397 19.5697 53.2219 20.6888C51.104 21.8084 50.4457 22.1489 51.104 23.8222Z" fill="#EDB900"/>
<path d="M59.5292 38.9143H11.4713C10.888 38.9143 10.415 38.4414 10.415 37.858C10.415 37.2747 10.888 36.8018 11.4713 36.8018H59.5292C60.1127 36.8018 60.5855 37.2747 60.5855 37.858C60.5855 38.4414 60.1126 38.9143 59.5292 38.9143Z" fill="#F8CD8A"/>
<path d="M50.3868 44.0799H11.4713C10.888 44.0799 10.415 43.607 10.415 43.0236C10.415 42.4402 10.888 41.9673 11.4713 41.9673H50.387C50.9705 41.9673 51.4433 42.4402 51.4433 43.0236C51.4433 43.607 50.9703 44.0799 50.3868 44.0799Z" fill="#F8CD8A"/>
</g>
<defs>
<clipPath id="clip0_2300_6503">
<rect width="70" height="70" fill="white" transform="translate(0.5)"/>
</clipPath>
</defs>
</svg>
