<svg width="25" height="24" viewBox="0 0 25 24" fill="none" xmlns="http://www.w3.org/2000/svg">
<path d="M21.7841 8.27578L15.8333 7.41093L13.1731 2.01797C13.1005 1.87031 12.9809 1.75078 12.8333 1.67812C12.463 1.49531 12.013 1.64765 11.8278 2.01797L9.16766 7.41093L3.21688 8.27578C3.05282 8.29922 2.90281 8.37656 2.78797 8.49375C2.64913 8.63645 2.57262 8.82843 2.57526 9.02752C2.5779 9.2266 2.65946 9.41649 2.80203 9.55547L7.1075 13.7531L6.09031 19.6805C6.06646 19.8183 6.08172 19.9602 6.13436 20.0898C6.187 20.2195 6.27491 20.3318 6.38813 20.414C6.50135 20.4962 6.63535 20.5451 6.77492 20.555C6.9145 20.565 7.05407 20.5356 7.17781 20.4703L12.5005 17.6719L17.8231 20.4703C17.9684 20.5477 18.1372 20.5734 18.2989 20.5453C18.7067 20.475 18.9809 20.0883 18.9106 19.6805L17.8934 13.7531L22.1989 9.55547C22.3161 9.44062 22.3934 9.29062 22.4169 9.12656C22.4802 8.7164 22.1942 8.33672 21.7841 8.27578Z" fill="#FFCD1E"/>
</svg>
