<svg width="331" height="167" viewBox="0 0 331 167" fill="none" xmlns="http://www.w3.org/2000/svg">
<path opacity="0.7" d="M212.453 69.1047L205.636 72.8321L201.909 79.6485L198.182 72.8321L191.365 69.1047L198.182 65.3774L201.909 58.561L205.636 65.3774L212.453 69.1047Z" fill="#FFCD1E"/>
<path d="M152.089 111.78L148.42 113.786L146.413 117.455L144.407 113.786L140.738 111.78L144.407 109.773L146.413 106.104L148.42 109.773L152.089 111.78Z" fill="#FFCD1E"/>
<path d="M18.3503 120.758L14.6814 122.764L12.6752 126.433L10.6689 122.764L7 120.758L10.6689 118.751L12.6752 115.083L14.6814 118.751L18.3503 120.758Z" fill="#FFCD1E"/>
<path opacity="0.5" d="M288.35 32.6752L284.681 34.6814L282.675 38.3503L280.669 34.6814L277 32.6752L280.669 30.6689L282.675 27L284.681 30.6689L288.35 32.6752Z" fill="#FFCD1E"/>
<path d="M139.191 120.551L137.19 121.645L136.096 123.646L135.001 121.645L133 120.551L135.001 119.456L136.096 117.455L137.19 119.456L139.191 120.551Z" fill="#FFCD1E"/>
<path d="M31.6091 129.535L29.6078 130.629L28.5135 132.631L27.4192 130.629L25.418 129.535L27.4192 128.441L28.5135 126.439L29.6078 128.441L31.6091 129.535Z" fill="#FFCD1E"/>
<path d="M286.191 67.0955L284.19 68.1899L283.096 70.1911L282.001 68.1899L280 67.0955L282.001 66.0012L283.096 64L284.19 66.0012L286.191 67.0955Z" fill="#FFCD1E"/>
<path d="M125.273 39.7645L123.272 40.8588L122.178 42.86L121.083 40.8588L119.082 39.7645L121.083 38.6702L122.178 36.6689L123.272 38.6702L125.273 39.7645Z" fill="#FFCD1E"/>
<path d="M191.497 82.6988L174.237 92.1371L164.798 109.398L155.36 92.1371L138.1 82.6988L155.36 73.2606L164.798 56L174.237 73.2606L191.497 82.6988Z" fill="#FFCD1E"/>
<path opacity="0.7" d="M324.554 133.723L303.041 145.487L291.277 167L279.513 145.487L258 133.723L279.513 121.959L291.277 100.446L303.041 121.959L324.554 133.723Z" fill="#FFCD1E"/>
<path opacity="0.7" d="M79.6619 50.0829L68.3215 56.2839L62.1205 67.6243L55.9195 56.2839L44.5791 50.0829L55.9195 43.8819L62.1205 32.5415L68.3215 43.8819L79.6619 50.0829Z" fill="#FFCD1E"/>
<path opacity="0.5" d="M54.9812 103.216L43.6409 109.417L37.4398 120.758L31.2388 109.417L19.8984 103.216L31.2388 97.0152L37.4398 85.6748L43.6409 97.0152L54.9812 103.216Z" fill="#FFCD1E"/>
<path opacity="0.5" d="M281.981 54.5414L270.641 60.7424L264.44 72.0828L258.239 60.7424L246.898 54.5414L258.239 48.3404L264.44 37L270.641 48.3404L281.981 54.5414Z" fill="#FFCD1E"/>
<path d="M194.395 117.455L189.059 120.373L186.141 125.71L183.222 120.373L177.886 117.455L183.222 114.537L186.141 109.2L189.059 114.537L194.395 117.455Z" fill="#FFCD1E"/>
<path opacity="0.5" d="M176.284 20.5437L169.467 24.2711L165.74 31.0874L162.013 24.2711L155.196 20.5437L162.013 16.8164L165.74 10L169.467 16.8164L176.284 20.5437Z" fill="#FFCD1E"/>
<path opacity="0.7" d="M99.7173 67.3338L92.901 71.0611L89.1736 77.8775L85.4462 71.0611L78.6299 67.3338L85.4462 63.6064L89.1736 56.79L92.901 63.6064L99.7173 67.3338Z" fill="#FFCD1E"/>
<path d="M119.082 31.5096L115.413 33.5159L113.407 37.1848L111.4 33.5159L107.731 31.5096L111.4 29.5034L113.407 25.8345L115.413 29.5034L119.082 31.5096Z" fill="#FFCD1E"/>
<defs>
<rect width="331" height="167" rx="20" fill="url(#paint0_linear_3266_34474)"/>
<linearGradient id="paint0_linear_3266_34474" x1="165.5" y1="0" x2="165.5" y2="167" gradientUnits="userSpaceOnUse">
<stop stop-color="white" stop-opacity="0"/>
<stop offset="1" stop-color="white"/>
</linearGradient>
</defs>
</svg>
