<svg width="16" height="16" viewBox="0 0 16 16" fill="none" xmlns="http://www.w3.org/2000/svg">
<path d="M3.79492 5.19111C3.85817 5.94777 4.00342 6.98424 4.33208 8.07252C5.03008 10.3836 6.26314 12.027 7.99891 12.9609C9.73469 12.027 10.9678 10.3836 11.6657 8.07252C11.9944 6.98433 12.1396 5.94783 12.2029 5.19111L7.99891 3.08911L3.79492 5.19111Z" fill="#29CD7E"/>
<path d="M15.0573 3.73929C15.0485 3.57073 14.9498 3.41988 14.7988 3.34441L8.20897 0.0494765C8.077 -0.0164922 7.92169 -0.0164922 7.78972 0.0494765L1.19987 3.34441C1.04891 3.41988 0.950155 3.57073 0.941405 3.73929C0.936405 3.83523 0.82803 6.11954 1.60619 8.77163C2.06662 10.3408 2.74387 11.7113 3.61912 12.8452C4.72209 14.274 6.13972 15.3251 7.83262 15.9693C7.88634 15.9898 7.94281 16 7.99934 16C8.05587 16 8.11234 15.9898 8.16606 15.9693C9.85897 15.3251 11.2766 14.274 12.3796 12.8452C13.2548 11.7113 13.9321 10.3408 14.3925 8.77163C15.1707 6.11954 15.0623 3.83523 15.0573 3.73929ZM8.20709 13.9085C8.14163 13.9408 8.07047 13.957 7.99934 13.957C7.92822 13.957 7.85703 13.9408 7.79159 13.9085C5.70434 12.8765 4.23859 11.0042 3.43509 8.3436C3.03322 7.01288 2.88812 5.75894 2.83719 4.94138C2.82547 4.75363 2.92716 4.5771 3.09541 4.49297L7.78975 2.14582C7.92172 2.07988 8.07703 2.07985 8.209 2.14582L12.9034 4.49297C13.0716 4.57707 13.1733 4.75366 13.1616 4.94141C13.1106 5.75904 12.9655 7.013 12.5637 8.3436C11.7601 11.0041 10.2943 12.8764 8.20709 13.9085Z" fill="#29CD7E"/>
</svg>
