<svg width="44" height="44" viewBox="0 0 44 44" fill="none" xmlns="http://www.w3.org/2000/svg">
<path d="M21.9997 5.9661C21.5878 5.9661 21.2539 5.63221 21.2539 5.22034V0.745763C21.2539 0.333889 21.5878 0 21.9997 0C22.4115 0 22.7454 0.333889 22.7454 0.745763V5.22034C22.7454 5.63221 22.4115 5.9661 21.9997 5.9661Z" fill="#FFCD1E"/>
<path d="M27.2204 6.71186C26.8085 6.71186 26.4746 6.37797 26.4746 5.9661V0.745763C26.4746 0.333889 26.8085 0 27.2204 0C27.6323 0 27.9661 0.333889 27.9661 0.745763V5.9661C27.9661 6.37797 27.6323 6.71186 27.2204 6.71186Z" fill="#FFCD1E"/>
<path d="M32.4411 8.94912C32.0292 8.94912 31.6953 8.61524 31.6953 8.20336V5.22031C31.6953 4.80844 32.0292 4.47455 32.4411 4.47455C32.853 4.47455 33.1868 4.80844 33.1868 5.22031V8.20336C33.1868 8.61524 32.853 8.94912 32.4411 8.94912Z" fill="#FFCD1E"/>
<path d="M32.4411 2.98305C32.0292 2.98305 31.6953 2.64916 31.6953 2.23729V0.745763C31.6953 0.333889 32.0292 0 32.4411 0C32.853 0 33.1868 0.333889 33.1868 0.745763V2.23729C33.1868 2.64916 32.853 2.98305 32.4411 2.98305Z" fill="#FFCD1E"/>
<path d="M37.6618 21.6271C37.2499 21.6271 36.916 21.2932 36.916 20.8814V4.47458C36.916 4.06271 37.2499 3.72882 37.6618 3.72882C38.0737 3.72882 38.4075 4.06271 38.4075 4.47458V20.8814C38.4075 21.2932 38.0737 21.6271 37.6618 21.6271Z" fill="#FFCD1E"/>
<path d="M16.7809 6.71186C16.369 6.71186 16.0352 6.37797 16.0352 5.9661V0.745763C16.0352 0.333889 16.369 0 16.7809 0C17.1928 0 17.5267 0.333889 17.5267 0.745763V5.9661C17.5267 6.37797 17.1928 6.71186 16.7809 6.71186Z" fill="#FFCD1E"/>
<path d="M11.5602 8.94912C11.1483 8.94912 10.8145 8.61524 10.8145 8.20336V5.22031C10.8145 4.80844 11.1483 4.47455 11.5602 4.47455C11.9721 4.47455 12.306 4.80844 12.306 5.22031V8.20336C12.306 8.61524 11.9721 8.94912 11.5602 8.94912Z" fill="#FFCD1E"/>
<path d="M11.5602 2.98305C11.1483 2.98305 10.8145 2.64916 10.8145 2.23729V0.745763C10.8145 0.333889 11.1483 0 11.5602 0C11.9721 0 12.306 0.333889 12.306 0.745763V2.23729C12.306 2.64916 11.9721 2.98305 11.5602 2.98305Z" fill="#FFCD1E"/>
<path d="M6.33952 21.6271C5.92764 21.6271 5.59375 21.2932 5.59375 20.8814V4.47458C5.59375 4.06271 5.92764 3.72882 6.33952 3.72882C6.75139 3.72882 7.08528 4.06271 7.08528 4.47458V20.8814C7.08528 21.2932 6.75139 21.6271 6.33952 21.6271Z" fill="#FFCD1E"/>
<path d="M21.9999 44C31.8848 44 39.8982 35.9866 39.8982 26.1017C39.8982 16.2167 31.8848 8.20337 21.9999 8.20337C12.1149 8.20337 4.10156 16.2167 4.10156 26.1017C4.10156 35.9866 12.1149 44 21.9999 44Z" fill="#F19B15"/>
<path d="M21.9992 41.017C30.2367 41.017 36.9145 34.3392 36.9145 26.1017C36.9145 17.8642 30.2367 11.1865 21.9992 11.1865C13.7618 11.1865 7.08398 17.8642 7.08398 26.1017C7.08398 34.3392 13.7618 41.017 21.9992 41.017Z" fill="#FFCD1E"/>
<path d="M21.999 41.7627C13.3536 41.7533 6.34741 34.7471 6.33796 26.1017C6.33061 23.6532 6.90359 21.2378 8.00996 19.0535C8.12486 18.8071 8.36477 18.6427 8.63606 18.6245C8.90735 18.6064 9.16703 18.7373 9.31375 18.9662C9.46046 19.1951 9.47096 19.4858 9.34115 19.7247C8.34054 21.7011 7.8225 23.8865 7.82949 26.1017C7.82949 31.4687 10.8618 36.3751 15.6622 38.7753C20.4626 41.1755 26.2071 40.6575 30.5007 37.4373C30.7138 37.2774 30.9961 37.2434 31.2411 37.3481C31.4861 37.4527 31.6567 37.6802 31.6885 37.9447C31.7204 38.2092 31.6087 38.4707 31.3956 38.6305C28.6892 40.6722 25.3891 41.7722 21.999 41.7627Z" fill="#FFE48F"/>
<path d="M35.3011 33.6011C35.0419 33.6007 34.8016 33.4658 34.6662 33.2449C34.5309 33.0239 34.5199 32.7485 34.6373 32.5175C35.6507 30.5311 36.1759 28.3317 36.1691 26.1017C36.1691 20.7347 33.1368 15.8283 28.3364 13.4281C23.536 11.0279 17.7916 11.5459 13.498 14.7661C13.1685 15.0132 12.701 14.9465 12.4539 14.617C12.2068 14.2875 12.2735 13.82 12.603 13.5729C18.4292 9.20667 26.4956 9.43015 32.071 14.1123C37.6465 18.7944 39.2611 26.7007 35.9678 33.1939C35.8401 33.4445 35.5823 33.6019 35.3011 33.6011Z" fill="#FFE48F"/>
<path d="M23.3664 15.8057L25.4202 20.1356C25.6341 20.6004 26.0652 20.9283 26.5702 21.0104L31.1268 21.698C31.7183 21.8156 32.1972 22.2489 32.3732 22.8258C32.5493 23.4026 32.3938 24.0295 31.9687 24.4573L28.7001 27.77C28.3304 28.151 28.1643 28.6852 28.2526 29.2086L29.0282 33.9069C29.1532 34.4896 28.9327 35.0923 28.4612 35.4567C27.9897 35.8211 27.3508 35.8826 26.8185 35.6147L22.7019 33.3647C22.264 33.1239 21.7333 33.1239 21.2954 33.3647L17.1788 35.6147C16.6464 35.8826 16.0076 35.8211 15.5361 35.4567C15.0645 35.0923 14.844 34.4896 14.9691 33.9069L15.7447 29.2086C15.833 28.6852 15.6668 28.151 15.2972 27.77L12.0285 24.4573C11.6035 24.0295 11.448 23.4026 11.624 22.8258C11.8001 22.2489 12.279 21.8156 12.8705 21.698L17.4271 21.0104C17.9326 20.9287 18.3643 20.6007 18.5786 20.1356L20.6324 15.8102C20.8687 15.2663 21.4049 14.9141 21.9979 14.9131C22.591 14.9121 23.1282 15.2626 23.3664 15.8057Z" fill="#F19B15"/>
</svg>
