<svg width="34" height="34" viewBox="0 0 34 34" fill="none" xmlns="http://www.w3.org/2000/svg">
<path d="M10.4984 23.5815L9.15052 23.6473L6.53717 31.1556C6.4539 31.3947 6.64767 31.6393 6.89955 31.6128L10.5627 31.2293C10.665 31.2186 10.7668 31.254 10.8404 31.3259L13.4737 33.9011C13.6547 34.0781 13.9585 34.0067 14.0417 33.7676L16.6721 26.2102L15.8965 25.4575L10.4984 23.5815Z" fill="#FF4755"/>
<path d="M16.672 26.2106L17.2035 24.6836L9.68031 22.1252L9.15039 23.6477C11.2867 25.1721 13.8733 26.1052 16.672 26.2106Z" fill="#FC2B3A"/>
<path d="M23.908 23.5815L25.2559 23.6473L27.8692 31.1556C27.9525 31.3947 27.7587 31.6393 27.5069 31.6128L23.8437 31.2293C23.7414 31.2186 23.6396 31.254 23.5661 31.3259L20.9328 33.9011C20.7517 34.0781 20.448 34.0067 20.3648 33.7676L17.7344 26.2102L18.51 25.4575L23.908 23.5815Z" fill="#FF4755"/>
<path d="M17.7346 26.2106L17.2031 24.6836L24.7263 22.1252L25.2562 23.6477C23.1199 25.1721 20.5333 26.1052 17.7346 26.2106Z" fill="#FC2B3A"/>
<path d="M17.2019 23.914C4.86017 23.914 4.86535 11.9257 4.87558 11.7196C5.19957 5.19257 10.5944 0 17.2019 0C23.8095 0 29.2042 5.19257 29.5282 11.7197C29.5385 11.9258 29.5436 23.914 17.2019 23.914Z" fill="#FFE27A"/>
<path d="M17.2031 23.4391C10.5955 23.4391 5.20093 18.2465 4.87687 11.7194C4.86664 11.9254 4.86133 12.1328 4.86133 12.3414C4.86133 19.1575 10.3869 24.6831 17.2031 24.6831C24.0192 24.6831 29.5448 19.1575 29.5448 12.3414C29.5448 12.1327 29.5395 11.9254 29.5293 11.7194C29.2052 18.2465 23.8106 23.4391 17.2031 23.4391Z" fill="#F9CF58"/>
<path d="M17.202 21.2582C7.4989 21.2582 7.48589 11.7168 7.4989 11.5111C7.81971 6.43129 12.0413 2.41052 17.202 2.41052C22.3627 2.41052 26.5843 6.43129 26.9051 11.5111C26.9181 11.7168 26.9051 21.2582 17.202 21.2582Z" fill="#FFBA57"/>
<path d="M17.2031 20.82C12.0425 20.82 7.82166 16.7991 7.50086 11.7194C7.48784 11.9251 7.48047 12.1324 7.48047 12.3414C7.48047 17.7111 11.8335 22.0641 17.2031 22.0641C22.5728 22.0641 26.9258 17.7111 26.9258 12.3414C26.9258 12.1323 26.9184 11.9251 26.9054 11.7194C26.5846 16.7991 22.3638 20.82 17.2031 20.82Z" fill="#FFAC3E"/>
<path d="M17.7589 18.1167C17.0839 18.1167 16.5367 17.5695 16.5367 16.8944V16.2479V10.0445C16.5367 10.0445 15.8053 10.778 14.9303 10.3379C14.248 9.99478 14.248 9.11164 14.248 9.11164L15.755 6.56788C15.9751 6.19641 16.3748 5.96857 16.8066 5.96857H17.7589C18.434 5.96857 18.9812 6.51575 18.9812 7.19084V16.2479V16.8944C18.9812 17.5695 18.434 18.1167 17.7589 18.1167Z" fill="#FFE27A"/>
<path d="M16.3676 9.08437C16.0432 9.63202 15.3534 9.86949 14.7782 9.59689C14.5453 9.48659 14.3658 9.3152 14.2465 9.11279C13.9071 9.68694 14.0909 10.4256 14.656 10.7745C15.2388 11.1345 16.0175 10.9196 16.3665 10.3302L16.5356 10.0447V9.13026C16.5356 9.03848 16.4144 9.00535 16.3676 9.08437Z" fill="#F9CF58"/>
<path d="M17.7574 17.4706C17.0824 17.4706 16.5352 16.9234 16.5352 16.2483V17.4924C16.5352 18.1675 17.0824 18.7147 17.7574 18.7147C18.4324 18.7147 18.9797 18.1675 18.9797 17.4924V16.2483C18.9797 16.9234 18.4324 17.4706 17.7574 17.4706Z" fill="#F9CF58"/>
</svg>
