<svg width="281" height="42" viewBox="0 0 281 42" fill="none" xmlns="http://www.w3.org/2000/svg">
<path d="M99.157 20.9505L92.0832 20.3588C89.3465 20.1598 89.03 19.107 89.03 18.3323C89.03 16.3859 91.3114 15.0781 94.7073 15.0781C97.9155 15.0781 99.9371 16.1332 100.252 17.9718C100.392 18.807 100.956 18.9036 101.367 18.9036H105.883C106.547 18.9036 107.048 18.4428 107.048 17.8315C107.048 13.7031 103.818 9.29135 94.7526 9.29135C88.7219 9.29135 82.2305 12.2347 82.2305 18.6968C82.2305 23.0046 85.357 25.6332 91.0337 26.0973L98.1491 26.6895C99.6892 26.8178 101.525 27.3286 101.525 29.0346C101.525 31.0701 99.21 32.3344 95.4827 32.3344C91.6047 32.3344 89.4925 31.176 89.0241 28.7933C88.9013 28.1816 88.496 27.8713 87.8196 27.8713H83.395C82.7418 27.8713 82.2305 28.3622 82.2305 28.9886V29.353C82.2305 34.5156 87.6801 38.1206 95.4827 38.1206C104.355 38.1206 108.326 33.4195 108.326 28.7608C108.326 24.2961 104.984 21.4495 99.157 20.9505" fill="#F6911C"/>
<path d="M152.237 9.74708H146.763C146.091 9.74708 145.904 9.86726 145.581 10.5098L139.424 23.5768C138.943 24.5691 138.427 26.0863 138.15 26.9416C137.957 26.3083 137.631 25.3078 137.23 24.3653L131.406 10.5057C131.212 10.0446 130.764 9.74708 130.263 9.74708H128.595C128.094 9.74708 127.646 10.0446 127.452 10.5057L121.629 24.3611C121.227 25.2803 120.899 26.2932 120.707 26.9359C120.429 26.0806 119.915 24.568 119.435 23.5798L113.278 10.5122C112.957 9.81728 112.767 9.74708 112.095 9.74708H106.622C106.163 9.74708 105.959 10.0333 105.959 10.3177C105.959 10.5271 106.075 10.8026 106.168 10.9882L118.096 36.9436C118.297 37.3822 118.739 37.6655 119.223 37.6655H121.781C122.279 37.6655 122.727 37.3692 122.922 36.9109L129.02 22.5444C129.173 22.1748 129.324 21.7295 129.442 21.3581C129.57 21.7291 129.732 22.1753 129.884 22.5467L135.937 36.9081C136.131 37.368 136.579 37.6655 137.079 37.6655H139.636C140.12 37.6655 140.562 37.3822 140.763 36.9436L152.686 10.9971C152.784 10.802 152.9 10.5259 152.9 10.3177C152.9 10.0333 152.695 9.74708 152.237 9.74708" fill="#F6911C"/>
<path d="M182.621 9.74708H176.828C176.241 9.74708 175.89 9.84763 175.49 10.4188L170.793 17.0203C169.975 18.1559 169.04 19.771 168.663 20.4355C168.281 19.7575 167.33 18.1057 166.533 17.022L161.836 10.4206C161.435 9.84763 161.086 9.74708 160.497 9.74708H154.705C154.379 9.74708 154.133 9.99221 154.133 10.3177C154.133 10.4944 154.213 10.6871 154.411 10.984C154.412 10.9852 154.413 10.987 154.414 10.9888L165.263 26.5319V36.8216C165.263 37.2548 165.674 37.6655 166.108 37.6655H171.217C171.652 37.6655 172.063 37.2548 172.063 36.8216V26.5319L182.915 10.984C183.112 10.6877 183.192 10.495 183.192 10.3177C183.192 9.99221 182.947 9.74708 182.621 9.74708" fill="#F6911C"/>
<path d="M192.501 4.99565C191.445 3.9943 189.552 3.66289 186.872 4.01214C186.743 4.0288 186.64 4.12757 186.617 4.25549L184.61 15.7312C184.584 15.8781 184.672 16.0215 184.814 16.0661L188.738 17.2961C188.767 17.3056 188.797 17.3098 188.827 17.3098C188.923 17.3098 189.014 17.264 189.071 17.1829C190.407 15.2771 193.226 10.4731 193.412 7.79088C193.506 6.59853 193.199 5.65787 192.501 4.99565" fill="#F6911C"/>
<path d="M201.375 21.1124H214.095C213.968 18.89 211.997 16.9222 208.053 16.9222C204.937 16.9222 202.139 18.3187 201.375 21.1124ZM201.248 26.573C201.757 29.8751 205 31.1455 209.198 31.1455C211.997 31.1455 214.923 30.0657 217.149 28.7321C217.658 28.4148 218.103 28.2245 218.611 28.2245C218.993 28.2245 219.502 28.4148 219.756 28.9227L221.346 32.0345C221.537 32.4147 221.664 32.7324 221.664 33.0501C221.664 33.4945 221.41 33.8752 220.838 34.3198C218.23 36.3523 214.413 38.0027 208.88 38.0027C199.848 38.0027 192.852 33.1131 192.852 24.3511C192.852 16.7314 198.577 10.699 207.99 10.699C217.658 10.699 222.236 16.2236 222.236 22.6998C222.236 24.6683 221.919 26.573 221.919 26.573H201.248" fill="white"/>
<path d="M246.85 29.5579V27.5893H239.154C236.356 27.5893 235.592 28.6049 235.592 29.7477C235.592 30.8276 236.483 31.7798 238.645 31.7798C241.698 31.7798 245.07 30.7641 246.85 29.5579ZM247.168 34.7649C244.56 36.7325 241.19 38.0027 237.246 38.0027C230.631 38.0027 227.451 34.3198 227.451 29.9383C227.451 25.684 230.568 22.0014 238.519 22.0014C242.27 22.0014 246.723 22.446 246.723 22.446L246.85 22.3825V21.6841C246.85 19.0172 245.133 17.1759 240.999 17.1759C237.946 17.1759 236.674 18.1916 236.61 19.8429V19.9696C236.546 20.3508 236.037 20.5413 235.529 20.5413H229.55C229.168 20.5413 228.469 19.8429 228.469 19.4617V19.208C228.469 14.509 232.094 10.699 241.062 10.699C250.921 10.699 254.991 15.9058 254.991 22.6366V36.2879C254.991 36.6693 254.292 37.368 253.91 37.368H249.203C248.758 37.368 248.377 37.1137 248.122 36.5426L247.359 34.7649H247.168Z" fill="white"/>
<path d="M259.316 18.1916C258.934 18.1916 258.426 17.6838 258.426 17.3026V12.2232C258.426 11.842 258.934 11.3342 259.316 11.3342H262.242V5.42921C262.242 5.04783 262.942 4.34932 263.323 4.34932H269.302C269.684 4.34932 270.383 5.04783 270.383 5.42921V11.3342H278.524C278.905 11.3342 279.415 11.842 279.415 12.2232V17.3026C279.415 17.6838 278.905 18.1916 278.524 18.1916H270.383V27.0815C270.383 30.1289 271.909 31.1455 274.2 31.1455C275.471 31.1455 277.061 30.4468 278.015 29.9383C278.651 29.6211 279.224 29.9383 279.415 30.4468L280.496 33.6219C280.623 34.0662 280.751 34.5106 280.751 34.7649C280.751 35.2092 280.432 35.6536 279.86 36.0339C278.524 36.9229 275.79 38.0027 272.8 38.0027C266.63 38.0027 262.242 34.6375 262.242 27.7799V18.1916H259.316" fill="white"/>
<path d="M8.20738 11.6404C9.1805 9.89352 11.8988 6.86507 16.7043 6.66396C17.3289 6.63778 17.7512 6.03566 17.5512 5.44425C16.9392 3.63432 14.9627 0.42974 8.62528 0.192342C8.1215 0.173303 7.64352 0.43093 7.39702 0.869432C6.53559 2.4033 4.8303 6.90077 7.05314 11.5852C7.28039 12.0637 7.94944 12.1035 8.20738 11.6404Z" fill="white"/>
<path d="M56.3491 11.6404C55.3758 9.89352 52.6576 6.86507 47.8522 6.66396C47.2276 6.63778 46.805 6.03566 47.0053 5.44425C47.6174 3.63432 49.5936 0.42974 55.9313 0.192342C56.4349 0.173303 56.9129 0.43093 57.1596 0.869432C58.0208 2.4033 59.7259 6.90077 57.5035 11.5852C57.2758 12.0637 56.6071 12.1035 56.3491 11.6404Z" fill="white"/>
<path d="M25.7454 26.7526C25.6967 26.8821 25.6269 26.9962 25.5652 27.1166C25.0349 26.3287 24.2708 25.6875 23.3123 25.3291C21.7933 24.7611 20.1674 25.0265 18.9342 25.8934C18.8758 25.3618 18.9233 24.8119 19.1239 24.2769C19.8086 22.4515 21.8462 21.5261 23.6746 22.2096C25.5028 22.8931 26.4301 24.9273 25.7454 26.7526V26.7526ZM22.3122 14.6838C22.1914 14.6708 22.0692 14.6589 21.9456 14.648C9.58359 13.5591 0.253906 22.5371 0.253906 22.5371C0.253906 22.5371 5.98743 33.3667 21.0965 34.6975C21.0965 34.6975 21.604 32.9549 25.8146 30.4543C32.8349 26.2848 30.4343 15.5528 22.3122 14.6838Z" fill="white"/>
<path d="M44.9171 26.0424C43.7042 25.1469 42.0849 24.8436 40.5533 25.3758C39.5866 25.7116 38.8076 26.3347 38.2587 27.1101C38.2003 26.9885 38.133 26.8728 38.0877 26.7422C37.4458 24.9012 38.4203 22.8894 40.2642 22.2489C42.1082 21.6081 44.1232 22.581 44.7651 24.422C44.9534 24.9614 44.988 25.5125 44.9171 26.0424V26.0424ZM41.9854 14.6471C41.8621 14.6577 41.7399 14.6696 41.6189 14.6824C33.4963 15.5456 31.0879 26.2757 38.105 30.4503C42.3138 32.9541 42.8198 34.697 42.8198 34.697C57.9303 33.3774 63.6714 22.5517 63.6714 22.5517C63.6714 22.5517 54.3485 13.5673 41.9854 14.6471Z" fill="white"/>
<path d="M31.9626 34.6976C29.3451 34.6976 26.7344 36.2429 26.7344 39.4902C26.7344 40.0352 28.205 39.9097 29.214 40.3678C29.6908 40.5844 30.3699 41.0967 30.7322 41.3804C31.0937 41.6637 31.5282 41.8059 31.9626 41.8071C32.3971 41.8059 32.8316 41.6637 33.1933 41.3804C33.5557 41.0967 34.2345 40.5844 34.7113 40.3678C35.7203 39.9097 37.1912 40.0352 37.1912 39.4902C37.1912 36.2429 34.5802 34.6976 31.9626 34.6976" fill="white"/>
</svg>
