<svg width="34" height="34" viewBox="0 0 34 34" fill="none" xmlns="http://www.w3.org/2000/svg">
<path d="M15.6393 25.3544L10.5429 23.6556L9.04889 23.6473L6.43561 31.1555C6.35233 31.3946 6.54611 31.6392 6.79799 31.6128L10.4612 31.2292C10.5635 31.2185 10.6652 31.2539 10.7388 31.3258L13.3721 33.901C13.5532 34.078 13.8569 34.0066 13.9401 33.7675L16.5705 26.2102L15.6393 25.3544Z" fill="#0083FD"/>
<path d="M16.5704 26.2106L17.1019 24.6836L9.57875 22.1252L9.04883 23.6477C11.1851 25.1721 13.7718 26.1052 16.5704 26.2106Z" fill="#0072FC"/>
<path d="M18.5639 25.3544L23.6603 23.6556L25.1543 23.6473L27.7677 31.1556C27.8509 31.3947 27.6572 31.6393 27.4053 31.6128L23.7421 31.2293C23.6398 31.2186 23.5381 31.254 23.4645 31.3259L20.8312 33.9011C20.6502 34.0781 20.3464 34.0067 20.2632 33.7676L17.6328 26.2102L18.5639 25.3544Z" fill="#0083FD"/>
<path d="M17.6331 26.2106L17.1016 24.6836L24.6247 22.1252L25.1546 23.6477C23.0184 25.1721 20.4317 26.1052 17.6331 26.2106Z" fill="#0072FC"/>
<path d="M17.1003 23.6476C4.77398 23.6476 4.76375 11.9258 4.77398 11.7197C5.09798 5.19257 10.4928 0 17.1003 0C23.7079 0 29.1026 5.19257 29.4266 11.7197C29.4369 11.9258 29.4266 23.6476 17.1003 23.6476Z" fill="#FF9838"/>
<path d="M17.1015 23.439C10.4939 23.439 5.09937 18.2464 4.7753 11.7194C4.76508 11.9254 4.75977 12.1328 4.75977 12.3414C4.75977 19.1575 10.2854 24.6831 17.1015 24.6831C23.9176 24.6831 29.4432 19.1575 29.4432 12.3414C29.4432 12.1328 29.4379 11.9254 29.4277 11.7194C29.1036 18.2464 23.7091 23.439 17.1015 23.439Z" fill="#FF8709"/>
<path d="M26.8242 12.3418C26.8242 16.505 22.4713 21.4668 17.1016 21.4668C11.7319 21.4668 7.37891 16.232 7.37891 12.3418C7.37891 12.1328 7.38548 11.9254 7.3985 11.7197C7.71924 6.63984 11.9409 2.61908 17.1016 2.61908C22.2623 2.61908 26.4839 6.63984 26.8047 11.7197C26.8177 11.9254 26.8242 12.1328 26.8242 12.3418Z" fill="#CE7430"/>
<path d="M17.1016 20.8199C11.9409 20.8199 7.7201 16.799 7.39929 11.7194C7.38628 11.9251 7.37891 12.1323 7.37891 12.3414C7.37891 17.7111 11.7319 22.0641 17.1016 22.0641C22.4712 22.0641 26.8242 17.7111 26.8242 12.3414C26.8242 12.1323 26.8169 11.9251 26.8039 11.7194C26.483 16.799 22.2622 20.8199 17.1016 20.8199Z" fill="#BC672E"/>
<path d="M17.1139 18.1172C15.0199 18.1172 13.6876 16.6737 13.4311 14.9611C13.4078 14.8053 13.4004 14.471 13.4004 14.471C13.5787 14.0167 14.0211 13.695 14.5386 13.695C15.2136 13.695 15.7609 14.2422 15.7609 14.9173C15.7609 15.6634 16.3678 16.2703 17.1139 16.2703C17.86 16.2703 18.467 15.6634 18.467 14.9173C18.467 14.693 18.4122 14.4813 18.3151 14.2948C18.3151 14.2948 18.2234 13.1422 17.1794 13.1422C16.1322 13.1422 16.062 11.7193 16.062 11.7193C16.275 11.3604 16.6664 11.1198 17.114 11.1198C17.8601 11.1198 18.4671 10.5128 18.4671 9.76675C18.4671 9.02067 17.8601 8.41372 17.114 8.41372C16.3679 8.41372 15.761 9.02067 15.761 9.76675C15.761 10.4418 15.2137 10.989 14.5387 10.989C13.8637 10.989 13.3164 10.4418 13.3164 9.76675C13.3164 7.67282 15.02 5.96924 17.1139 5.96924C19.2079 5.96924 20.9115 7.67282 20.9115 9.76675C20.9115 10.7597 20.5286 11.6646 19.9025 12.342C20.3951 12.875 20.7372 13.5489 20.8607 14.2957C20.8607 14.2957 20.8645 14.7055 20.8289 14.9142C20.5259 16.6954 19.2079 18.1172 17.1139 18.1172Z" fill="#FFAA5C"/>
<path d="M17.1148 12.3195C16.6672 12.3195 16.2769 12.0782 16.064 11.7194C15.9558 11.9017 15.8926 12.1139 15.8926 12.3414C15.8926 13.0165 16.4398 13.5637 17.1149 13.5637C17.6366 13.5637 18.0895 13.861 18.3151 14.2947C18.4122 14.1083 18.4679 13.897 18.4679 13.6727C18.4679 12.9265 17.8609 12.3195 17.1148 12.3195Z" fill="#EA9957"/>
<path d="M17.114 17.4701C15.2939 17.4701 13.7693 16.1827 13.4015 14.4708C13.3473 14.6091 13.3164 14.7591 13.3164 14.9167C13.3164 17.0107 15.02 18.7143 17.114 18.7143C19.208 18.7143 20.9116 17.0107 20.9116 14.9167C20.9116 14.705 20.8932 14.4976 20.8597 14.2952C20.5617 16.0938 18.9959 17.4701 17.114 17.4701Z" fill="#EA9957"/>
</svg>
