<svg width="34" height="34" viewBox="0 0 34 34" fill="none" xmlns="http://www.w3.org/2000/svg">
<path d="M15.7386 25.4198L10.2581 23.5244L9.04889 23.6476L6.43561 31.1559C6.35233 31.395 6.54611 31.6396 6.79799 31.6132L10.4612 31.2296C10.5635 31.2189 10.6652 31.2543 10.7388 31.3262L13.3721 33.9014C13.5532 34.0784 13.8569 34.007 13.9401 33.7679L16.5705 26.2105L15.7386 25.4198Z" fill="#98DB7C"/>
<path d="M16.5704 26.2106L17.1019 24.6836L9.57875 22.1252L9.04883 23.6477C11.1851 25.1721 13.7718 26.1052 16.5704 26.2106Z" fill="#82D361"/>
<path d="M18.4646 25.4198L23.9451 23.5244L25.1543 23.6476L27.7677 31.1559C27.8509 31.395 27.6572 31.6396 27.4053 31.6132L23.7421 31.2296C23.6398 31.2189 23.5381 31.2543 23.4645 31.3262L20.8312 33.9014C20.6502 34.0784 20.3464 34.007 20.2632 33.7679L17.6328 26.2105L18.4646 25.4198Z" fill="#98DB7C"/>
<path d="M17.6331 26.2106L17.1016 24.6836L24.6247 22.1252L25.1546 23.6477C23.0184 25.1721 20.4317 26.1052 17.6331 26.2106Z" fill="#82D361"/>
<path d="M17.1003 23.8689C4.77398 23.8689 4.76375 11.9258 4.77398 11.7197C5.09798 5.19257 10.4928 0 17.1003 0C23.7035 0 29.0955 5.18566 29.426 11.7066C29.4367 11.917 29.426 23.8689 17.1003 23.8689Z" fill="#E0E0E0"/>
<path d="M17.1015 23.4391C10.4939 23.4391 5.09937 18.2465 4.7753 11.7194C4.76508 11.9254 4.75977 12.1328 4.75977 12.3414C4.75977 19.1575 10.2854 24.6831 17.1015 24.6831C23.9176 24.6831 29.4432 19.1575 29.4432 12.3414C29.4432 12.1327 29.4379 11.9254 29.4277 11.7194C29.1036 18.2465 23.7091 23.4391 17.1015 23.4391Z" fill="#CECECE"/>
<path d="M17.1005 21.2918C7.37782 21.2918 7.3844 11.9254 7.39741 11.7197C7.71822 6.63984 11.9398 2.61908 17.1005 2.61908C22.2612 2.61908 26.4828 6.63984 26.8036 11.7197C26.8166 11.9254 26.8036 21.2918 17.1005 21.2918Z" fill="#9E9E9E"/>
<path d="M17.1016 20.8199C11.9409 20.8199 7.7201 16.799 7.39929 11.7194C7.38628 11.9251 7.37891 12.1324 7.37891 12.3414C7.37891 17.7111 11.7319 22.0641 17.1016 22.0641C22.4712 22.0641 26.8242 17.7111 26.8242 12.3414C26.8242 12.1323 26.8169 11.9251 26.8039 11.7194C26.483 16.799 22.2622 20.8199 17.1016 20.8199Z" fill="#898989"/>
<path d="M19.9015 18.1167H14.3285C13.6535 18.1167 13.1323 16.9416 13.1831 16.6731C13.3241 15.9273 13.6559 15.2246 14.1514 14.639L18.0726 10.0046C18.4395 9.57097 18.2758 9.10374 18.2168 8.97079C18.1452 8.80923 17.9224 8.43144 17.4034 8.41391C17.3883 8.41338 17.3727 8.41311 17.3571 8.41311C16.6281 8.41311 16.035 9.00625 16.035 9.73533C16.035 10.4103 15.4877 10.9576 14.8127 10.9576C14.1377 10.9576 13.5904 10.4104 13.5904 9.73533C13.5904 7.65841 15.2801 5.96857 17.3571 5.96857C17.4001 5.96857 17.4429 5.9693 17.4854 5.97076C18.785 6.01459 19.9213 6.7845 20.4515 7.97988C20.9895 9.19312 20.793 10.574 19.9387 11.5836L16.0175 16.218C16.0031 16.235 15.989 16.2523 15.9752 16.2698H19.9016C20.3491 16.2698 20.7405 16.5104 20.9535 16.8694C21.0616 17.0517 20.5765 18.1167 19.9015 18.1167Z" fill="#E0E0E0"/>
<path d="M19.8987 17.4703H14.3258C13.8005 17.4703 13.3539 17.1383 13.1811 16.6733C13.1303 16.9419 13.1035 17.2159 13.1035 17.4921C13.1035 18.1672 13.6508 18.7144 14.3258 18.7144H19.8987C20.5738 18.7144 21.121 18.1672 21.121 17.4921C21.121 17.2647 21.0577 17.0525 20.9495 16.8701C20.7366 17.229 20.3463 17.4703 19.8987 17.4703Z" fill="#CECECE"/>
</svg>
