<svg width="20" height="20" viewBox="0 0 20 20" fill="none" xmlns="http://www.w3.org/2000/svg">
<path fill-rule="evenodd" clip-rule="evenodd" d="M3.72039 12.887C4.50179 12.1056 5.5616 11.6667 6.66667 11.6667H13.3333C14.4384 11.6667 15.4982 12.1056 16.2796 12.887C17.061 13.6684 17.5 14.7283 17.5 15.8333V17.5C17.5 17.9602 17.1269 18.3333 16.6667 18.3333C16.2064 18.3333 15.8333 17.9602 15.8333 17.5V15.8333C15.8333 15.1703 15.5699 14.5344 15.1011 14.0656C14.6323 13.5967 13.9964 13.3333 13.3333 13.3333H6.66667C6.00363 13.3333 5.36774 13.5967 4.8989 14.0656C4.43006 14.5344 4.16667 15.1703 4.16667 15.8333V17.5C4.16667 17.9602 3.79357 18.3333 3.33333 18.3333C2.8731 18.3333 2.5 17.9602 2.5 17.5V15.8333C2.5 14.7283 2.93899 13.6684 3.72039 12.887Z" fill="#ADB6BE"/>
<path fill-rule="evenodd" clip-rule="evenodd" d="M10.0007 3.33329C8.61994 3.33329 7.50065 4.45258 7.50065 5.83329C7.50065 7.214 8.61994 8.33329 10.0007 8.33329C11.3814 8.33329 12.5007 7.214 12.5007 5.83329C12.5007 4.45258 11.3814 3.33329 10.0007 3.33329ZM5.83398 5.83329C5.83398 3.53211 7.69946 1.66663 10.0007 1.66663C12.3018 1.66663 14.1673 3.53211 14.1673 5.83329C14.1673 8.13448 12.3018 9.99996 10.0007 9.99996C7.69946 9.99996 5.83398 8.13448 5.83398 5.83329Z" fill="#ADB6BE"/>
</svg>
