<svg width="25" height="24" viewBox="0 0 25 24" fill="none" xmlns="http://www.w3.org/2000/svg">
<path d="M12.5 12L15 14M12.5 12V21V12ZM12.5 12L10 14L12.5 12Z" stroke="#F19B15" stroke-width="2" stroke-linecap="round" stroke-linejoin="round"/>
<path d="M5.53323 9.11719C4.58744 9.35518 3.76111 9.93035 3.20948 10.7346C2.65786 11.5389 2.41891 12.5169 2.53754 13.485C2.65616 14.453 3.12419 15.3444 3.85369 15.9917C4.5832 16.639 5.52396 16.9976 6.49923 17.0002H7.49923" stroke="#F19B15" stroke-width="2" stroke-linecap="round" stroke-linejoin="round"/>
<path d="M16.3287 7.13821C15.9869 5.78478 15.1433 4.61195 13.9688 3.85746C12.7944 3.10298 11.377 2.8233 10.004 3.07511C8.63093 3.32692 7.40503 4.09139 6.57476 5.21354C5.74448 6.3357 5.37195 7.73157 5.53269 9.11821C5.53269 9.11821 5.68569 10.0002 5.99869 10.5002" stroke="#F19B15" stroke-width="2" stroke-linecap="round" stroke-linejoin="round"/>
<path d="M17.5 17C18.206 16.9995 18.904 16.8495 19.5479 16.5599C20.1917 16.2702 20.767 15.8475 21.2357 15.3195C21.7045 14.7915 22.0561 14.1702 22.2674 13.4965C22.4787 12.8229 22.545 12.1121 22.4618 11.4109C22.3786 10.7098 22.1479 10.0343 21.7848 9.42874C21.4217 8.82321 20.9345 8.30145 20.3552 7.89778C19.776 7.49412 19.1178 7.21772 18.424 7.08676C17.7302 6.9558 17.0166 6.97327 16.33 7.138L15 7.5" stroke="#F19B15" stroke-width="2" stroke-linecap="round" stroke-linejoin="round"/>
</svg>
