<svg width="16" height="16" viewBox="0 0 16 16" fill="none" xmlns="http://www.w3.org/2000/svg">
<path d="M6.9499 2.72496C7.15998 2.66076 7.38267 2.64946 7.59817 2.69206C7.81367 2.73467 8.01531 2.82986 8.18515 2.96917C8.355 3.10848 8.4878 3.2876 8.57174 3.4906C8.65568 3.6936 8.68816 3.9142 8.6663 4.13278C8.64443 4.35136 8.5689 4.56115 8.44642 4.74351C8.32394 4.92587 8.1583 5.07513 7.96422 5.17805C7.77015 5.28096 7.55365 5.33433 7.33398 5.3334H1.33398M9.96422 10.8221C10.1583 10.925 10.3239 11.0743 10.4464 11.2566C10.5689 11.439 10.6444 11.6488 10.6663 11.8674C10.6882 12.0859 10.6557 12.3065 10.5717 12.5095C10.4878 12.7125 10.355 12.8917 10.1852 13.031C10.0153 13.1703 9.81367 13.2655 9.59817 13.3081C9.38267 13.3507 9.15998 13.3394 8.9499 13.2752C8.73982 13.211 8.54886 13.0959 8.39398 12.9401L1.33398 10.6667M11.8207 5.1534C12.0146 4.95999 12.2531 4.81735 12.5153 4.73808C12.7774 4.65881 13.0551 4.64536 13.3236 4.69893C13.5922 4.75249 13.8435 4.87142 14.0551 5.04518C14.2668 5.21895 14.4324 5.4422 14.5373 5.6952C14.6422 5.94819 14.6831 6.22313 14.6564 6.4957C14.6297 6.76827 14.5363 7.03006 14.3844 7.25793C14.2325 7.4858 14.0267 7.67273 13.7854 7.80217C13.544 7.93161 13.2745 7.99958 13.0007 8.00007H1.33398" stroke="#F19B15" stroke-width="1.5" stroke-linecap="round" stroke-linejoin="round"/>
</svg>
