<svg width="21" height="20" viewBox="0 0 21 20" fill="none" xmlns="http://www.w3.org/2000/svg">
<g clip-path="url(#clip0_2483_11004)">
<path fill-rule="evenodd" clip-rule="evenodd" d="M10.9952 1.93645C6.54178 1.93645 2.93157 5.54666 2.93157 10.0001C2.93157 14.4535 6.54178 18.0637 10.9952 18.0637C15.4486 18.0637 19.0588 14.4535 19.0588 10.0001C19.0588 5.54666 15.4486 1.93645 10.9952 1.93645ZM1.13965 10.0001C1.13965 4.55701 5.55213 0.144531 10.9952 0.144531C16.4383 0.144531 20.8507 4.55701 20.8507 10.0001C20.8507 15.4432 16.4383 19.8556 10.9952 19.8556C5.55213 19.8556 1.13965 15.4432 1.13965 10.0001Z" fill="white"/>
<path fill-rule="evenodd" clip-rule="evenodd" d="M14.3164 6.67844C14.6663 7.02833 14.6663 7.59562 14.3164 7.94551L8.94063 13.3213C8.59074 13.6712 8.02345 13.6712 7.67355 13.3213C7.32366 12.9714 7.32366 12.4041 7.67355 12.0542L13.0493 6.67844C13.3992 6.32854 13.9665 6.32854 14.3164 6.67844Z" fill="white"/>
<path fill-rule="evenodd" clip-rule="evenodd" d="M7.67355 6.67844C8.02345 6.32854 8.59074 6.32854 8.94063 6.67844L14.3164 12.0542C14.6663 12.4041 14.6663 12.9714 14.3164 13.3213C13.9665 13.6712 13.3992 13.6712 13.0493 13.3213L7.67355 7.94551C7.32366 7.59562 7.32366 7.02833 7.67355 6.67844Z" fill="white"/>
</g>
<defs>
<clipPath id="clip0_2483_11004">
<rect width="20" height="20" fill="white" transform="translate(0.995117)"/>
</clipPath>
</defs>
</svg>
