<svg width="133" height="20" viewBox="0 0 133 20" fill="none" xmlns="http://www.w3.org/2000/svg">
<g clip-path="url(#clip0_217_889)">
<path d="M46.9315 9.97641L43.5835 9.69464C42.2882 9.5999 42.1384 9.09855 42.1384 8.72966C42.1384 7.80277 43.2182 7.18002 44.8255 7.18002C46.344 7.18002 47.3008 7.68247 47.45 8.558C47.516 8.95567 47.7829 9.00171 47.9778 9.00171H50.1151C50.4294 9.00171 50.6663 8.78225 50.6663 8.49116C50.6663 6.52526 49.1377 4.42443 44.8469 4.42443C41.9925 4.42443 38.9201 5.82604 38.9201 8.9032C38.9201 10.9545 40.3999 12.2063 43.0867 12.4273L46.4545 12.7093C47.1834 12.7704 48.0525 13.0136 48.0525 13.826C48.0525 14.7953 46.9566 15.3973 45.1925 15.3973C43.357 15.3973 42.3573 14.8457 42.1355 13.7111C42.0774 13.4198 41.8856 13.272 41.5655 13.272H39.4713C39.1621 13.272 38.9201 13.5058 38.9201 13.8041V13.9776C38.9201 16.436 41.4994 18.1526 45.1925 18.1526C49.3916 18.1526 51.2711 15.914 51.2711 13.6956C51.2711 11.5695 49.6895 10.214 46.9315 9.97641Z" fill="#F6911C"/>
<path d="M72.0547 4.64148H69.4638C69.1456 4.64148 69.057 4.69871 68.9044 5.0047L65.9902 11.227C65.7625 11.6996 65.5182 12.4221 65.3871 12.8294C65.296 12.5278 65.1417 12.0513 64.9518 11.6025L62.195 5.00271C62.1033 4.78314 61.8912 4.64148 61.6543 4.64148H60.8647C60.6277 4.64148 60.4156 4.78314 60.3239 5.00271L57.5677 11.6006C57.3773 12.0383 57.2221 12.5206 57.1313 12.8266C56.9999 12.4193 56.7564 11.6991 56.5294 11.2285L53.6151 5.00583C53.4631 4.67491 53.3734 4.64148 53.0552 4.64148H50.4645C50.2476 4.64148 50.1509 4.77775 50.1509 4.91318C50.1509 5.01291 50.2056 5.14409 50.2499 5.23249L55.8955 17.5922C55.9906 17.8011 56.1999 17.936 56.4286 17.936H57.6393C57.8755 17.936 58.0873 17.7949 58.1795 17.5766L61.0658 10.7354C61.138 10.5594 61.2097 10.3474 61.2655 10.1706C61.3262 10.3472 61.4026 10.5597 61.4749 10.7365L64.3397 17.5753C64.4317 17.7943 64.6435 17.936 64.8802 17.936H66.0906C66.3194 17.936 66.5287 17.8011 66.6237 17.5922L72.2671 5.23674C72.3134 5.14381 72.3684 5.01235 72.3684 4.91318C72.3684 4.77775 72.2713 4.64148 72.0547 4.64148Z" fill="#F6911C"/>
<path d="M86.4356 4.64148H83.6941C83.4159 4.64148 83.2501 4.68936 83.0608 4.96135L80.8374 8.10492C80.4504 8.64567 80.0078 9.41476 79.8292 9.73118C79.6487 9.40833 79.1982 8.62176 78.8213 8.10571L76.5982 4.9622C76.4084 4.68936 76.2428 4.64148 75.9644 4.64148H73.2228C73.0685 4.64148 72.952 4.75821 72.952 4.91318C72.952 4.99733 72.9898 5.08913 73.0835 5.23051C73.084 5.23107 73.0846 5.23192 73.0852 5.23277L78.2199 12.6343V17.5341C78.2199 17.7404 78.4146 17.936 78.6199 17.936H81.0382C81.2439 17.936 81.4385 17.7404 81.4385 17.5341V12.6343L86.575 5.23051C86.6683 5.08941 86.7061 4.99761 86.7061 4.91318C86.7061 4.75821 86.5899 4.64148 86.4356 4.64148Z" fill="#F6911C"/>
<path d="M91.1123 2.37885C90.6125 1.90201 89.7163 1.7442 88.4481 1.91051C88.3868 1.91845 88.338 1.96548 88.3273 2.02639L87.3773 7.49102C87.3649 7.56097 87.4066 7.62925 87.474 7.6505L89.331 8.23619C89.3448 8.24072 89.3592 8.24274 89.373 8.24274C89.4184 8.24274 89.4619 8.22092 89.4887 8.1823C90.1211 7.27476 91.4554 4.98714 91.5431 3.70991C91.5877 3.14213 91.4427 2.69419 91.1123 2.37885Z" fill="#F6911C"/>
<path d="M95.3117 10.0536H101.333C101.272 8.99529 100.339 8.05822 98.4725 8.05822C96.9977 8.05822 95.6733 8.72324 95.3117 10.0536ZM95.2516 12.6538C95.4925 14.2263 97.0276 14.8312 99.0146 14.8312C100.339 14.8312 101.724 14.317 102.778 13.682C103.019 13.5309 103.229 13.4403 103.47 13.4403C103.651 13.4403 103.891 13.5309 104.012 13.7727L104.764 15.2546C104.855 15.4356 104.915 15.5869 104.915 15.7382C104.915 15.9498 104.795 16.1311 104.524 16.3428C103.29 17.3106 101.483 18.0966 98.864 18.0966C94.5893 18.0966 91.2776 15.7682 91.2776 11.5958C91.2776 7.96736 93.9873 5.09479 98.4426 5.09479C103.019 5.09479 105.186 7.72554 105.186 10.8094C105.186 11.7469 105.035 12.6538 105.035 12.6538H95.2516Z" fill="#30445A"/>
<path d="M116.836 14.0752V13.1378H113.193C111.869 13.1378 111.507 13.6214 111.507 14.1656C111.507 14.6798 111.929 15.1333 112.952 15.1333C114.397 15.1333 115.993 14.6496 116.836 14.0752ZM116.986 16.5548C115.752 17.4917 114.157 18.0966 112.29 18.0966C109.159 18.0966 107.654 16.3428 107.654 14.2564C107.654 12.2305 109.129 10.4769 112.892 10.4769C114.668 10.4769 116.775 10.6886 116.775 10.6886L116.836 10.6584V10.3258C116.836 9.05584 116.023 8.17906 114.066 8.17906C112.621 8.17906 112.019 8.66272 111.989 9.44906V9.50938C111.959 9.69088 111.718 9.78163 111.477 9.78163H108.647C108.467 9.78163 108.136 9.44906 108.136 9.26754V9.1467C108.136 6.90908 109.852 5.09479 114.096 5.09479C118.762 5.09479 120.689 7.57425 120.689 10.7794V17.28C120.689 17.4616 120.358 17.7943 120.177 17.7943H117.95C117.739 17.7943 117.558 17.6732 117.438 17.4013L117.077 16.5548H116.986Z" fill="#30445A"/>
<path d="M122.736 8.66272C122.555 8.66272 122.315 8.4209 122.315 8.23938V5.82061C122.315 5.63911 122.555 5.39729 122.736 5.39729H124.121V2.58538C124.121 2.40377 124.452 2.07114 124.632 2.07114H127.462C127.643 2.07114 127.974 2.40377 127.974 2.58538V5.39729H131.827C132.008 5.39729 132.249 5.63911 132.249 5.82061V8.23938C132.249 8.4209 132.008 8.66272 131.827 8.66272H127.974V12.896C127.974 14.3472 128.696 14.8312 129.78 14.8312C130.382 14.8312 131.135 14.4985 131.586 14.2564C131.887 14.1053 132.158 14.2564 132.249 14.4985L132.76 16.0105C132.821 16.2221 132.881 16.4337 132.881 16.5548C132.881 16.7663 132.731 16.978 132.46 17.159C131.827 17.5824 130.533 18.0966 129.118 18.0966C126.198 18.0966 124.121 16.4941 124.121 13.2286V8.66272H122.736Z" fill="#30445A"/>
<path d="M3.88416 5.54302C4.34474 4.71115 5.63133 3.26903 7.90585 3.17327C8.20148 3.1608 8.40136 2.87408 8.3067 2.59245C8.01702 1.73058 7.08152 0.204589 4.08195 0.0915422C3.84351 0.0824761 3.61728 0.205156 3.50061 0.413966C3.09288 1.14438 2.28576 3.28603 3.33784 5.5167C3.4454 5.74458 3.76207 5.76351 3.88416 5.54302Z" fill="#30445A"/>
<path d="M26.6706 5.54302C26.2099 4.71115 24.9233 3.26903 22.6489 3.17327C22.3533 3.1608 22.1533 2.87408 22.248 2.59245C22.5377 1.73058 23.4731 0.204589 26.4728 0.0915422C26.7112 0.0824761 26.9374 0.205156 27.0542 0.413966C27.4618 1.14438 28.2689 3.28603 27.217 5.5167C27.1092 5.74458 26.7927 5.76351 26.6706 5.54302Z" fill="#30445A"/>
<path d="M12.1851 12.7394C12.1621 12.801 12.129 12.8554 12.0998 12.9127C11.8488 12.5375 11.4872 12.2322 11.0335 12.0615C10.3145 11.791 9.54498 11.9174 8.96129 12.3302C8.93365 12.0771 8.95613 11.8153 9.05111 11.5605C9.37516 10.6913 10.3396 10.2506 11.205 10.5761C12.0703 10.9015 12.5092 11.8702 12.1851 12.7394ZM10.5601 6.99234C10.503 6.98613 10.4451 6.9805 10.3866 6.97528C4.53556 6.45677 0.119736 10.732 0.119736 10.732C0.119736 10.732 2.83347 15.889 9.98475 16.5227C9.98475 16.5227 10.2249 15.6928 12.2178 14.5021C15.5406 12.5166 14.4044 7.40613 10.5601 6.99234Z" fill="#30445A"/>
<path d="M21.259 12.4012C20.685 11.9747 19.9186 11.8303 19.1936 12.0838C18.7361 12.2437 18.3674 12.5404 18.1076 12.9096C18.0799 12.8517 18.0481 12.7966 18.0266 12.7344C17.7228 11.8577 18.184 10.8998 19.0568 10.5947C19.9296 10.2896 20.8833 10.7529 21.1871 11.6296C21.2762 11.8864 21.2926 12.1488 21.259 12.4012ZM19.8715 6.97484C19.8131 6.97991 19.7552 6.98555 19.698 6.99164C15.8534 7.40269 14.7135 12.5123 18.0348 14.5002C20.0269 15.6925 20.2664 16.5224 20.2664 16.5224C27.4183 15.894 30.1356 10.739 30.1356 10.739C30.1356 10.739 25.723 6.46064 19.8715 6.97484Z" fill="#30445A"/>
<path d="M15.1277 16.5227C13.8888 16.5227 12.6531 17.2585 12.6531 18.8049C12.6531 19.0644 13.3492 19.0046 13.8267 19.2228C14.0524 19.3259 14.3738 19.5699 14.5453 19.705C14.7164 19.8399 14.922 19.9076 15.1277 19.9082C15.3333 19.9076 15.539 19.8399 15.7102 19.705C15.8817 19.5699 16.203 19.3259 16.4286 19.2228C16.9062 19.0046 17.6024 19.0644 17.6024 18.8049C17.6024 17.2585 16.3666 16.5227 15.1277 16.5227Z" fill="#30445A"/>
</g>
<defs>
<clipPath id="clip0_217_889">
<rect width="133" height="20" fill="white"/>
</clipPath>
</defs>
</svg>
