<svg width="375" height="101" viewBox="0 0 375 101" fill="none" xmlns="http://www.w3.org/2000/svg">
<g filter="url(#filter0_d_217_890)">
<rect y="21" width="375" height="80" fill="white"/>
</g>
<path d="M22.4268 66.2803H24.2529L23.3545 63.4482L22.4268 66.2803ZM22.5195 61.8027H24.2188L26.7676 69H25.1367L24.6729 67.5205H22.0215L21.5234 69H19.9512L22.5195 61.8027ZM30.752 65.5869C30.7259 65.3883 30.6592 65.2093 30.5518 65.0498C30.3955 64.835 30.153 64.7275 29.8242 64.7275C29.3555 64.7275 29.0348 64.9603 28.8623 65.4258C28.7712 65.6732 28.7256 66.002 28.7256 66.4121C28.7256 66.8027 28.7712 67.1169 28.8623 67.3545C29.0283 67.7972 29.3408 68.0186 29.7998 68.0186C30.1253 68.0186 30.3564 67.9307 30.4932 67.7549C30.6299 67.5791 30.7129 67.3512 30.7422 67.0713H32.1631C32.1305 67.4945 31.9775 67.8949 31.7041 68.2725C31.2679 68.8812 30.6217 69.1855 29.7656 69.1855C28.9095 69.1855 28.2796 68.9316 27.876 68.4238C27.4723 67.916 27.2705 67.2568 27.2705 66.4463C27.2705 65.5316 27.4935 64.8203 27.9395 64.3125C28.3854 63.8047 29.0007 63.5508 29.7852 63.5508C30.4525 63.5508 30.9977 63.7005 31.4209 64C31.8473 64.2995 32.0996 64.8285 32.1777 65.5869H30.752ZM36.3184 65.5869C36.2923 65.3883 36.2256 65.2093 36.1182 65.0498C35.9619 64.835 35.7194 64.7275 35.3906 64.7275C34.9219 64.7275 34.6012 64.9603 34.4287 65.4258C34.3376 65.6732 34.292 66.002 34.292 66.4121C34.292 66.8027 34.3376 67.1169 34.4287 67.3545C34.5947 67.7972 34.9072 68.0186 35.3662 68.0186C35.6917 68.0186 35.9229 67.9307 36.0596 67.7549C36.1963 67.5791 36.2793 67.3512 36.3086 67.0713H37.7295C37.6969 67.4945 37.5439 67.8949 37.2705 68.2725C36.8343 68.8812 36.1882 69.1855 35.332 69.1855C34.4759 69.1855 33.846 68.9316 33.4424 68.4238C33.0387 67.916 32.8369 67.2568 32.8369 66.4463C32.8369 65.5316 33.0599 64.8203 33.5059 64.3125C33.9518 63.8047 34.5671 63.5508 35.3516 63.5508C36.0189 63.5508 36.5641 63.7005 36.9873 64C37.4137 64.2995 37.666 64.8285 37.7441 65.5869H36.3184ZM40.0928 63.6777V66.8857C40.0928 67.1885 40.1286 67.4163 40.2002 67.5693C40.3271 67.8395 40.5762 67.9746 40.9473 67.9746C41.4225 67.9746 41.748 67.7826 41.9238 67.3984C42.015 67.1901 42.0605 66.915 42.0605 66.5732V63.6777H43.4717V69H42.1191V68.248C42.1061 68.2643 42.0736 68.3132 42.0215 68.3945C41.9694 68.4759 41.9076 68.5475 41.8359 68.6094C41.6178 68.8047 41.4062 68.9382 41.2012 69.0098C40.9993 69.0814 40.7617 69.1172 40.4883 69.1172C39.7005 69.1172 39.1699 68.834 38.8965 68.2676C38.7435 67.9551 38.667 67.4945 38.667 66.8857V63.6777H40.0928ZM46.9189 64.6836C46.5967 64.6836 46.346 64.7845 46.167 64.9863C45.9912 65.1882 45.8805 65.4616 45.835 65.8066H47.998C47.9753 65.4388 47.863 65.1605 47.6611 64.9717C47.4626 64.7796 47.2152 64.6836 46.9189 64.6836ZM46.9189 63.5361C47.3617 63.5361 47.7604 63.6191 48.1152 63.7852C48.4701 63.9512 48.763 64.2132 48.9941 64.5713C49.2025 64.887 49.3376 65.2533 49.3994 65.6699C49.4352 65.9141 49.4499 66.2656 49.4434 66.7246H45.8008C45.8203 67.2585 45.988 67.6328 46.3037 67.8477C46.4958 67.9811 46.7269 68.0479 46.9971 68.0479C47.2835 68.0479 47.5163 67.9665 47.6953 67.8037C47.793 67.7158 47.8792 67.5938 47.9541 67.4375H49.375C49.3392 67.7533 49.1748 68.0739 48.8818 68.3994C48.4261 68.917 47.7881 69.1758 46.9678 69.1758C46.2907 69.1758 45.6934 68.9577 45.1758 68.5215C44.6582 68.0853 44.3994 67.3757 44.3994 66.3926C44.3994 65.4714 44.6322 64.765 45.0977 64.2734C45.5664 63.7819 46.1735 63.5361 46.9189 63.5361ZM51.8164 63.043H50.4053V61.7588H51.8164V63.043ZM50.4053 63.6777H51.8164V69H50.4053V63.6777ZM54.5898 69H53.1982V61.8027H54.5898V69Z" fill="#33495D"/>
<path fill-rule="evenodd" clip-rule="evenodd" d="M36.4882 37.0089C36.7891 36.7749 37.2105 36.7749 37.5115 37.0089L45.0115 42.8422C45.2144 43.0001 45.3332 43.2429 45.3332 43.5V52.6667C45.3332 53.3297 45.0698 53.9656 44.6009 54.4345C44.1321 54.9033 43.4962 55.1667 42.8332 55.1667H31.1665C30.5035 55.1667 29.8676 54.9033 29.3987 54.4345C28.9299 53.9656 28.6665 53.3297 28.6665 52.6667V43.5C28.6665 43.2429 28.7852 43.0001 28.9882 42.8422L36.4882 37.0089ZM30.3332 43.9076V52.6667C30.3332 52.8877 30.421 53.0997 30.5772 53.256C30.7335 53.4122 30.9455 53.5 31.1665 53.5H42.8332C43.0542 53.5 43.2661 53.4122 43.4224 53.256C43.5787 53.0997 43.6665 52.8877 43.6665 52.6667V43.9076L36.9998 38.7224L30.3332 43.9076Z" fill="#33495D"/>
<path fill-rule="evenodd" clip-rule="evenodd" d="M33.6665 46C33.6665 45.5397 34.0396 45.1666 34.4998 45.1666H39.4998C39.9601 45.1666 40.3332 45.5397 40.3332 46V54.3333C40.3332 54.7935 39.9601 55.1666 39.4998 55.1666C39.0396 55.1666 38.6665 54.7935 38.6665 54.3333V46.8333H35.3332V54.3333C35.3332 54.7935 34.9601 55.1666 34.4998 55.1666C34.0396 55.1666 33.6665 54.7935 33.6665 54.3333V46Z" fill="#33495D"/>
<path opacity="0.7" d="M103.506 61.8271H104.897L106.958 67.8916L109.004 61.8271H110.381V69H109.458V64.7666C109.458 64.6201 109.461 64.3776 109.468 64.0391C109.474 63.7005 109.478 63.3376 109.478 62.9502L107.432 69H106.47L104.409 62.9502V63.1699C104.409 63.3457 104.412 63.6143 104.419 63.9756C104.429 64.3337 104.434 64.5973 104.434 64.7666V69H103.506V61.8271ZM112.417 67.6084C112.417 67.8623 112.51 68.0625 112.695 68.209C112.881 68.3555 113.101 68.4287 113.354 68.4287C113.664 68.4287 113.963 68.3571 114.253 68.2139C114.741 67.9762 114.985 67.5872 114.985 67.0469V66.3389C114.878 66.4072 114.74 66.4642 114.57 66.5098C114.401 66.5553 114.235 66.5879 114.072 66.6074L113.54 66.6758C113.221 66.7181 112.982 66.7848 112.822 66.876C112.552 67.029 112.417 67.2731 112.417 67.6084ZM114.546 65.8311C114.748 65.805 114.883 65.7204 114.951 65.5771C114.99 65.499 115.01 65.3867 115.01 65.2402C115.01 64.9408 114.902 64.7243 114.688 64.5908C114.476 64.4541 114.172 64.3857 113.774 64.3857C113.315 64.3857 112.99 64.5094 112.798 64.7568C112.69 64.8936 112.62 65.097 112.588 65.3672H111.768C111.784 64.7227 111.992 64.2751 112.393 64.0244C112.796 63.7705 113.263 63.6436 113.794 63.6436C114.409 63.6436 114.909 63.7607 115.293 63.9951C115.674 64.2295 115.864 64.5941 115.864 65.0889V68.1016C115.864 68.1927 115.882 68.266 115.918 68.3213C115.957 68.3766 116.037 68.4043 116.157 68.4043C116.196 68.4043 116.24 68.4027 116.289 68.3994C116.338 68.3929 116.39 68.3848 116.445 68.375V69.0244C116.309 69.0635 116.204 69.0879 116.133 69.0977C116.061 69.1074 115.964 69.1123 115.84 69.1123C115.537 69.1123 115.317 69.0049 115.181 68.79C115.109 68.6761 115.059 68.515 115.029 68.3066C114.85 68.541 114.593 68.7445 114.258 68.917C113.923 69.0895 113.553 69.1758 113.149 69.1758C112.664 69.1758 112.267 69.0293 111.958 68.7363C111.652 68.4401 111.499 68.0706 111.499 67.6279C111.499 67.1429 111.65 66.7669 111.953 66.5C112.256 66.2331 112.653 66.0687 113.145 66.0068L114.546 65.8311ZM119.517 68.4092C119.927 68.4092 120.267 68.2383 120.537 67.8965C120.811 67.5514 120.947 67.0371 120.947 66.3535C120.947 65.9368 120.887 65.5788 120.767 65.2793C120.539 64.7031 120.122 64.415 119.517 64.415C118.908 64.415 118.491 64.7194 118.267 65.3281C118.146 65.6536 118.086 66.0671 118.086 66.5684C118.086 66.972 118.146 67.3154 118.267 67.5986C118.494 68.139 118.911 68.4092 119.517 68.4092ZM117.241 63.7949H118.096V64.4883C118.271 64.2507 118.464 64.0667 118.672 63.9365C118.968 63.7412 119.316 63.6436 119.717 63.6436C120.309 63.6436 120.812 63.8714 121.226 64.3271C121.639 64.7796 121.846 65.4274 121.846 66.2705C121.846 67.4098 121.548 68.2236 120.952 68.7119C120.575 69.0212 120.135 69.1758 119.634 69.1758C119.24 69.1758 118.91 69.0895 118.643 68.917C118.486 68.8193 118.312 68.6517 118.12 68.4141V71.085H117.241V63.7949Z" fill="#ADB6BE"/>
<path fill-rule="evenodd" clip-rule="evenodd" d="M112 37.6667C110.232 37.6667 108.536 38.369 107.286 39.6193C106.036 40.8695 105.333 42.5652 105.333 44.3333C105.333 46.915 107.013 49.4202 108.855 51.3644C109.759 52.3185 110.665 53.0996 111.347 53.6424C111.601 53.8444 111.822 54.0127 112 54.1438C112.177 54.0127 112.399 53.8444 112.653 53.6424C113.334 53.0996 114.241 52.3185 115.145 51.3644C116.987 49.4202 118.667 46.915 118.667 44.3333C118.667 42.5652 117.964 40.8695 116.714 39.6193C115.464 38.369 113.768 37.6667 112 37.6667ZM112 55.1667C111.538 55.86 111.537 55.8599 111.537 55.8597L111.535 55.8582L111.529 55.8544L111.51 55.8415C111.494 55.8305 111.471 55.8147 111.441 55.7942C111.382 55.7532 111.297 55.6934 111.19 55.616C110.975 55.4612 110.672 55.2352 110.309 54.9462C109.584 54.3692 108.616 53.5357 107.645 52.5106C105.737 50.4965 103.667 47.585 103.667 44.3333C103.667 42.1232 104.544 40.0036 106.107 38.4408C107.67 36.878 109.79 36 112 36C114.21 36 116.33 36.878 117.892 38.4408C119.455 40.0036 120.333 42.1232 120.333 44.3333C120.333 47.585 118.263 50.4965 116.355 52.5106C115.384 53.5357 114.415 54.3692 113.691 54.9462C113.328 55.2352 113.024 55.4612 112.81 55.616C112.703 55.6934 112.618 55.7532 112.559 55.7942C112.529 55.8147 112.506 55.8305 112.49 55.8415L112.47 55.8544L112.465 55.8582L112.463 55.8593C112.463 55.8595 112.462 55.86 112 55.1667ZM112 55.1667L112.462 55.86C112.182 56.0467 111.817 56.0464 111.537 55.8597L112 55.1667Z" fill="#ADB6BE"/>
<path fill-rule="evenodd" clip-rule="evenodd" d="M112 42.6667C111.079 42.6667 110.333 43.4129 110.333 44.3333C110.333 45.2538 111.079 46 112 46C112.92 46 113.667 45.2538 113.667 44.3333C113.667 43.4129 112.92 42.6667 112 42.6667ZM108.667 44.3333C108.667 42.4924 110.159 41 112 41C113.841 41 115.333 42.4924 115.333 44.3333C115.333 46.1743 113.841 47.6667 112 47.6667C110.159 47.6667 108.667 46.1743 108.667 44.3333Z" fill="#ADB6BE"/>
<g filter="url(#filter1_d_217_890)">
<rect x="165" y="32" width="45" height="45" rx="22.5" fill="url(#paint0_linear_217_890)"/>
</g>
<path d="M195 54H189V48C189 47.7348 188.895 47.4804 188.707 47.2929C188.52 47.1054 188.265 47 188 47C187.735 47 187.48 47.1054 187.293 47.2929C187.105 47.4804 187 47.7348 187 48V54H181C180.735 54 180.48 54.1054 180.293 54.2929C180.105 54.4804 180 54.7348 180 55C180 55.2652 180.105 55.5196 180.293 55.7071C180.48 55.8946 180.735 56 181 56H187V62C187 62.2652 187.105 62.5196 187.293 62.7071C187.48 62.8946 187.735 63 188 63C188.265 63 188.52 62.8946 188.707 62.7071C188.895 62.5196 189 62.2652 189 62V56H195C195.265 56 195.52 55.8946 195.707 55.7071C195.895 55.5196 196 55.2652 196 55C196 54.7348 195.895 54.4804 195.707 54.2929C195.52 54.1054 195.265 54 195 54Z" fill="white"/>
<path opacity="0.7" d="M236.006 61.8271H237.153L240.776 67.6377V61.8271H241.699V69H240.61L236.934 63.1943V69H236.006V61.8271ZM245.19 68.4336C245.773 68.4336 246.172 68.2139 246.387 67.7744C246.605 67.3317 246.714 66.8402 246.714 66.2998C246.714 65.8115 246.636 65.4144 246.479 65.1084C246.232 64.6266 245.806 64.3857 245.2 64.3857C244.663 64.3857 244.272 64.5908 244.028 65.001C243.784 65.4111 243.662 65.9059 243.662 66.4854C243.662 67.042 243.784 67.5059 244.028 67.877C244.272 68.248 244.66 68.4336 245.19 68.4336ZM245.225 63.6191C245.898 63.6191 246.468 63.8438 246.934 64.293C247.399 64.7422 247.632 65.403 247.632 66.2754C247.632 67.1185 247.427 67.8151 247.017 68.3652C246.606 68.9154 245.97 69.1904 245.107 69.1904C244.388 69.1904 243.817 68.9479 243.394 68.4629C242.97 67.9746 242.759 67.3203 242.759 66.5C242.759 65.6211 242.982 64.9212 243.428 64.4004C243.874 63.8796 244.473 63.6191 245.225 63.6191ZM248.857 62.3105H249.746V63.7705H250.581V64.4883H249.746V67.9014C249.746 68.0837 249.808 68.2057 249.932 68.2676C250 68.3034 250.114 68.3213 250.273 68.3213C250.316 68.3213 250.361 68.3213 250.41 68.3213C250.459 68.318 250.516 68.3132 250.581 68.3066V69C250.48 69.0293 250.374 69.0505 250.264 69.0635C250.156 69.0765 250.039 69.083 249.912 69.083C249.502 69.083 249.224 68.9788 249.077 68.7705C248.931 68.5589 248.857 68.2855 248.857 67.9502V64.4883H248.149V63.7705H248.857V62.3105ZM251.465 63.7949H252.358V69H251.465V63.7949ZM251.465 61.8271H252.358V62.8232H251.465V61.8271ZM253.911 62.9746C253.924 62.61 253.988 62.3431 254.102 62.1738C254.307 61.8743 254.702 61.7246 255.288 61.7246C255.343 61.7246 255.4 61.7262 255.459 61.7295C255.518 61.7327 255.584 61.7376 255.659 61.7441V62.5449C255.568 62.5384 255.501 62.5352 255.459 62.5352C255.42 62.5319 255.382 62.5303 255.347 62.5303C255.08 62.5303 254.92 62.6003 254.868 62.7402C254.816 62.877 254.79 63.2285 254.79 63.7949H255.659V64.4883H254.78V69H253.911V64.4883H253.184V63.7949H253.911V62.9746ZM256.504 62.8232V61.8271H257.383V62.8232H256.504ZM256.504 63.7949H257.383V69H256.504V63.7949ZM260.708 63.6191C261.297 63.6191 261.776 63.7624 262.144 64.0488C262.515 64.3353 262.738 64.8285 262.812 65.5283H261.958C261.906 65.2061 261.787 64.9391 261.602 64.7275C261.416 64.5127 261.118 64.4053 260.708 64.4053C260.148 64.4053 259.748 64.6787 259.507 65.2256C259.351 65.5804 259.272 66.0182 259.272 66.5391C259.272 67.0632 259.383 67.5042 259.604 67.8623C259.826 68.2204 260.174 68.3994 260.649 68.3994C261.014 68.3994 261.302 68.2887 261.514 68.0674C261.729 67.8428 261.877 67.5368 261.958 67.1494H262.812C262.715 67.8428 262.471 68.3506 262.08 68.6729C261.689 68.9919 261.19 69.1514 260.581 69.1514C259.897 69.1514 259.352 68.9023 258.945 68.4043C258.538 67.903 258.335 67.278 258.335 66.5293C258.335 65.6113 258.558 64.8968 259.004 64.3857C259.45 63.8747 260.018 63.6191 260.708 63.6191ZM264.365 67.6084C264.365 67.8623 264.458 68.0625 264.644 68.209C264.829 68.3555 265.049 68.4287 265.303 68.4287C265.612 68.4287 265.911 68.3571 266.201 68.2139C266.689 67.9762 266.934 67.5872 266.934 67.0469V66.3389C266.826 66.4072 266.688 66.4642 266.519 66.5098C266.349 66.5553 266.183 66.5879 266.021 66.6074L265.488 66.6758C265.169 66.7181 264.93 66.7848 264.771 66.876C264.5 67.029 264.365 67.2731 264.365 67.6084ZM266.494 65.8311C266.696 65.805 266.831 65.7204 266.899 65.5771C266.938 65.499 266.958 65.3867 266.958 65.2402C266.958 64.9408 266.851 64.7243 266.636 64.5908C266.424 64.4541 266.12 64.3857 265.723 64.3857C265.264 64.3857 264.938 64.5094 264.746 64.7568C264.639 64.8936 264.569 65.097 264.536 65.3672H263.716C263.732 64.7227 263.94 64.2751 264.341 64.0244C264.744 63.7705 265.212 63.6436 265.742 63.6436C266.357 63.6436 266.857 63.7607 267.241 63.9951C267.622 64.2295 267.812 64.5941 267.812 65.0889V68.1016C267.812 68.1927 267.83 68.266 267.866 68.3213C267.905 68.3766 267.985 68.4043 268.105 68.4043C268.145 68.4043 268.188 68.4027 268.237 68.3994C268.286 68.3929 268.338 68.3848 268.394 68.375V69.0244C268.257 69.0635 268.153 69.0879 268.081 69.0977C268.009 69.1074 267.912 69.1123 267.788 69.1123C267.485 69.1123 267.266 69.0049 267.129 68.79C267.057 68.6761 267.007 68.515 266.978 68.3066C266.799 68.541 266.541 68.7445 266.206 68.917C265.871 69.0895 265.501 69.1758 265.098 69.1758C264.613 69.1758 264.215 69.0293 263.906 68.7363C263.6 68.4401 263.447 68.0706 263.447 67.6279C263.447 67.1429 263.599 66.7669 263.901 66.5C264.204 66.2331 264.601 66.0687 265.093 66.0068L266.494 65.8311ZM269.434 62.3105H270.322V63.7705H271.157V64.4883H270.322V67.9014C270.322 68.0837 270.384 68.2057 270.508 68.2676C270.576 68.3034 270.69 68.3213 270.85 68.3213C270.892 68.3213 270.938 68.3213 270.986 68.3213C271.035 68.318 271.092 68.3132 271.157 68.3066V69C271.056 69.0293 270.951 69.0505 270.84 69.0635C270.732 69.0765 270.615 69.083 270.488 69.083C270.078 69.083 269.8 68.9788 269.653 68.7705C269.507 68.5589 269.434 68.2855 269.434 67.9502V64.4883H268.726V63.7705H269.434V62.3105ZM272.041 63.7949H272.935V69H272.041V63.7949ZM272.041 61.8271H272.935V62.8232H272.041V61.8271ZM276.343 68.4336C276.925 68.4336 277.324 68.2139 277.539 67.7744C277.757 67.3317 277.866 66.8402 277.866 66.2998C277.866 65.8115 277.788 65.4144 277.632 65.1084C277.384 64.6266 276.958 64.3857 276.353 64.3857C275.815 64.3857 275.425 64.5908 275.181 65.001C274.937 65.4111 274.814 65.9059 274.814 66.4854C274.814 67.042 274.937 67.5059 275.181 67.877C275.425 68.248 275.812 68.4336 276.343 68.4336ZM276.377 63.6191C277.051 63.6191 277.62 63.8438 278.086 64.293C278.551 64.7422 278.784 65.403 278.784 66.2754C278.784 67.1185 278.579 67.8151 278.169 68.3652C277.759 68.9154 277.122 69.1904 276.26 69.1904C275.54 69.1904 274.969 68.9479 274.546 68.4629C274.123 67.9746 273.911 67.3203 273.911 66.5C273.911 65.6211 274.134 64.9212 274.58 64.4004C275.026 63.8796 275.625 63.6191 276.377 63.6191ZM279.834 63.7705H280.669V64.5127C280.916 64.2067 281.178 63.987 281.455 63.8535C281.732 63.7201 282.039 63.6533 282.378 63.6533C283.12 63.6533 283.621 63.9121 283.882 64.4297C284.025 64.7129 284.097 65.1182 284.097 65.6455V69H283.203V65.7041C283.203 65.3851 283.156 65.1279 283.062 64.9326C282.905 64.6071 282.622 64.4443 282.212 64.4443C282.004 64.4443 281.833 64.4655 281.699 64.5078C281.458 64.5794 281.247 64.7227 281.064 64.9375C280.918 65.11 280.822 65.2891 280.776 65.4746C280.734 65.6569 280.713 65.9189 280.713 66.2607V69H279.834V63.7705ZM285.923 67.3594C285.949 67.6523 286.022 67.877 286.143 68.0332C286.364 68.3164 286.748 68.458 287.295 68.458C287.62 68.458 287.907 68.388 288.154 68.248C288.402 68.1048 288.525 67.8851 288.525 67.5889C288.525 67.3643 288.426 67.1934 288.228 67.0762C288.101 67.0046 287.85 66.9215 287.476 66.8271L286.777 66.6514C286.331 66.5407 286.003 66.417 285.791 66.2803C285.413 66.0426 285.225 65.7139 285.225 65.2939C285.225 64.7992 285.402 64.3988 285.757 64.0928C286.115 63.7868 286.595 63.6338 287.197 63.6338C287.985 63.6338 288.553 63.8649 288.901 64.3271C289.119 64.6201 289.225 64.9359 289.219 65.2744H288.389C288.372 65.0758 288.302 64.8952 288.179 64.7324C287.977 64.5013 287.627 64.3857 287.129 64.3857C286.797 64.3857 286.545 64.4492 286.372 64.5762C286.203 64.7031 286.118 64.8708 286.118 65.0791C286.118 65.307 286.23 65.4893 286.455 65.626C286.585 65.7074 286.777 65.779 287.031 65.8408L287.612 65.9824C288.244 66.1354 288.667 66.2835 288.882 66.4268C289.224 66.6514 289.395 67.0046 289.395 67.4863C289.395 67.9518 289.217 68.3538 288.862 68.6924C288.511 69.0309 287.974 69.2002 287.251 69.2002C286.473 69.2002 285.921 69.0244 285.596 68.6729C285.273 68.318 285.101 67.8802 285.078 67.3594H285.923Z" fill="#ADB6BE"/>
<path fill-rule="evenodd" clip-rule="evenodd" d="M257.875 38.5419C258.969 37.4479 260.453 36.8333 262 36.8333C263.547 36.8333 265.031 37.4479 266.125 38.5419C267.219 39.6358 267.833 41.1196 267.833 42.6667C267.833 45.4605 268.431 47.1955 268.982 48.2051C269.258 48.712 269.527 49.0446 269.714 49.242C269.808 49.3409 269.882 49.4065 269.926 49.4435C269.948 49.462 269.963 49.4733 269.97 49.4781C269.971 49.4788 269.971 49.4794 269.972 49.4798C270.271 49.685 270.403 50.0604 270.298 50.4081C270.191 50.7596 269.867 51 269.5 51H254.5C254.133 51 253.809 50.7596 253.702 50.4081C253.597 50.0604 253.729 49.685 254.028 49.4798C254.029 49.4794 254.029 49.4788 254.03 49.4781C254.037 49.4733 254.052 49.462 254.074 49.4435C254.118 49.4065 254.192 49.3409 254.286 49.242C254.473 49.0446 254.742 48.712 255.018 48.2051C255.569 47.1955 256.167 45.4605 256.167 42.6667C256.167 41.1196 256.781 39.6358 257.875 38.5419ZM254.036 49.4741C254.037 49.4741 254.037 49.474 254.037 49.474C254.037 49.474 254.037 49.474 254.037 49.474L254.036 49.4741ZM256.291 49.3333H267.709C267.645 49.2294 267.582 49.1195 267.518 49.0032C266.819 47.7211 266.167 45.7061 266.167 42.6667C266.167 41.5616 265.728 40.5018 264.946 39.7204C264.165 38.939 263.105 38.5 262 38.5C260.895 38.5 259.835 38.939 259.054 39.7204C258.272 40.5018 257.833 41.5616 257.833 42.6667C257.833 45.7061 257.181 47.7211 256.482 49.0032C256.418 49.1195 256.355 49.2294 256.291 49.3333Z" fill="#ADB6BE"/>
<path fill-rule="evenodd" clip-rule="evenodd" d="M260.14 52.7791C260.539 52.5482 261.048 52.6837 261.279 53.0818C261.353 53.2081 261.458 53.3129 261.584 53.3858C261.711 53.4587 261.854 53.497 262 53.497C262.146 53.497 262.29 53.4587 262.416 53.3858C262.543 53.3129 262.648 53.2081 262.721 53.0818C262.952 52.6837 263.462 52.5482 263.86 52.7791C264.258 53.0101 264.394 53.52 264.163 53.9181C263.943 54.297 263.628 54.6114 263.248 54.83C262.868 55.0486 262.438 55.1637 262 55.1637C261.562 55.1637 261.132 55.0486 260.752 54.83C260.373 54.6114 260.057 54.297 259.838 53.9181C259.607 53.52 259.742 53.0101 260.14 52.7791Z" fill="#ADB6BE"/>
<path opacity="0.7" d="M323.765 61.6318C324.673 61.6318 325.378 61.8711 325.879 62.3496C326.38 62.8281 326.659 63.3717 326.714 63.9805H325.767C325.659 63.5182 325.444 63.152 325.122 62.8818C324.803 62.6117 324.354 62.4766 323.774 62.4766C323.068 62.4766 322.497 62.7256 322.061 63.2236C321.628 63.7184 321.411 64.4785 321.411 65.5039C321.411 66.3438 321.606 67.0257 321.997 67.5498C322.391 68.0706 322.977 68.3311 323.755 68.3311C324.471 68.3311 325.016 68.056 325.391 67.5059C325.589 67.2161 325.737 66.8353 325.835 66.3633H326.782C326.698 67.1185 326.418 67.7516 325.942 68.2627C325.373 68.8779 324.604 69.1855 323.638 69.1855C322.804 69.1855 322.104 68.9333 321.538 68.4287C320.793 67.7614 320.42 66.7311 320.42 65.3379C320.42 64.2799 320.7 63.4124 321.26 62.7354C321.865 61.9997 322.7 61.6318 323.765 61.6318ZM329.927 68.4336C330.509 68.4336 330.908 68.2139 331.123 67.7744C331.341 67.3317 331.45 66.8402 331.45 66.2998C331.45 65.8115 331.372 65.4144 331.216 65.1084C330.968 64.6266 330.542 64.3857 329.937 64.3857C329.399 64.3857 329.009 64.5908 328.765 65.001C328.521 65.4111 328.398 65.9059 328.398 66.4854C328.398 67.042 328.521 67.5059 328.765 67.877C329.009 68.248 329.396 68.4336 329.927 68.4336ZM329.961 63.6191C330.635 63.6191 331.204 63.8438 331.67 64.293C332.135 64.7422 332.368 65.403 332.368 66.2754C332.368 67.1185 332.163 67.8151 331.753 68.3652C331.343 68.9154 330.706 69.1904 329.844 69.1904C329.124 69.1904 328.553 68.9479 328.13 68.4629C327.707 67.9746 327.495 67.3203 327.495 66.5C327.495 65.6211 327.718 64.9212 328.164 64.4004C328.61 63.8796 329.209 63.6191 329.961 63.6191ZM333.418 63.7705H334.287V64.5127C334.495 64.2555 334.684 64.0684 334.854 63.9512C335.143 63.7526 335.472 63.6533 335.84 63.6533C336.257 63.6533 336.592 63.7559 336.846 63.9609C336.989 64.0781 337.119 64.2507 337.236 64.4785C337.432 64.1986 337.661 63.9919 337.925 63.8584C338.188 63.7217 338.485 63.6533 338.813 63.6533C339.517 63.6533 339.995 63.9072 340.249 64.415C340.386 64.6885 340.454 65.0563 340.454 65.5186V69H339.541V65.3672C339.541 65.0189 339.453 64.7796 339.277 64.6494C339.105 64.5192 338.893 64.4541 338.643 64.4541C338.298 64.4541 338 64.5697 337.749 64.8008C337.502 65.0319 337.378 65.4176 337.378 65.958V69H336.484V65.5869C336.484 65.2321 336.442 64.9733 336.357 64.8105C336.224 64.5664 335.975 64.4443 335.61 64.4443C335.278 64.4443 334.976 64.5729 334.702 64.8301C334.432 65.0872 334.297 65.5527 334.297 66.2266V69H333.418V63.7705ZM343.955 68.4092C344.365 68.4092 344.705 68.2383 344.976 67.8965C345.249 67.5514 345.386 67.0371 345.386 66.3535C345.386 65.9368 345.326 65.5788 345.205 65.2793C344.977 64.7031 344.561 64.415 343.955 64.415C343.346 64.415 342.93 64.7194 342.705 65.3281C342.585 65.6536 342.524 66.0671 342.524 66.5684C342.524 66.972 342.585 67.3154 342.705 67.5986C342.933 68.139 343.35 68.4092 343.955 68.4092ZM341.68 63.7949H342.534V64.4883C342.71 64.2507 342.902 64.0667 343.11 63.9365C343.407 63.7412 343.755 63.6436 344.155 63.6436C344.748 63.6436 345.251 63.8714 345.664 64.3271C346.077 64.7796 346.284 65.4274 346.284 66.2705C346.284 67.4098 345.986 68.2236 345.391 68.7119C345.013 69.0212 344.574 69.1758 344.072 69.1758C343.678 69.1758 343.348 69.0895 343.081 68.917C342.925 68.8193 342.751 68.6517 342.559 68.4141V71.085H341.68V63.7949ZM347.49 62.3105H348.379V63.7705H349.214V64.4883H348.379V67.9014C348.379 68.0837 348.441 68.2057 348.564 68.2676C348.633 68.3034 348.747 68.3213 348.906 68.3213C348.949 68.3213 348.994 68.3213 349.043 68.3213C349.092 68.318 349.149 68.3132 349.214 68.3066V69C349.113 69.0293 349.007 69.0505 348.896 69.0635C348.789 69.0765 348.672 69.083 348.545 69.083C348.135 69.083 347.856 68.9788 347.71 68.7705C347.563 68.5589 347.49 68.2855 347.49 67.9502V64.4883H346.782V63.7705H347.49V62.3105ZM352.275 63.6533C352.646 63.6533 353.006 63.7412 353.354 63.917C353.703 64.0895 353.968 64.3141 354.15 64.5908C354.326 64.8545 354.443 65.1621 354.502 65.5137C354.554 65.7546 354.58 66.1387 354.58 66.666H350.747C350.763 67.1966 350.889 67.623 351.123 67.9453C351.357 68.2643 351.72 68.4238 352.212 68.4238C352.671 68.4238 353.037 68.2725 353.311 67.9697C353.467 67.7939 353.577 67.5905 353.643 67.3594H354.507C354.484 67.5514 354.408 67.7663 354.277 68.0039C354.15 68.2383 354.007 68.4303 353.848 68.5801C353.581 68.8405 353.25 69.0163 352.856 69.1074C352.645 69.1595 352.406 69.1855 352.139 69.1855C351.488 69.1855 350.936 68.9495 350.483 68.4775C350.031 68.0023 349.805 67.3382 349.805 66.4854C349.805 65.6455 350.033 64.9635 350.488 64.4395C350.944 63.9154 351.54 63.6533 352.275 63.6533ZM353.677 65.9678C353.641 65.5869 353.558 65.2826 353.428 65.0547C353.187 64.6315 352.785 64.4199 352.222 64.4199C351.818 64.4199 351.479 64.5664 351.206 64.8594C350.933 65.1491 350.788 65.5186 350.771 65.9678H353.677Z" fill="#ADB6BE"/>
<path fill-rule="evenodd" clip-rule="evenodd" d="M330.72 48.887C331.502 48.1056 332.562 47.6667 333.667 47.6667H340.333C341.438 47.6667 342.498 48.1056 343.28 48.887C344.061 49.6684 344.5 50.7283 344.5 51.8333V53.5C344.5 53.9602 344.127 54.3333 343.667 54.3333C343.206 54.3333 342.833 53.9602 342.833 53.5V51.8333C342.833 51.1703 342.57 50.5344 342.101 50.0656C341.632 49.5967 340.996 49.3333 340.333 49.3333H333.667C333.004 49.3333 332.368 49.5967 331.899 50.0656C331.43 50.5344 331.167 51.1703 331.167 51.8333V53.5C331.167 53.9602 330.794 54.3333 330.333 54.3333C329.873 54.3333 329.5 53.9602 329.5 53.5V51.8333C329.5 50.7283 329.939 49.6684 330.72 48.887Z" fill="#ADB6BE"/>
<path fill-rule="evenodd" clip-rule="evenodd" d="M337 39.3333C335.619 39.3333 334.5 40.4526 334.5 41.8333C334.5 43.214 335.619 44.3333 337 44.3333C338.381 44.3333 339.5 43.214 339.5 41.8333C339.5 40.4526 338.381 39.3333 337 39.3333ZM332.833 41.8333C332.833 39.5321 334.699 37.6666 337 37.6666C339.301 37.6666 341.167 39.5321 341.167 41.8333C341.167 44.1345 339.301 46 337 46C334.699 46 332.833 44.1345 332.833 41.8333Z" fill="#ADB6BE"/>
<rect x="120" y="88" width="135" height="5" rx="2.5" fill="#ECECEC"/>
<defs>
<filter id="filter0_d_217_890" x="-20" y="0" width="415" height="120" filterUnits="userSpaceOnUse" color-interpolation-filters="sRGB">
<feFlood flood-opacity="0" result="BackgroundImageFix"/>
<feColorMatrix in="SourceAlpha" type="matrix" values="0 0 0 0 0 0 0 0 0 0 0 0 0 0 0 0 0 0 127 0" result="hardAlpha"/>
<feOffset dy="-1"/>
<feGaussianBlur stdDeviation="10"/>
<feColorMatrix type="matrix" values="0 0 0 0 0 0 0 0 0 0 0 0 0 0 0 0 0 0 0.08 0"/>
<feBlend mode="normal" in2="BackgroundImageFix" result="effect1_dropShadow_217_890"/>
<feBlend mode="normal" in="SourceGraphic" in2="effect1_dropShadow_217_890" result="shape"/>
</filter>
<filter id="filter1_d_217_890" x="155" y="26" width="65" height="65" filterUnits="userSpaceOnUse" color-interpolation-filters="sRGB">
<feFlood flood-opacity="0" result="BackgroundImageFix"/>
<feColorMatrix in="SourceAlpha" type="matrix" values="0 0 0 0 0 0 0 0 0 0 0 0 0 0 0 0 0 0 127 0" result="hardAlpha"/>
<feOffset dy="4"/>
<feGaussianBlur stdDeviation="5"/>
<feComposite in2="hardAlpha" operator="out"/>
<feColorMatrix type="matrix" values="0 0 0 0 0.945098 0 0 0 0 0.607843 0 0 0 0 0.0823529 0 0 0 0.4 0"/>
<feBlend mode="normal" in2="BackgroundImageFix" result="effect1_dropShadow_217_890"/>
<feBlend mode="normal" in="SourceGraphic" in2="effect1_dropShadow_217_890" result="shape"/>
</filter>
<linearGradient id="paint0_linear_217_890" x1="165" y1="54.5" x2="210" y2="54.5" gradientUnits="userSpaceOnUse">
<stop stop-color="#FFCD1E"/>
<stop offset="1" stop-color="#F19B15"/>
</linearGradient>
</defs>
</svg>
